<svg width="483" height="29" viewBox="0 0 483 29" fill="none" xmlns="http://www.w3.org/2000/svg">
<path d="M471.942 23.1174L470.821 18.3035C470.74 17.961 470.471 17.6925 470.129 17.6119L465.315 16.4907C464.362 16.2691 464.362 14.9129 465.315 14.6913L470.129 13.5701C470.471 13.4895 470.74 13.2209 470.821 12.8785L471.942 8.06457C472.163 7.11118 473.52 7.11118 473.741 8.06457L474.862 12.8785C474.943 13.2209 475.212 13.4895 475.554 13.5701L480.368 14.6913C481.321 14.9129 481.321 16.2691 480.368 16.4907L475.554 17.6119C475.212 17.6925 474.943 17.961 474.862 18.3035L473.741 23.1174C473.513 24.0708 472.163 24.0708 471.942 23.1174Z" stroke="white" stroke-width="2" stroke-miterlimit="10"/>
<path d="M51.3017 18.9099C51.9403 19.3442 53.2175 19.1824 53.8603 14.461C54.3201 11.0593 53.7326 3.21302 56.4957 1.42066C59.6078 -0.597328 63.1159 0.428698 63.0137 6.63594C62.9115 12.9496 62.4517 27.9356 51.9701 27.7567C41.0031 27.5694 41.7439 17.6327 43.1488 12.0343C43.8385 9.28828 44.7836 2.70213 42.5613 2.29342C42.5613 2.29342 46.5292 -1.10396 50.3863 1.27165C54.7799 3.97934 49.5902 17.7477 51.3017 18.9099Z" fill="white"/>
<path d="M124.984 18.4714C124.15 22.5287 123.664 25.6153 125.359 26.9351C128.816 29.6215 133.827 25.9559 133.827 25.9559C131.634 25.5471 133.052 18.961 133.937 16.215C135.743 10.608 136.539 -0.546272 126.24 0.492525C118.364 1.28014 114.554 6.97224 114.29 13.1837C113.987 20.2893 121.08 21.0429 124.984 18.4714ZM125.853 7.74709C127.177 7.70451 126.479 11.2126 125.606 15.1507C121.698 16.5215 123.63 7.8152 125.853 7.74709Z" fill="white"/>
<path d="M10.0186 8.0964C11.1426 8.13046 10.8105 10.306 10.6657 12.324C10.3081 17.3604 18.8058 19.0378 20.2448 11.8812C21.4709 5.79316 18.2183 0.479965 10.5976 0.428877C0.316056 0.360759 -0.0543359 9.05005 0.00526666 13.2052C0.184074 25.9135 10.7934 22.0521 13.6076 27.8804C13.6076 27.8804 17.635 27.3951 17.5967 23.3548C17.5456 18.2162 11.3128 19.0549 9.3885 16.4536C7.8005 14.2994 8.84783 8.06235 10.0186 8.0964Z" fill="white"/>
<path d="M63.9165 13.2349C63.8781 18.1564 69.2126 20.4937 69.2126 20.4937C69.2126 20.4937 67.3096 24.7511 69.3701 26.8117C71.1114 28.5487 74.0362 28.3273 75.8115 27.744C78.5618 26.8415 82.5212 23.0482 82.3381 27.7057C82.3381 27.7057 86.9488 17.8925 78.6299 21.1962C74.7344 22.7416 73.785 22.5628 74.6663 20.796C74.6663 20.796 81.5079 20.5917 83.8963 14.129C86.2804 7.65776 83.2832 0.424494 75.5646 0.424493C67.8332 0.424493 63.9761 5.28642 63.9165 13.2349ZM75.2283 6.30393C77.2165 6.50829 75.3688 15.7681 73.3508 15.4828C71.32 15.1933 73.0315 6.07829 75.2283 6.30393Z" fill="white"/>
<path d="M31.4672 18.6376C31.4672 18.6376 33.085 14.6783 32.1568 10.9659C32.0291 10.455 31.1606 8.15175 28.091 9.22887C24.9406 10.3315 20.8024 8.68817 21.3176 5.41852C22.6203 -2.89187 41.7061 -0.0522041 41.7444 10.0207C41.7955 23.2143 37.4743 27.7399 29.6748 27.8932C25.7367 27.9698 21.5177 25.5388 21.3133 21.0175C21.1302 17.0028 23.8294 12.7071 21.3474 11.7109C21.3474 11.7109 25.1918 8.94788 28.8659 11.3022C32.9317 13.912 28.3465 19.0762 29.2661 20.2767C30.2282 21.5241 31.4672 18.6376 31.4672 18.6376Z" fill="white"/>
<path d="M167.75 12.4686C168.852 12.4516 169.168 10.5656 169.806 5.8484C170.266 2.44677 170.879 1.96142 171.492 1.47608C174.4 -0.827158 178.457 0.539465 177.916 6.72542C177.376 12.9114 176.192 18.1863 166.954 18.4417C155.357 18.761 158.311 8.82856 159.103 5.33751C159.32 4.38812 159.78 2.75329 157.558 2.34458C157.558 2.34458 161.372 -1.04427 165.293 1.22065C169.589 3.69844 165.536 12.5069 167.75 12.4686Z" fill="white"/>
<path d="M177.921 6.7253C177.921 6.7253 177.789 19.1824 173.821 24.1422C170.092 28.804 164.651 27.8929 161.581 26.7392C158.733 25.6663 157.464 27.7184 157.464 27.7184C157.464 27.7184 157.226 21.0386 162.875 21.0301C168.274 21.0215 168.295 13.188 169.3 9.74803C170.279 6.41451 177.921 6.7253 177.921 6.7253Z" fill="white"/>
<path d="M155.471 20.0594C156.412 16.1512 159.984 0.424442 149.298 0.424442C137.484 0.424442 133.576 14.9208 137.744 18.7822C137.744 18.7822 135.508 20.4681 137.054 23.1545C138.412 25.5131 135.436 27.7908 135.436 27.7908C135.436 27.7908 143.116 29.5236 144.47 24.3509C144.717 23.4015 144.56 22.4223 144.202 21.541C143.887 20.7704 143.747 19.6082 145.1 18.7226C145.1 18.7226 144.087 17.9052 144.564 15.6531C144.875 14.1843 145.85 8.09198 147.318 7.91317C148.187 7.80673 147.932 9.88007 147.255 14.9463C146.578 20.0126 144.577 27.2118 148.046 27.6972C153.411 28.4465 154.445 24.3211 155.471 20.0594Z" fill="white"/>
<path d="M204.678 17.7692C204.678 17.7692 208.654 1.56561 203.503 0.560875C197.598 -0.588616 195.856 5.72506 195.805 10.9403C195.754 16.1556 195.358 19.2848 193.736 19.1996C190.156 19.0081 195.984 10.174 191.922 10.174C189.389 10.174 190.211 18.2034 188.623 18.7909C186.073 19.7361 186.771 16.0407 188.955 10.1485C191.271 3.89866 186.954 0.348005 184.293 0.467212C181.632 0.586417 179.827 1.42086 178.84 3.62192C178.84 3.62192 180.543 3.1451 180.372 5.76764C180.185 8.68394 179.01 14.4442 178.218 17.667C175.966 26.8118 184.813 32.2911 190.288 22.8567C190.288 22.8567 191.931 29.0171 197.551 27.51C203.613 25.8837 204.678 17.7692 204.678 17.7692Z" fill="white"/>
<path d="M111.786 17.7692C111.786 17.7692 115.762 1.56561 110.611 0.560875C104.706 -0.588616 102.965 5.72506 102.914 10.9403C102.862 16.1556 102.467 19.2848 100.844 19.1996C97.264 19.0081 103.092 10.174 99.0309 10.174C96.4977 10.174 97.3194 18.2034 95.7314 18.7909C93.1812 19.7361 93.8795 16.0407 96.0635 10.1485C98.3795 3.89866 94.0625 0.348005 91.4017 0.467212C88.7408 0.586417 86.9357 1.42086 85.948 3.62192C85.948 3.62192 87.6509 3.1451 87.4806 5.76764C87.2933 8.68394 86.1183 14.4442 85.3264 17.667C83.0742 26.8118 91.9211 32.2911 97.396 22.8567C97.396 22.8567 99.0394 29.0171 104.659 27.51C110.722 25.8837 111.786 17.7692 111.786 17.7692Z" fill="white"/>
<path d="M318.291 18.4898C318.93 18.924 320.207 18.7622 320.85 14.0408C321.31 10.6392 320.722 2.79284 323.485 1.00049C326.597 -1.0175 330.105 0.00852394 330.003 6.21577C329.901 12.5294 329.441 27.5154 318.96 27.3366C307.993 27.1493 308.733 17.2126 310.138 11.6141C310.828 8.86811 311.773 2.28196 309.551 1.87325C309.551 1.87325 313.519 -1.52412 317.376 0.851488C321.765 3.55917 316.575 17.3275 318.291 18.4898Z" fill="white"/>
<path d="M230.823 18.4898C231.462 18.924 232.739 18.7622 233.382 14.0408C233.842 10.6392 233.254 2.79284 236.017 1.00049C239.13 -1.0175 242.638 0.00852394 242.535 6.21577C242.433 12.5294 241.973 27.5154 231.492 27.3366C220.525 27.1493 221.266 17.2126 222.671 11.6141C223.36 8.86811 224.305 2.28196 222.083 1.87325C222.083 1.87325 226.051 -1.52412 229.908 0.851488C234.297 3.55917 229.112 17.3275 230.823 18.4898Z" fill="white"/>
<path d="M298.515 7.76555C297.375 7.71447 297.46 9.77503 296.608 13.3725C295.173 19.4307 287.212 19.2264 287.864 12.7595C288.485 6.58201 291.086 0.860105 298.907 0.0724923C309.138 -0.962049 309.133 10.1965 307.728 15.795C307.039 18.541 306.094 25.1271 308.316 25.5358C308.316 25.5358 303.565 29.1972 299.916 26.515C295.927 23.5859 301.189 7.88476 298.515 7.76555Z" fill="white"/>
<path d="M276.326 7.67603C277.45 7.71008 277.118 9.8856 276.974 11.9036C276.616 16.9401 285.114 18.6175 286.553 11.4608C287.779 5.37279 284.526 0.0595855 276.905 0.00849692C266.624 -0.0596205 266.254 8.62967 266.313 12.7849C266.492 25.4931 277.101 21.6317 279.915 27.46C279.915 27.46 283.943 26.9747 283.905 22.9344C283.853 17.7958 277.621 18.6345 275.696 16.0332C274.108 13.879 275.16 7.64197 276.326 7.67603Z" fill="white"/>
<path d="M413.886 7.74424C415.001 7.87622 414.235 9.8857 414.09 11.9037C413.733 16.9402 422.23 18.6176 423.669 11.4609C424.896 5.37289 421.643 0.0596885 414.022 0.00859992C403.741 -0.0595176 403.541 8.54037 402.962 12.6572C402.153 18.3919 400.68 25.6124 404.528 26.9578C410.012 28.8736 412.251 23.19 412.251 23.19C412.251 23.19 412.332 27.243 416.483 27.3707C419.668 27.4686 420.979 23.2581 422.682 27.3579C422.682 27.3579 425.036 22.4705 423.431 20.3418C419.97 15.7566 414.959 20.2567 413.852 19.1838C413.111 18.4686 414.904 15.4799 412.643 15.7226C411.813 15.812 411.74 18.8432 410.753 19.0476C408.696 19.4733 409.969 15.5267 410.753 12.9638C411.604 10.1709 412.149 7.53989 413.886 7.74424Z" fill="white"/>
<path d="M424.649 12.8147C424.479 17.7362 429.754 20.0735 429.754 20.0735C429.754 20.0735 427.531 23.6157 429.541 25.6762C431.235 27.4132 433.951 27.5921 434.564 27.6048C435.356 27.6219 439.81 27.4941 442.211 24.3054C444.318 21.5083 440.98 18.4387 438.307 20.7164C438.222 20.7888 438.136 20.8654 438.047 20.942C434.841 23.8072 434.271 22.1384 435.199 20.3716C435.199 20.3716 442.049 20.1672 444.603 13.7045C447.158 7.23331 444.352 4.38318e-05 436.629 4.35863e-05C428.902 0.00430054 424.917 4.86621 424.649 12.8147ZM436.144 5.88372C438.124 6.08808 436.038 15.3479 434.028 15.0626C432.002 14.7731 433.951 5.65383 436.144 5.88372Z" fill="white"/>
<path d="M391.117 18.094C391.117 18.094 392.735 14.1346 391.807 10.4222C391.679 9.91129 390.811 7.60805 387.741 8.68517C384.591 9.78782 380.453 8.14448 380.968 4.87482C382.27 -3.43556 401.356 -0.595898 401.395 9.47704C401.446 22.6706 397.124 27.1962 389.325 27.3495C385.387 27.4261 381.168 24.9951 380.963 20.4738C380.78 16.4591 383.48 12.1634 380.998 11.1672C380.998 11.1672 384.842 8.40418 388.516 10.7585C392.582 13.3683 387.997 18.5325 388.916 19.733C389.878 20.9804 391.117 18.094 391.117 18.094Z" fill="white"/>
<path d="M351.954 16.8805C349.975 26.4638 358.753 31.8111 363.483 22.5045C363.483 22.5045 363.654 27.3196 369.874 27.3707C374.323 27.3536 377.494 22.6322 378.227 19.1539C378.631 17.2339 380.36 11.0096 379.512 6.16471C378.635 1.15379 373.556 -1.47726 369.107 0.983495C365.378 3.04832 364.705 7.67182 363.905 11.7887C363.428 14.2495 363.364 17.8299 362.087 18.3706C360.146 18.6431 360.797 15.8077 362.513 9.82179C364.348 3.42297 361.184 -0.119166 358.524 0.00429849C355.867 0.123504 352.81 1.05161 351.827 3.25267C351.827 3.25267 354.343 3.26118 354.049 5.87521C353.721 8.84259 353.078 11.4353 351.954 16.8805ZM369.469 8.52329C371.521 8.56587 369.648 18.8517 367.443 18.6473C365.412 18.46 367.094 8.4722 369.469 8.52329Z" fill="white"/>
<path d="M330.791 19.6393C330.791 29.8101 347.225 30.2955 349.881 24.2074C351.814 19.7798 343.521 18.0939 341.354 22.4747C340.796 23.5986 339.012 23.9477 339.144 21.5551C339.165 21.1975 339.383 19.6095 339.421 18.4685C342.627 21.0229 349.668 20.1587 350.997 12.8105C352.15 6.39035 349.575 0.0724086 342.265 0.00854654C332.452 -0.0808588 330.791 7.36102 330.791 19.6393ZM340.983 7.49726C343.125 7.50578 343.031 16.4633 339.54 15.152C339.587 11.1033 339.706 7.49726 340.983 7.49726Z" fill="white"/>
<path d="M254.95 18.0724C254.942 18.1448 254.929 18.2215 254.92 18.2938C254.788 19.2773 254.069 20.0096 253.145 20.3629C251.493 20.9973 249.914 20.5077 248.798 20.2267C247.18 19.818 245.001 20.9377 244.315 23.0578C244.094 23.7433 243.481 27.5408 243.481 27.5408C243.481 27.5408 246.235 25.8549 249.02 26.6042C253.443 27.792 254.746 28.3923 258.56 27.4855C263.214 26.3786 264.074 17.536 264.321 15.7096C265.487 7.06714 265.151 -0.93671 254.925 0.102089C247.104 0.889701 243.698 6.57754 243.881 12.7933C244.081 19.8946 251.225 20.6439 254.95 18.0724ZM255.048 7.34813C256.368 7.30981 255.921 10.8136 255.329 14.7517C251.523 16.1226 252.834 7.41625 255.048 7.34813Z" fill="white"/>
</svg>
