<svg width="33" height="556" viewBox="0 0 33 556" fill="none" xmlns="http://www.w3.org/2000/svg">
<path d="M5.82462 544.465L11.375 543.172C11.7698 543.079 12.0795 542.77 12.1723 542.375L13.4651 536.824C13.7206 535.725 15.2843 535.725 15.5397 536.824L16.8325 542.375C16.9254 542.77 17.2351 543.079 17.6298 543.172L23.1802 544.465C24.2795 544.72 24.2795 546.284 23.1802 546.54L17.6298 547.832C17.235 547.925 16.9254 548.235 16.8325 548.63L15.5397 554.18C15.2843 555.279 13.7206 555.279 13.4651 554.18L12.1723 548.63C12.0795 548.235 11.7698 547.925 11.375 547.832L5.82462 546.54C4.72537 546.276 4.72537 544.72 5.82462 544.465Z" stroke="white" stroke-width="2" stroke-miterlimit="10"/>
<path d="M10.6758 59.4764C10.1751 60.2127 10.3616 61.6853 15.8053 62.4265C19.7274 62.9567 28.774 62.2793 30.8406 65.465C33.1673 69.0532 31.9843 73.098 24.8274 72.9802C17.5479 72.8624 0.26942 72.3322 0.475583 60.2471C0.691564 47.6024 12.1484 48.4565 18.6033 50.0764C21.7694 50.8716 29.3631 51.9613 29.8343 49.399C29.8343 49.399 33.7514 53.9738 31.0124 58.4211C27.8905 63.4868 12.0158 57.5032 10.6758 59.4764Z" fill="white"/>
<path d="M11.1814 144.431C6.50341 143.469 2.94463 142.909 1.42294 144.863C-1.67442 148.848 2.55193 154.626 2.55193 154.626C3.02317 152.098 10.6169 153.733 13.7829 154.754C20.2477 156.835 33.1084 157.753 31.9106 145.879C31.0025 136.798 24.4397 132.404 17.2779 132.1C9.08537 131.752 8.21653 139.929 11.1814 144.431ZM23.5463 145.432C23.5954 146.959 19.5506 146.154 15.0101 145.147C13.4295 140.641 23.4677 142.87 23.5463 145.432Z" fill="white"/>
<path d="M23.1437 11.8771C23.1045 13.173 20.5961 12.7901 18.2694 12.6232C12.4625 12.2109 10.5285 22.0086 18.7799 23.6677C25.7993 25.0814 31.9253 21.3312 31.9842 12.5447C32.0628 0.690289 22.0442 0.263234 17.2533 0.331956C2.60099 0.53812 7.05315 12.7705 0.333191 16.0151C0.333191 16.0151 0.892781 20.6587 5.5511 20.6145C11.4759 20.5556 10.5088 13.3693 13.508 11.1506C15.9918 9.3197 23.183 10.5273 23.1437 11.8771Z" fill="white"/>
<path d="M17.219 74.0208C11.5446 73.9766 8.84973 80.1271 8.84973 80.1271C8.84973 80.1271 3.94107 77.933 1.56528 80.3088C-0.437456 82.3164 -0.182207 85.6887 0.49028 87.7356C1.53092 90.9066 5.90453 95.4716 0.534457 95.2606C0.534457 95.2606 11.8489 100.577 8.0398 90.9851C6.25796 86.4937 6.46412 85.399 8.50122 86.4151C8.50122 86.4151 8.73684 94.3034 16.1882 97.0571C23.6493 99.806 31.9892 96.3503 31.9892 87.4509C31.9892 78.5367 26.3835 74.0895 17.219 74.0208ZM25.2103 87.0631C24.9747 89.3554 14.2983 87.2251 14.6272 84.8984C14.961 82.5569 25.4704 84.5302 25.2103 87.0631Z" fill="white"/>
<path d="M10.9899 36.607C10.9899 36.607 15.555 38.4723 19.8353 37.4022C20.4244 37.2549 23.08 36.2535 21.8381 32.7144C20.5667 29.082 22.4615 24.3108 26.2313 24.9047C35.813 26.4068 32.539 48.4123 20.9251 48.4565C5.71312 48.5154 0.495206 43.5331 0.318494 34.5404C0.230137 29.9999 3.03298 25.1354 8.24598 24.8998C12.8748 24.6887 17.8277 27.8008 18.9763 24.9391C18.9763 24.9391 22.162 29.3716 19.4475 33.6078C16.4385 38.2955 10.4843 33.0089 9.1001 34.0692C7.66186 35.1785 10.9899 36.607 10.9899 36.607Z" fill="white"/>
<path d="M18.1026 193.738C18.1222 195.009 20.2967 195.373 25.7355 196.109C29.6575 196.639 30.2171 197.346 30.7767 198.053C33.4323 201.405 31.8566 206.083 24.7243 205.46C17.5921 204.837 11.5102 203.472 11.2157 192.82C10.8476 179.449 22.2995 182.856 26.3246 183.769C27.4192 184.019 29.3041 184.549 29.7753 181.987C29.7753 181.987 33.6826 186.385 31.0712 190.906C28.2144 195.859 18.0584 191.186 18.1026 193.738Z" fill="white"/>
<path d="M24.7243 205.465C24.7243 205.465 10.3616 205.313 4.64299 200.738C-0.73199 196.438 0.31846 190.165 1.64871 186.626C2.88569 183.342 0.519713 181.879 0.519713 181.879C0.519713 181.879 8.2214 181.604 8.23122 188.118C8.24103 194.342 17.273 194.366 21.2392 195.525C25.0826 196.654 24.7243 205.465 24.7243 205.465Z" fill="white"/>
<path d="M9.35041 179.582C13.8566 180.666 31.9892 184.785 31.9892 172.464C31.9892 158.842 15.2752 154.336 10.823 159.142C10.823 159.142 8.87919 156.565 5.78182 158.347C3.06242 159.913 0.43629 156.481 0.43629 156.481C0.43629 156.481 -1.56153 165.337 4.40249 166.898C5.49712 167.182 6.62612 167.001 7.64221 166.588C8.53068 166.225 9.87074 166.063 10.8917 167.624C10.8917 167.624 11.8342 166.456 14.4309 167.006C16.1244 167.364 23.1487 168.488 23.3548 170.181C23.4775 171.183 21.087 170.888 15.2457 170.108C9.40441 169.327 1.10387 167.02 0.544282 171.021C-0.319642 177.206 4.43684 178.399 9.35041 179.582Z" fill="white"/>
<path d="M11.9913 236.316C11.9913 236.316 30.6737 240.901 31.8321 234.961C33.1575 228.153 25.8779 226.145 19.8648 226.086C13.8517 226.027 10.2438 225.571 10.342 223.701C10.5629 219.572 20.7483 226.292 20.7483 221.61C20.7483 218.689 11.4906 219.636 10.8132 217.805C9.7235 214.865 13.9842 215.67 20.7778 218.188C27.9837 220.858 32.0775 215.881 31.9401 212.813C31.8027 209.745 30.8406 207.664 28.3028 206.525C28.3028 206.525 28.8525 208.489 25.8288 208.292C22.4664 208.076 15.825 206.722 12.1091 205.809C1.56531 203.212 -4.75215 213.412 6.12545 219.725C6.12545 219.725 -0.977381 221.619 0.760285 228.099C2.63539 235.089 11.9913 236.316 11.9913 236.316Z" fill="white"/>
<path d="M11.9913 129.214C11.9913 129.214 30.6737 133.798 31.8321 127.859C33.1575 121.051 25.8779 119.043 19.8648 118.984C13.8517 118.925 10.2438 118.469 10.342 116.598C10.5629 112.47 20.7483 119.19 20.7483 114.507C20.7483 111.587 11.4906 112.534 10.8132 110.703C9.7235 107.763 13.9842 108.568 20.7778 111.086C27.9837 113.756 32.0775 108.779 31.9401 105.711C31.8027 102.643 30.8406 100.562 28.3028 99.4231C28.3028 99.4231 28.8525 101.387 25.8288 101.19C22.4664 100.974 15.825 99.6194 12.1091 98.7064C1.56531 96.1097 -4.75215 106.31 6.12545 112.622C6.12545 112.622 -0.977381 114.517 0.760285 120.997C2.63539 127.987 11.9913 129.214 11.9913 129.214Z" fill="white"/>
<path d="M11.1603 367.31C10.6596 368.046 10.8461 369.519 16.2898 370.26C20.2118 370.79 29.2585 370.113 31.3251 373.298C33.6518 376.887 32.4688 380.931 25.312 380.813C18.0324 380.696 0.753917 380.166 0.96008 368.08C1.17606 355.436 12.6329 356.29 19.0878 357.91C22.2538 358.705 29.8476 359.795 30.3188 357.232C30.3188 357.232 34.2359 361.807 31.4969 366.254C28.3749 371.315 12.5003 365.332 11.1603 367.31Z" fill="white"/>
<path d="M11.1602 266.461C10.6595 267.198 10.8461 268.67 16.2898 269.411C20.2118 269.942 29.2585 269.264 31.325 272.45C33.6517 276.038 32.4687 280.083 25.3119 279.965C18.0323 279.847 0.753856 279.317 0.960019 267.232C1.176 254.587 12.6328 255.441 19.0877 257.061C22.2538 257.856 29.8475 258.946 30.3187 256.384C30.3187 256.384 34.2358 260.959 31.4968 265.406C28.3749 270.467 12.5003 264.488 11.1602 266.461Z" fill="white"/>
<path d="M23.5251 344.509C23.5841 343.193 21.2083 343.292 17.0604 342.31C10.0754 340.656 10.311 331.476 17.7673 332.228C24.8897 332.944 31.487 335.943 32.3951 344.961C33.5879 356.756 20.7223 356.751 14.2674 355.131C11.1013 354.336 3.50762 353.246 3.03639 355.809C3.03639 355.809 -1.18506 350.331 1.9074 346.124C5.28456 341.525 23.3877 347.592 23.5251 344.509Z" fill="white"/>
<path d="M23.6282 318.925C23.589 320.221 21.0806 319.838 18.7539 319.671C12.947 319.259 11.013 329.057 19.2644 330.716C26.2838 332.129 32.4098 328.379 32.4687 319.593C32.5473 307.738 22.5287 307.311 17.7378 307.38C3.08549 307.586 7.53764 319.818 0.817688 323.063C0.817688 323.063 1.37728 327.707 6.0356 327.662C11.9604 327.604 10.9933 320.417 13.9925 318.199C16.4763 316.368 23.6675 317.58 23.6282 318.925Z" fill="white"/>
<path d="M23.5497 477.529C23.3975 478.815 21.0806 477.931 18.7539 477.764C12.947 477.352 11.013 487.15 19.2644 488.809C26.2838 490.223 32.4098 486.472 32.4687 477.686C32.5473 465.831 22.6318 465.601 17.8851 464.933C11.2731 464.001 2.94805 462.302 1.39691 466.74C-0.811988 473.062 5.74107 475.644 5.74107 475.644C5.74107 475.644 1.06803 475.737 0.920769 480.523C0.80787 484.195 5.66254 485.707 0.935495 487.67C0.935495 487.67 6.57064 490.385 9.02497 488.534C14.3116 484.543 9.12314 478.766 10.3601 477.49C11.1848 476.635 14.6307 478.702 14.3509 476.095C14.2478 475.138 10.7528 475.055 10.5172 473.916C10.0263 471.545 14.5767 473.013 17.5317 473.916C20.7518 474.898 23.7853 475.526 23.5497 477.529Z" fill="white"/>
<path d="M17.7035 489.938C12.0291 489.742 9.33424 495.823 9.33424 495.823C9.33424 495.823 5.25023 493.261 2.87444 495.578C0.871705 497.532 0.665542 500.663 0.650816 501.37C0.631182 502.283 0.778442 507.418 4.45503 510.186C7.68002 512.616 11.2192 508.768 8.59303 505.685C8.50959 505.587 8.42123 505.489 8.33288 505.385C5.02935 501.689 6.95354 501.031 8.99063 502.102C8.99063 502.102 9.22625 510 16.6776 512.945C24.1388 515.89 32.4786 512.655 32.4786 503.751C32.4737 494.842 26.868 490.247 17.7035 489.938ZM25.6948 503.191C25.4592 505.474 14.7829 503.069 15.1117 500.752C15.4455 498.415 25.9599 500.663 25.6948 503.191Z" fill="white"/>
<path d="M11.6167 451.277C11.6167 451.277 16.1818 453.143 20.4622 452.073C21.0512 451.925 23.7068 450.924 22.4649 447.385C21.1935 443.752 23.0883 438.981 26.8581 439.575C36.4398 441.077 33.1658 463.083 21.5519 463.127C6.33994 463.186 1.12204 458.203 0.945325 449.211C0.856968 444.67 3.65981 439.806 8.87281 439.57C13.5017 439.359 18.4545 442.471 19.6031 439.609C19.6031 439.609 22.7889 444.042 20.0744 448.278C17.0654 452.966 11.1112 447.679 9.72692 448.74C8.28868 449.849 11.6167 451.277 11.6167 451.277Z" fill="white"/>
<path d="M13.0157 406.123C1.96632 403.84 -4.19896 413.962 6.53137 419.415C6.53137 419.415 0.979679 419.612 0.920776 426.783C0.940411 431.913 6.38412 435.57 10.3945 436.414C12.6083 436.88 19.7848 438.873 25.3708 437.896C31.1483 436.885 34.1819 431.029 31.3447 425.9C28.964 421.6 23.6332 420.824 18.8865 419.901C16.0493 419.351 11.9211 419.278 11.2977 417.805C10.9835 415.567 14.2527 416.318 21.1543 418.296C28.532 420.412 32.616 416.765 32.4736 413.697C32.3362 410.634 31.2661 407.109 28.7283 405.975C28.7283 405.975 28.7185 408.876 25.7046 408.538C22.2833 408.16 19.2939 407.418 13.0157 406.123ZM22.6514 426.317C22.6023 428.683 10.743 426.523 10.9786 423.98C11.1946 421.639 22.7103 423.578 22.6514 426.317Z" fill="white"/>
<path d="M9.83494 381.722C-1.89185 381.722 -2.45144 400.669 4.56794 403.732C9.67295 405.961 11.6168 396.398 6.56577 393.9C5.26988 393.257 4.86738 391.2 7.62604 391.352C8.03837 391.377 9.8693 391.627 11.1848 391.671C8.23962 395.368 9.23608 403.487 17.7084 405.018C25.1107 406.348 32.3951 403.379 32.4688 394.95C32.5719 383.636 23.9915 381.722 9.83494 381.722ZM23.8344 393.473C23.8246 395.942 13.4968 395.834 15.0087 391.809C19.6768 391.863 23.8344 392 23.8344 393.473Z" fill="white"/>
<path d="M11.6413 294.279C11.5579 294.269 11.4695 294.254 11.3861 294.244C10.2522 294.092 9.40786 293.263 9.00045 292.197C8.26906 290.293 8.83355 288.472 9.15753 287.186C9.62876 285.32 8.33778 282.807 5.89327 282.017C5.10297 281.762 0.724449 281.055 0.724449 281.055C0.724449 281.055 2.66828 284.231 1.80435 287.441C0.434837 292.541 -0.257287 294.043 0.788258 298.441C2.06451 303.806 12.2598 304.798 14.3656 305.083C24.3302 306.428 33.5585 306.04 32.3608 294.249C31.4527 285.232 24.8947 281.305 17.7281 281.516C9.54041 281.747 8.67648 289.984 11.6413 294.279ZM24.0062 294.392C24.0504 295.913 20.0106 295.398 15.4701 294.716C13.8895 290.327 23.9277 291.839 24.0062 294.392Z" fill="white"/>
</svg>
