<svg width="483" height="30" viewBox="0 0 483 30" fill="none" xmlns="http://www.w3.org/2000/svg">
<path d="M10.1414 5.93648L11.2626 10.7504C11.3432 11.0929 11.6118 11.3614 11.9542 11.442L16.7681 12.5632C17.7215 12.7848 17.7215 14.141 16.7681 14.3626L11.9542 15.4838C11.6118 15.5644 11.3432 15.833 11.2626 16.1754L10.1414 20.9893C9.91983 21.9427 8.56359 21.9427 8.34203 20.9893L7.22079 16.1754C7.14022 15.833 6.87166 15.5644 6.52924 15.4838L1.71529 14.3626C0.761895 14.141 0.761895 12.7848 1.71529 12.5632L6.52924 11.442C6.87166 11.3614 7.14022 11.0928 7.22079 10.7504L8.34203 5.93648C8.57031 4.98309 9.91983 4.98309 10.1414 5.93648Z" stroke="white" stroke-width="2" stroke-miterlimit="10"/>
<path d="M430.782 10.1441C430.143 9.7098 428.866 9.87159 428.223 14.593C427.763 17.9946 428.351 25.841 425.588 27.6333C422.475 29.6513 418.967 28.6253 419.07 22.418C419.172 16.1044 419.632 1.11843 430.113 1.29724C441.08 1.48456 440.339 11.4213 438.934 17.0197C438.245 19.7657 437.3 26.3519 439.522 26.7606C439.522 26.7606 435.554 30.1579 431.697 27.7823C427.303 25.0746 432.493 11.3063 430.782 10.1441Z" fill="white"/>
<path d="M357.099 10.5824C357.934 6.52516 358.419 3.43856 356.725 2.11878C353.268 -0.567619 348.257 3.09798 348.257 3.09798C350.449 3.50668 349.032 10.0928 348.146 12.8388C346.341 18.4458 345.545 29.6001 355.843 28.5613C363.72 27.7737 367.53 22.0816 367.794 15.8701C368.096 8.76454 361.003 8.01098 357.099 10.5824ZM356.231 21.3067C354.907 21.3493 355.605 17.8412 356.478 13.9032C360.386 12.5323 358.453 21.2386 356.231 21.3067Z" fill="white"/>
<path d="M472.065 20.9576C470.941 20.9235 471.273 18.748 471.418 16.73C471.776 11.6935 463.278 10.0161 461.839 17.1728C460.613 23.2608 463.865 28.574 471.486 28.6251C481.768 28.6932 482.138 20.0039 482.078 15.8487C481.9 3.14049 471.29 7.00192 468.476 1.17358C468.476 1.17358 464.449 1.65893 464.487 5.69917C464.538 10.8378 470.771 9.99911 472.695 12.6004C474.283 14.7546 473.236 20.9916 472.065 20.9576Z" fill="white"/>
<path d="M418.167 15.819C418.205 10.8975 412.871 8.56019 412.871 8.56019C412.871 8.56019 414.774 4.30282 412.713 2.24225C410.972 0.505246 408.047 0.726629 406.272 1.30989C403.522 2.21245 399.562 6.00576 399.745 1.3482C399.745 1.3482 395.135 11.1614 403.454 7.85772C407.349 6.3123 408.298 6.49111 407.417 8.25792C407.417 8.25792 400.576 8.46227 398.187 14.925C395.803 21.3962 398.8 28.6294 406.519 28.6294C414.25 28.6294 418.107 23.7675 418.167 15.819ZM406.855 22.75C404.867 22.5456 406.715 13.2859 408.733 13.5711C410.763 13.8606 409.052 22.9756 406.855 22.75Z" fill="white"/>
<path d="M450.617 10.4162C450.617 10.4162 448.999 14.3756 449.927 18.088C450.055 18.5989 450.923 20.9021 453.993 19.825C457.143 18.7223 461.281 20.3657 460.766 23.6353C459.463 31.9457 440.378 29.1061 440.339 19.0331C440.288 5.83955 444.609 1.31396 452.409 1.16069C456.347 1.08406 460.566 3.51501 460.77 8.03634C460.953 12.051 458.254 16.3467 460.736 17.343C460.736 17.343 456.892 20.106 453.218 17.7517C449.152 15.1419 453.737 9.97771 452.818 8.77713C451.855 7.52972 450.617 10.4162 450.617 10.4162Z" fill="white"/>
<path d="M314.334 16.5853C313.232 16.6024 312.916 18.4884 312.278 23.2056C311.818 26.6072 311.205 27.0925 310.592 27.5779C307.684 29.8811 303.627 28.5145 304.168 22.3285C304.708 16.1426 305.892 10.8677 315.13 10.6123C326.727 10.293 323.773 20.2254 322.981 23.7164C322.764 24.6658 322.304 26.3007 324.526 26.7094C324.526 26.7094 320.712 30.0982 316.791 27.8333C312.495 25.3555 316.548 16.547 314.334 16.5853Z" fill="white"/>
<path d="M304.163 22.3285C304.163 22.3285 304.295 9.87148 308.263 4.91164C311.992 0.249824 317.433 1.1609 320.503 2.31464C323.351 3.3875 324.62 1.33545 324.62 1.33545C324.62 1.33545 324.858 8.01526 319.209 8.02377C313.81 8.03229 313.789 15.8658 312.784 19.3058C311.805 22.6393 304.163 22.3285 304.163 22.3285Z" fill="white"/>
<path d="M326.613 8.99439C325.672 12.9027 322.1 28.6294 332.786 28.6294C344.6 28.6294 348.508 14.133 344.34 10.2716C344.34 10.2716 346.575 8.58569 345.03 5.89929C343.672 3.5407 346.648 1.26301 346.648 1.26301C346.648 1.26301 338.968 -0.469737 337.614 4.70297C337.367 5.65236 337.524 6.63156 337.882 7.51283C338.197 8.28342 338.337 9.44568 336.984 10.3312C336.984 10.3312 337.997 11.1486 337.52 13.4008C337.209 14.8696 336.234 20.9619 334.766 21.1407C333.897 21.2471 334.152 19.1738 334.829 14.1075C335.506 9.04122 337.507 1.84201 334.038 1.35667C328.673 0.607378 327.639 4.73276 326.613 8.99439Z" fill="white"/>
<path d="M277.405 11.2847C277.405 11.2847 273.429 27.4882 278.581 28.493C284.485 29.6425 286.227 23.3288 286.278 18.1135C286.329 12.8982 286.725 9.76908 288.347 9.85423C291.927 10.0458 286.099 18.8798 290.161 18.8798C292.694 18.8798 291.872 10.8504 293.46 10.2629C296.01 9.31779 295.312 13.0132 293.128 18.9054C290.812 25.1552 295.129 28.7059 297.79 28.5866C300.451 28.4674 302.256 27.633 303.243 25.4319C303.243 25.4319 301.54 25.9088 301.711 23.2862C301.898 20.3699 303.073 14.6097 303.865 11.3869C306.117 2.24205 297.27 -3.23719 291.795 6.19714C291.795 6.19714 290.152 0.0367318 284.532 1.54384C278.47 3.17016 277.405 11.2847 277.405 11.2847Z" fill="white"/>
<path d="M370.297 11.2847C370.297 11.2847 366.321 27.4882 371.472 28.493C377.377 29.6425 379.118 23.3288 379.169 18.1135C379.221 12.8982 379.616 9.76908 381.239 9.85423C384.819 10.0458 378.991 18.8798 383.052 18.8798C385.585 18.8798 384.764 10.8504 386.352 10.2629C388.902 9.31779 388.204 13.0132 386.02 18.9054C383.704 25.1552 388.02 28.7059 390.681 28.5866C393.342 28.4674 395.147 27.633 396.135 25.4319C396.135 25.4319 394.432 25.9088 394.602 23.2862C394.79 20.3699 395.965 14.6097 396.757 11.3869C399.009 2.24205 390.162 -3.23719 384.687 6.19714C384.687 6.19714 383.044 0.0367318 377.424 1.54384C371.361 3.17016 370.297 11.2847 370.297 11.2847Z" fill="white"/>
<path d="M163.791 10.5642C163.152 10.13 161.875 10.2917 161.232 15.0132C160.773 18.4148 161.36 26.2611 158.597 28.0535C155.485 30.0715 151.977 29.0455 152.079 22.8382C152.181 16.5245 152.641 1.5386 163.123 1.71741C174.09 1.90473 173.349 11.8414 171.944 17.4399C171.254 20.1859 170.309 26.772 172.531 27.1807C172.531 27.1807 168.564 30.5781 164.706 28.2025C160.317 25.4948 165.507 11.7265 163.791 10.5642Z" fill="white"/>
<path d="M251.259 10.5642C250.62 10.13 249.343 10.2917 248.7 15.0132C248.24 18.4148 248.828 26.2611 246.065 28.0535C242.953 30.0715 239.444 29.0455 239.547 22.8382C239.649 16.5245 240.109 1.5386 250.59 1.71741C261.557 1.90473 260.816 11.8414 259.412 17.4399C258.722 20.1859 257.777 26.772 259.999 27.1807C259.999 27.1807 256.031 30.5781 252.174 28.2025C247.785 25.4948 252.97 11.7265 251.259 10.5642Z" fill="white"/>
<path d="M183.567 21.2885C184.708 21.3396 184.622 19.279 185.474 15.6816C186.909 9.62333 194.87 9.82768 194.218 16.2946C193.597 22.4721 190.996 28.194 183.175 28.9816C172.944 30.0161 172.949 18.8576 174.354 13.2591C175.043 10.5131 175.988 3.92697 173.766 3.51826C173.766 3.51826 178.517 -0.143077 182.166 2.53907C186.155 5.46814 180.893 21.1693 183.567 21.2885Z" fill="white"/>
<path d="M205.756 21.378C204.632 21.3439 204.964 19.1684 205.109 17.1504C205.467 12.114 196.969 10.4366 195.53 17.5932C194.304 23.6812 197.556 28.9944 205.177 29.0455C215.459 29.1136 215.829 20.4243 215.769 16.2691C215.591 3.5609 204.981 7.42233 202.167 1.59399C202.167 1.59399 198.14 2.07934 198.178 6.11958C198.229 11.2582 204.462 10.4195 206.386 13.0208C207.974 15.175 206.923 21.412 205.756 21.378Z" fill="white"/>
<path d="M68.1963 21.3098C67.0808 21.1778 67.8471 19.1683 67.9919 17.1504C68.3495 12.1139 59.8518 10.4365 58.4128 17.5931C57.1867 23.6812 60.4393 28.9944 68.06 29.0454C78.3416 29.1136 78.5417 20.5137 79.1207 16.3968C79.9296 10.6621 81.4026 3.44162 77.554 2.09629C72.0705 0.180477 69.8311 5.86406 69.8311 5.86406C69.8311 5.86406 69.7502 1.81105 65.5993 1.68333C62.4147 1.58541 61.1035 5.79595 59.4005 1.6961C59.4005 1.6961 57.0462 6.58356 58.6512 8.71224C62.1125 13.2974 67.1234 8.79739 68.2303 9.87025C68.9711 10.5855 67.1787 13.5742 69.4394 13.3315C70.2696 13.2421 70.342 10.2108 71.3297 10.0065C73.386 9.58075 72.113 13.5273 71.3297 16.0903C70.4782 18.8831 69.9333 21.5142 68.1963 21.3098Z" fill="white"/>
<path d="M57.4334 16.2393C57.6037 11.3177 52.3289 8.98045 52.3289 8.98045C52.3289 8.98045 54.5512 5.43832 52.5417 3.37775C50.8473 1.64074 48.1311 1.46193 47.518 1.44916C46.7262 1.43213 42.273 1.55985 39.8718 4.74862C37.7644 7.54571 41.1022 10.6153 43.7758 8.33759C43.861 8.26521 43.9461 8.18858 44.0355 8.11195C47.2413 5.24674 47.8118 6.91563 46.8837 8.68243C46.8837 8.68243 40.0336 8.88679 37.4792 15.3495C34.9247 21.8207 37.7303 29.0539 45.4532 29.0539C53.1803 29.0497 57.1652 24.1878 57.4334 16.2393ZM45.9385 23.1703C43.9589 22.9659 46.045 13.7061 48.0545 13.9914C50.081 14.2809 48.1311 23.4002 45.9385 23.1703Z" fill="white"/>
<path d="M90.9647 10.9602C90.9647 10.9602 89.3469 14.9195 90.2751 18.6319C90.4028 19.1428 91.2713 21.4461 94.3408 20.3689C97.4913 19.2663 101.629 20.9096 101.114 24.1793C99.8116 32.4897 80.7258 29.65 80.6875 19.5771C80.6364 6.38348 84.9576 1.8579 92.7571 1.70464C96.6952 1.62801 100.914 4.05896 101.119 8.58029C101.302 12.595 98.6025 16.8907 101.085 17.8869C101.085 17.8869 97.2401 20.6499 93.566 18.2956C89.5002 15.6858 94.0854 10.5216 93.1658 9.32107C92.2037 8.07366 90.9647 10.9602 90.9647 10.9602Z" fill="white"/>
<path d="M130.128 12.1735C132.108 2.59017 123.329 -2.75709 118.599 6.54952C118.599 6.54952 118.429 1.73444 112.209 1.68335C107.76 1.70038 104.588 6.4218 103.856 9.90007C103.452 11.8201 101.723 18.0444 102.57 22.8893C103.447 27.9002 108.526 30.5313 112.975 28.0705C116.705 26.0057 117.377 21.3822 118.178 17.2653C118.655 14.8046 118.719 11.2241 119.996 10.6834C121.937 10.411 121.286 13.2464 119.57 19.2322C117.735 25.631 120.898 29.1732 123.559 29.0497C126.216 28.9305 129.273 28.0024 130.256 25.8013C130.256 25.8013 127.74 25.7928 128.034 23.1788C128.361 20.2114 129.004 17.6187 130.128 12.1735ZM112.613 20.5307C110.561 20.4881 112.435 10.2023 114.64 10.4067C116.671 10.594 114.989 20.5818 112.613 20.5307Z" fill="white"/>
<path d="M151.292 9.41468C151.292 -0.756177 134.858 -1.24152 132.202 4.84652C130.269 9.27418 138.562 10.9601 140.729 6.57927C141.287 5.45532 143.071 5.10622 142.939 7.49886C142.918 7.85648 142.7 9.44448 142.662 10.5855C139.456 8.03103 132.415 8.89528 131.086 16.2435C129.933 22.6636 132.508 28.9815 139.818 29.0454C149.631 29.1348 151.292 21.6929 151.292 9.41468ZM141.1 21.5567C138.958 21.5482 139.052 12.5907 142.543 13.9019C142.496 17.9507 142.377 21.5567 141.1 21.5567Z" fill="white"/>
<path d="M227.132 10.9814C227.141 10.9091 227.154 10.8324 227.162 10.7601C227.294 9.77661 228.014 9.04434 228.938 8.69098C230.589 8.05663 232.169 8.54623 233.284 8.82722C234.902 9.23593 237.082 8.11624 237.767 5.99607C237.989 5.31063 238.602 1.51306 238.602 1.51306C238.602 1.51306 235.847 3.19898 233.063 2.44968C228.64 1.26187 227.337 0.661582 223.522 1.5684C218.869 2.67532 218.009 11.5179 217.762 13.3443C216.595 21.9867 216.932 29.9906 227.158 28.9518C234.979 28.1642 238.385 22.4763 238.202 16.2606C238.001 9.1593 230.858 8.41 227.132 10.9814ZM227.034 21.7058C225.715 21.7441 226.162 18.2403 226.753 14.3022C230.56 12.9313 229.248 21.6376 227.034 21.7058Z" fill="white"/>
</svg>
