<svg width="33" height="556" viewBox="0 0 33 556" fill="none" xmlns="http://www.w3.org/2000/svg">
<path d="M27.1754 11.535L21.6251 12.8278C21.2303 12.9207 20.9206 13.2303 20.8277 13.6251L19.5349 19.1755C19.2795 20.2748 17.7158 20.2748 17.4603 19.1755L16.1675 13.6251C16.0747 13.2303 15.765 12.9207 15.3702 12.8278L9.81982 11.535C8.72058 11.2796 8.72058 9.71587 9.81982 9.46041L15.3702 8.16765C15.765 8.07475 16.0747 7.7651 16.1675 7.3703L17.4603 1.81991C17.7158 0.720671 19.2795 0.720671 19.5349 1.81991L20.8277 7.37031C20.9206 7.7651 21.2303 8.07475 21.6251 8.16765L27.1754 9.46042C28.2747 9.72362 28.2747 11.2796 27.1754 11.535Z" stroke="white" stroke-width="2" stroke-miterlimit="10"/>
<path d="M22.3242 496.524C22.8249 495.787 22.6384 494.315 17.1947 493.573C13.2726 493.043 4.22599 493.721 2.15944 490.535C-0.167259 486.947 1.01573 482.902 8.17255 483.02C15.4521 483.138 32.7306 483.668 32.5244 495.753C32.3084 508.398 20.8516 507.544 14.3967 505.924C11.2306 505.128 3.63694 504.039 3.16571 506.601C3.16571 506.601 -0.751397 502.026 1.98764 497.579C5.10955 492.513 20.9842 498.497 22.3242 496.524Z" fill="white"/>
<path d="M21.8186 411.569C26.4966 412.531 30.0554 413.091 31.5771 411.137C34.6744 407.152 30.4481 401.374 30.4481 401.374C29.9768 403.902 22.3831 402.267 19.2171 401.246C12.7523 399.165 -0.10836 398.247 1.08936 410.121C1.99746 419.202 8.56034 423.596 15.7221 423.9C23.9146 424.248 24.7835 416.071 21.8186 411.569ZM9.45372 410.568C9.40463 409.041 13.4494 409.846 17.9899 410.853C19.5705 415.359 9.53226 413.13 9.45372 410.568Z" fill="white"/>
<path d="M9.8562 544.123C9.89547 542.827 12.4038 543.21 14.7305 543.377C20.5374 543.789 22.4714 533.991 14.22 532.332C7.20061 530.919 1.0746 534.669 1.0157 543.455C0.937156 555.31 10.9557 555.737 15.7466 555.668C30.3989 555.462 25.9468 543.23 32.6667 539.985C32.6667 539.985 32.1072 535.341 27.4488 535.385C21.5241 535.444 22.4911 542.631 19.4919 544.849C17.0081 546.68 9.81693 545.473 9.8562 544.123Z" fill="white"/>
<path d="M15.781 481.979C21.4554 482.023 24.1503 475.873 24.1503 475.873C24.1503 475.873 29.0589 478.067 31.4347 475.691C33.4375 473.684 33.1822 470.311 32.5097 468.264C31.4691 465.093 27.0955 460.528 32.4655 460.739C32.4655 460.739 21.1511 455.423 24.9602 465.015C26.742 469.506 26.5359 470.601 24.4988 469.585C24.4988 469.585 24.2632 461.697 16.8118 458.943C9.35065 456.194 1.01084 459.65 1.01084 468.549C1.01083 477.463 6.61654 481.911 15.781 481.979ZM7.78971 468.937C8.02533 466.645 18.7017 468.775 18.3728 471.102C18.039 473.443 7.52955 471.47 7.78971 468.937Z" fill="white"/>
<path d="M22.0101 519.393C22.0101 519.393 17.445 517.528 13.1647 518.598C12.5756 518.745 9.92005 519.746 11.1619 523.286C12.4333 526.918 10.5385 531.689 6.76868 531.095C-2.81303 529.593 0.461048 507.588 12.0749 507.544C27.2869 507.485 32.5048 512.467 32.6815 521.46C32.7699 526 29.967 530.865 24.754 531.1C20.1252 531.311 15.1723 528.199 14.0237 531.061C14.0237 531.061 10.838 526.628 13.5525 522.392C16.5615 517.704 22.5157 522.991 23.8999 521.931C25.3381 520.821 22.0101 519.393 22.0101 519.393Z" fill="white"/>
<path d="M14.8974 362.262C14.8777 360.991 12.7032 360.627 7.26442 359.891C3.3424 359.361 2.7828 358.654 2.22322 357.947C-0.432368 354.595 1.14332 349.917 8.2756 350.54C15.4079 351.163 21.4897 352.528 21.7842 363.18C22.1524 376.551 10.7005 373.144 6.67537 372.231C5.58074 371.981 3.69582 371.451 3.22459 374.013C3.22459 374.013 -0.682698 369.615 1.92871 365.094C4.78555 360.141 14.9416 364.814 14.8974 362.262Z" fill="white"/>
<path d="M8.27562 350.535C8.27562 350.535 22.6384 350.687 28.3569 355.262C33.7319 359.562 32.6815 365.835 31.3512 369.375C30.1142 372.658 32.4802 374.121 32.4802 374.121C32.4802 374.121 24.7785 374.396 24.7687 367.882C24.7589 361.658 15.727 361.634 11.7608 360.475C7.91729 359.346 8.27562 350.535 8.27562 350.535Z" fill="white"/>
<path d="M23.6496 376.418C19.1434 375.334 1.01083 371.215 1.01083 383.536C1.01083 397.158 17.7248 401.664 22.177 396.858C22.177 396.858 24.1208 399.435 27.2182 397.653C29.9376 396.087 32.5637 399.519 32.5637 399.519C32.5637 399.519 34.5615 390.663 28.5975 389.102C27.5029 388.818 26.3739 388.999 25.3578 389.412C24.4693 389.775 23.1293 389.937 22.1083 388.376C22.1083 388.376 21.1658 389.544 18.5691 388.994C16.8756 388.636 9.85134 387.512 9.64518 385.819C9.52246 384.817 11.913 385.112 17.7543 385.892C23.5956 386.673 31.8961 388.98 32.4557 384.979C33.3196 378.794 28.5632 377.601 23.6496 376.418Z" fill="white"/>
<path d="M21.0087 319.684C21.0087 319.684 2.32633 315.099 1.16789 321.039C-0.157452 327.847 7.12209 329.855 13.1352 329.914C19.1483 329.973 22.7562 330.429 22.658 332.299C22.4371 336.428 12.2517 329.708 12.2517 334.39C12.2517 337.311 21.5094 336.364 22.1868 338.195C23.2765 341.135 19.0158 340.33 12.2222 337.812C5.01629 335.142 0.922452 340.119 1.0599 343.187C1.19734 346.255 2.15944 348.336 4.69721 349.475C4.69721 349.475 4.14745 347.511 7.17118 347.708C10.5336 347.924 17.175 349.278 20.8909 350.191C31.4347 352.788 37.7521 342.588 26.8746 336.275C26.8746 336.275 33.9774 334.381 32.2397 327.901C30.3646 320.911 21.0087 319.684 21.0087 319.684Z" fill="white"/>
<path d="M21.0087 426.786C21.0087 426.786 2.32633 422.202 1.16789 428.141C-0.157452 434.949 7.12209 436.957 13.1352 437.016C19.1483 437.075 22.7562 437.531 22.658 439.402C22.4371 443.53 12.2517 436.81 12.2517 441.493C12.2517 444.413 21.5094 443.466 22.1868 445.297C23.2765 448.237 19.0158 447.432 12.2222 444.914C5.01629 442.244 0.922452 447.221 1.0599 450.289C1.19734 453.357 2.15944 455.438 4.69721 456.577C4.69721 456.577 4.14745 454.613 7.17118 454.81C10.5336 455.026 17.175 456.381 20.8909 457.294C31.4347 459.89 37.7521 449.69 26.8746 443.378C26.8746 443.378 33.9774 441.483 32.2397 435.003C30.3646 428.013 21.0087 426.786 21.0087 426.786Z" fill="white"/>
<path d="M21.8398 188.69C22.3405 187.954 22.1539 186.481 16.7102 185.74C12.7882 185.21 3.74155 185.887 1.675 182.702C-0.651703 179.113 0.531282 175.069 7.68811 175.187C14.9677 175.304 32.2461 175.834 32.04 187.92C31.824 200.564 20.3672 199.71 13.9123 198.09C10.7462 197.295 3.15251 196.205 2.68128 198.768C2.68128 198.768 -1.23583 194.193 1.5032 189.746C4.62511 184.685 20.4997 190.668 21.8398 188.69Z" fill="white"/>
<path d="M21.8398 289.539C22.3405 288.802 22.1539 287.33 16.7102 286.589C12.7882 286.058 3.74155 286.736 1.675 283.55C-0.651703 279.962 0.531282 275.917 7.68811 276.035C14.9677 276.153 32.2461 276.683 32.04 288.768C31.824 301.413 20.3672 300.559 13.9123 298.939C10.7462 298.144 3.15251 297.054 2.68128 299.616C2.68128 299.616 -1.23583 295.041 1.5032 290.594C4.62511 285.533 20.4997 291.512 21.8398 289.539Z" fill="white"/>
<path d="M9.47485 211.491C9.41595 212.807 11.7917 212.708 15.9396 213.69C22.9246 215.344 22.689 224.523 15.2327 223.772C8.11025 223.056 1.51301 220.057 0.604906 211.039C-0.587898 199.244 12.2777 199.249 18.7326 200.869C21.8987 201.664 29.4924 202.754 29.9636 200.191C29.9636 200.191 34.1851 205.669 31.0926 209.876C27.7154 214.475 9.61229 208.408 9.47485 211.491Z" fill="white"/>
<path d="M9.37182 237.075C9.41109 235.779 11.9194 236.162 14.2461 236.329C20.0531 236.741 21.9871 226.943 13.7356 225.284C6.71624 223.871 0.590223 227.621 0.53132 236.407C0.452781 248.262 10.4714 248.689 15.2622 248.62C29.9146 248.414 25.4624 236.182 32.1824 232.937C32.1824 232.937 31.6228 228.293 26.9645 228.338C21.0397 228.396 22.0067 235.583 19.0075 237.801C16.5237 239.632 9.33255 238.42 9.37182 237.075Z" fill="white"/>
<path d="M9.45036 78.4712C9.60253 77.1851 11.9194 78.0687 14.2461 78.2356C20.0531 78.6479 21.9871 68.8502 13.7356 67.1911C6.71624 65.7774 0.590225 69.5276 0.53132 78.3141C0.452781 90.1685 10.3683 90.3992 15.115 91.0668C21.7269 91.9994 30.052 93.6978 31.6031 89.2604C33.812 82.9381 27.259 80.3561 27.259 80.3561C27.259 80.3561 31.932 80.2628 32.0793 75.4769C32.1922 71.8052 27.3375 70.2933 32.0646 68.3299C32.0646 68.3299 26.4294 65.6154 23.9751 67.466C18.6885 71.4567 23.8769 77.2342 22.6399 78.5105C21.8153 79.3646 18.3694 77.298 18.6492 79.9045C18.7523 80.8617 22.2472 80.9451 22.4829 82.084C22.9737 84.4548 18.4234 82.9871 15.4684 82.084C12.2483 81.1022 9.21474 80.4739 9.45036 78.4712Z" fill="white"/>
<path d="M15.2965 66.0621C20.971 66.2584 23.6658 60.1766 23.6658 60.1766C23.6658 60.1766 27.7498 62.7389 30.1256 60.422C32.1284 58.4684 32.3345 55.3366 32.3492 54.6298C32.3689 53.7168 32.2216 48.5823 28.545 45.8138C25.32 43.3841 21.7809 47.2325 24.407 50.3151C24.4905 50.4133 24.5788 50.5114 24.6672 50.6145C27.9707 54.3107 26.0465 54.9685 24.0094 53.8984C24.0094 53.8984 23.7738 46.0004 16.3225 43.0552C8.8613 40.11 0.521488 43.3448 0.521488 52.2491C0.526395 61.1583 6.13208 65.7528 15.2965 66.0621ZM7.30525 52.8087C7.54087 50.5262 18.2172 52.9314 17.8883 55.2483C17.5545 57.5848 7.04018 55.3367 7.30525 52.8087Z" fill="white"/>
<path d="M21.3833 104.723C21.3833 104.723 16.8183 102.857 12.5379 103.927C11.9489 104.075 9.29328 105.076 10.5352 108.615C11.8065 112.248 9.91177 117.019 6.14192 116.425C-3.43979 114.923 -0.16571 92.9174 11.4482 92.8732C26.6601 92.8143 31.878 97.7966 32.0547 106.789C32.1431 111.33 29.3402 116.194 24.1273 116.43C19.4984 116.641 14.5455 113.529 13.3969 116.391C13.3969 116.391 10.2112 111.958 12.9257 107.722C15.9347 103.034 21.8889 108.321 23.2731 107.26C24.7114 106.151 21.3833 104.723 21.3833 104.723Z" fill="white"/>
<path d="M19.9843 149.877C31.0337 152.16 37.199 142.038 26.4687 136.585C26.4687 136.585 32.0204 136.388 32.0793 129.217C32.0596 124.087 26.6159 120.43 22.6056 119.586C20.3918 119.12 13.2153 117.127 7.62924 118.104C1.85175 119.115 -1.1818 124.971 1.6554 130.1C4.0361 134.4 9.3669 135.176 14.1136 136.099C16.9508 136.649 21.079 136.722 21.7024 138.195C22.0165 140.433 18.7474 139.682 11.8458 137.704C4.46806 135.588 0.384059 139.235 0.52641 142.303C0.663851 145.366 1.73394 148.891 4.27172 150.025C4.27172 150.025 4.28153 147.124 7.29545 147.462C10.7168 147.84 13.7062 148.582 19.9843 149.877ZM10.3486 129.683C10.3977 127.317 22.2571 129.477 22.0214 132.02C21.8055 134.361 10.2897 132.422 10.3486 129.683Z" fill="white"/>
<path d="M23.1651 174.278C34.8919 174.278 35.4515 155.331 28.4321 152.268C23.3271 150.039 21.3833 159.602 26.4343 162.1C27.7302 162.743 28.1327 164.8 25.374 164.648C24.9617 164.623 23.1308 164.373 21.8152 164.329C24.7604 160.632 23.764 152.513 15.2916 150.982C7.88937 149.652 0.604912 152.621 0.531284 161.05C0.428199 172.364 9.00854 174.278 23.1651 174.278ZM9.16562 162.527C9.17544 160.058 19.5033 160.166 17.9914 164.191C13.3233 164.137 9.16562 164 9.16562 162.527Z" fill="white"/>
<path d="M21.3588 261.721C21.4422 261.731 21.5306 261.746 21.614 261.756C22.7479 261.908 23.5922 262.737 23.9996 263.803C24.731 265.707 24.1665 267.528 23.8425 268.814C23.3713 270.68 24.6623 273.193 27.1068 273.983C27.8971 274.238 32.2756 274.945 32.2756 274.945C32.2756 274.945 30.3318 271.769 31.1957 268.559C32.5652 263.459 33.2573 261.957 32.2118 257.559C30.9356 252.194 20.7403 251.202 18.6344 250.917C8.66986 249.572 -0.558422 249.96 0.639289 261.751C1.54739 270.768 8.10536 274.695 15.272 274.484C23.4597 274.253 24.3236 266.016 21.3588 261.721ZM8.99383 261.608C8.94966 260.087 12.9895 260.602 17.53 261.284C19.1106 265.673 9.07237 264.161 8.99383 261.608Z" fill="white"/>
</svg>
