<svg width="57" height="57" viewBox="0 0 57 57" fill="none" xmlns="http://www.w3.org/2000/svg">
<path fill-rule="evenodd" clip-rule="evenodd" d="M28.5 7.125C22.6945 7.125 21.9678 7.14923 19.6878 7.25325C17.4121 7.35727 15.8574 7.71922 14.4979 8.2479C13.0729 8.7837 11.7805 9.62445 10.7117 10.7131C9.62477 11.7807 8.7835 13.0722 8.24647 14.4979C7.72065 15.8574 7.35727 17.4135 7.25325 19.6892C7.15065 21.9678 7.125 22.6931 7.125 28.5C7.125 34.3069 7.14923 35.0322 7.25325 37.3122C7.35727 39.5879 7.71922 41.1426 8.2479 42.502C8.7837 43.927 9.62445 45.2195 10.7131 46.2883C11.7807 47.3752 13.0723 48.2165 14.4979 48.7535C15.8574 49.2808 17.4121 49.6427 19.6878 49.7467C21.9678 49.8508 22.6945 49.875 28.5 49.875C34.3054 49.875 35.0322 49.8508 37.3122 49.7467C39.5879 49.6427 41.1426 49.2808 42.502 48.7521C43.927 48.2163 45.2195 47.3755 46.2883 46.2868C47.3752 45.2193 48.2165 43.9278 48.7535 42.502C49.2808 41.1426 49.6427 39.5879 49.7467 37.3122C49.8508 35.0322 49.875 34.3054 49.875 28.5C49.875 22.6945 49.8508 21.9678 49.7467 19.6878C49.6427 17.4121 49.2808 15.8574 48.7521 14.4979C48.2155 13.0716 47.3742 11.7795 46.2868 10.7117C45.2193 9.62477 43.9278 8.7835 42.502 8.24647C41.1426 7.72065 39.5865 7.35727 37.3108 7.25325C35.0322 7.15065 34.3069 7.125 28.5 7.125ZM28.5 10.9768C34.2071 10.9768 34.884 10.9981 37.1383 11.1007C39.2217 11.1962 40.3531 11.5425 41.107 11.8375C42.1045 12.2236 42.817 12.6882 43.5651 13.4349C44.3132 14.183 44.7763 14.8955 45.1625 15.893C45.4561 16.6468 45.8038 17.7783 45.8992 19.8616C46.0018 22.116 46.0232 22.7929 46.0232 28.5C46.0232 34.2071 46.0018 34.884 45.8992 37.1383C45.8038 39.2217 45.4575 40.3531 45.1625 41.107C44.8204 42.0354 44.2746 42.8754 43.5651 43.5651C42.8755 44.2747 42.0355 44.8206 41.107 45.1625C40.3531 45.4561 39.2217 45.8038 37.1383 45.8992C34.884 46.0018 34.2085 46.0232 28.5 46.0232C22.7914 46.0232 22.116 46.0018 19.8616 45.8992C17.7783 45.8038 16.6468 45.4575 15.893 45.1625C14.9646 44.8204 14.1246 44.2746 13.4349 43.5651C12.7255 42.8753 12.1797 42.0354 11.8375 41.107C11.5439 40.3531 11.1962 39.2217 11.1007 37.1383C10.9981 34.884 10.9768 34.2071 10.9768 28.5C10.9768 22.7929 10.9981 22.116 11.1007 19.8616C11.1962 17.7783 11.5425 16.6468 11.8375 15.893C12.2236 14.8955 12.6882 14.183 13.4349 13.4349C14.1245 12.7253 14.9645 12.1794 15.893 11.8375C16.6468 11.5439 17.7783 11.1962 19.8616 11.1007C22.116 10.9981 22.7929 10.9768 28.5 10.9768Z" fill="black"/>
<path fill-rule="evenodd" clip-rule="evenodd" d="M28.5 35.6321C27.5634 35.6321 26.636 35.4476 25.7706 35.0892C24.9053 34.7308 24.1191 34.2054 23.4568 33.5432C22.7945 32.8809 22.2692 32.0946 21.9108 31.2293C21.5523 30.364 21.3679 29.4366 21.3679 28.5C21.3679 27.5634 21.5523 26.636 21.9108 25.7706C22.2692 24.9053 22.7945 24.1191 23.4568 23.4568C24.1191 22.7945 24.9053 22.2692 25.7706 21.9108C26.636 21.5523 27.5634 21.3679 28.5 21.3679C30.3915 21.3679 32.2056 22.1193 33.5432 23.4568C34.8807 24.7943 35.6321 26.6084 35.6321 28.5C35.6321 30.3915 34.8807 32.2056 33.5432 33.5432C32.2056 34.8807 30.3915 35.6321 28.5 35.6321ZM28.5 17.5132C25.5861 17.5132 22.7916 18.6708 20.7312 20.7312C18.6708 22.7916 17.5132 25.5861 17.5132 28.5C17.5132 31.4139 18.6708 34.2084 20.7312 36.2688C22.7916 38.3292 25.5861 39.4867 28.5 39.4867C31.4139 39.4867 34.2084 38.3292 36.2688 36.2688C38.3292 34.2084 39.4867 31.4139 39.4867 28.5C39.4867 25.5861 38.3292 22.7916 36.2688 20.7312C34.2084 18.6708 31.4139 17.5132 28.5 17.5132ZM42.683 17.3137C42.683 18.0025 42.4094 18.6631 41.9224 19.1501C41.4353 19.6372 40.7747 19.9108 40.086 19.9108C39.3972 19.9108 38.7366 19.6372 38.2495 19.1501C37.7625 18.6631 37.4889 18.0025 37.4889 17.3137C37.4889 16.625 37.7625 15.9644 38.2495 15.4773C38.7366 14.9903 39.3972 14.7167 40.086 14.7167C40.7747 14.7167 41.4353 14.9903 41.9224 15.4773C42.4094 15.9644 42.683 16.625 42.683 17.3137Z" fill="black"/>
</svg>
