<svg width="413" height="113" viewBox="0 0 413 113" fill="none" xmlns="http://www.w3.org/2000/svg">
<path d="M226.827 70.5524C225.945 69.9524 224.18 70.176 223.292 76.6993C222.657 81.3992 223.469 92.2401 219.651 94.7165C215.351 97.5046 210.504 96.087 210.645 87.5108C210.787 78.7875 211.422 58.0822 225.904 58.3292C241.056 58.588 240.033 72.3171 238.092 80.0522C237.139 83.8462 235.833 92.9459 238.903 93.5106C238.903 93.5106 233.421 98.2046 228.092 94.9224C222.021 91.1813 229.192 72.1582 226.827 70.5524Z" fill="black"/>
<path d="M125.024 71.1583C126.177 65.5526 126.848 61.288 124.506 59.4645C119.73 55.7528 112.807 60.8174 112.807 60.8174C115.836 61.3821 113.877 70.4818 112.654 74.2759C110.16 82.0227 109.06 97.4341 123.289 95.9988C134.171 94.9106 139.435 87.0461 139.8 78.464C140.218 68.6466 130.418 67.6055 125.024 71.1583ZM123.824 85.9756C121.995 86.0344 122.959 81.1874 124.165 75.7464C129.565 73.8523 126.895 85.8814 123.824 85.9756Z" fill="black"/>
<path d="M283.867 85.4932C282.314 85.4461 282.773 82.4403 282.973 79.6522C283.467 72.6935 271.726 70.376 269.738 80.2639C268.044 88.6755 272.538 96.0165 283.067 96.0871C297.272 96.1812 297.784 84.1756 297.702 78.4346C297.455 60.8762 282.796 66.2114 278.908 58.1586C278.908 58.1586 273.344 58.8292 273.397 64.4114C273.467 71.5112 282.079 70.3524 284.738 73.9464C286.932 76.9228 285.485 85.5403 283.867 85.4932Z" fill="black"/>
<path d="M209.398 78.3934C209.451 71.5935 202.081 68.3642 202.081 68.3642C202.081 68.3642 204.71 62.482 201.863 59.6351C199.457 57.2351 195.416 57.541 192.963 58.3468C189.164 59.5939 183.693 64.8349 183.946 58.3998C183.946 58.3998 177.576 71.9583 189.069 67.3937C194.452 65.2584 195.763 65.5055 194.546 67.9466C194.546 67.9466 185.093 68.2289 181.793 77.1581C178.499 86.0991 182.64 96.0929 193.305 96.0929C203.987 96.0929 209.316 89.3754 209.398 78.3934ZM193.769 87.9696C191.022 87.6872 193.575 74.8935 196.363 75.2876C199.169 75.6876 196.805 88.2813 193.769 87.9696Z" fill="black"/>
<path d="M254.232 70.9289C254.232 70.9289 251.997 76.3993 253.28 81.5286C253.456 82.2345 254.656 85.4167 258.897 83.9286C263.25 82.4051 268.967 84.6756 268.256 89.1931C266.456 100.675 240.086 96.7518 240.033 82.8345C239.962 64.6055 245.933 58.3528 256.709 58.141C262.15 58.0351 267.979 61.3938 268.261 67.6407C268.514 73.1877 264.785 79.1228 268.214 80.4992C268.214 80.4992 262.903 84.3168 257.826 81.0639C252.209 77.4581 258.544 70.323 257.274 68.6643C255.944 66.9408 254.232 70.9289 254.232 70.9289Z" fill="black"/>
<path d="M65.9374 79.4522C64.4139 79.4757 63.9786 82.0815 63.0962 88.599C62.461 93.2989 61.614 93.9695 60.7669 94.64C56.7494 97.8223 51.1436 95.9341 51.8907 87.3873C52.6377 78.8405 54.273 71.5524 67.0373 71.1995C83.0604 70.7583 78.9782 84.4815 77.8841 89.3049C77.5841 90.6166 76.9488 92.8754 80.0193 93.4401C80.0193 93.4401 74.7489 98.1223 69.3314 94.993C63.3963 91.5695 68.9961 79.3993 65.9374 79.4522Z" fill="black"/>
<path d="M51.8848 87.3873C51.8848 87.3873 52.0672 70.176 57.5494 63.3232C62.7022 56.8822 70.2196 58.141 74.4607 59.7351C78.3959 61.2174 80.1488 58.3822 80.1488 58.3822C80.1488 58.3822 80.4782 67.6113 72.6725 67.6231C65.2139 67.6348 65.1844 78.4581 63.7962 83.2109C62.4433 87.8167 51.8848 87.3873 51.8848 87.3873Z" fill="black"/>
<path d="M82.9016 68.9642C81.6017 74.3641 76.6665 96.0929 91.4308 96.0929C107.754 96.0929 113.154 76.064 107.395 70.7289C107.395 70.7289 110.483 68.3995 108.348 64.6879C106.472 61.4291 110.583 58.2822 110.583 58.2822C110.583 58.2822 99.9718 55.8881 98.1012 63.035C97.7601 64.3467 97.9777 65.6996 98.4718 66.9172C98.9071 67.9819 99.1012 69.5877 97.2307 70.8112C97.2307 70.8112 98.6306 71.9406 97.9718 75.0523C97.5424 77.0817 96.1954 85.4991 94.166 85.7461C92.9661 85.8932 93.319 83.0286 94.2543 76.0287C95.1896 69.0289 97.9542 59.0821 93.1602 58.4116C85.7486 57.3763 84.3193 63.0761 82.9016 68.9642Z" fill="black"/>
<path d="M14.9152 72.1289C14.9152 72.1289 9.42122 94.5165 16.5387 95.9047C24.6973 97.4929 27.1031 88.7696 27.1737 81.5639C27.2443 74.3582 27.7913 70.0348 30.0324 70.1525C34.9794 70.4172 26.9266 82.6227 32.5382 82.6227C36.0382 82.6227 34.9029 71.5289 37.097 70.7171C40.6204 69.4113 39.6557 74.517 36.6381 82.658C33.4382 91.2931 39.4028 96.1988 43.0792 96.0341C46.7555 95.8694 49.2496 94.7165 50.6143 91.6754C50.6143 91.6754 48.2614 92.3342 48.4967 88.7108C48.7555 84.6815 50.379 76.7229 51.473 72.2701C54.5847 59.6351 42.3615 52.0647 34.797 65.0996C34.797 65.0996 32.5265 56.5881 24.762 58.6704C16.3857 60.9174 14.9152 72.1289 14.9152 72.1289Z" fill="black"/>
<path d="M143.259 72.1289C143.259 72.1289 137.765 94.5165 144.882 95.9047C153.041 97.4929 155.447 88.7696 155.517 81.5639C155.588 74.3582 156.135 70.0348 158.376 70.1525C163.323 70.4172 155.27 82.6227 160.882 82.6227C164.382 82.6227 163.247 71.5289 165.441 70.7171C168.964 69.4113 167.999 74.517 164.982 82.658C161.782 91.2931 167.747 96.1988 171.423 96.0341C175.099 95.8694 177.593 94.7165 178.958 91.6754C178.958 91.6754 176.605 92.3342 176.84 88.7108C177.099 84.6815 178.723 76.7229 179.817 72.2701C182.928 59.6351 170.705 52.0647 163.141 65.0996C163.141 65.0996 160.87 56.5881 153.106 58.6704C144.729 60.9174 143.259 72.1289 143.259 72.1289Z" fill="black"/>
<path d="M176.587 29.5711C175.705 28.9711 173.94 29.1947 173.052 35.718C172.417 40.4179 173.229 51.2588 169.411 53.7352C165.111 56.5234 160.264 55.1058 160.405 46.5295C160.547 37.8062 161.182 17.1009 175.664 17.3479C190.816 17.6067 189.793 31.3358 187.852 39.0709C186.899 42.8649 185.593 51.9647 188.664 52.5294C188.664 52.5294 183.181 57.2233 177.852 53.9411C171.788 50.2 178.958 31.177 176.587 29.5711Z" fill="black"/>
<path d="M297.437 29.5711C296.555 28.9711 294.79 29.1947 293.902 35.718C293.267 40.4179 294.078 51.2588 290.261 53.7352C285.961 56.5234 281.114 55.1058 281.255 46.5295C281.396 37.8062 282.032 17.1009 296.514 17.3479C311.666 17.6067 310.643 31.3358 308.702 39.0709C307.749 42.8649 306.443 51.9647 309.513 52.5294C309.513 52.5294 304.031 57.2233 298.702 53.9411C292.637 50.2 299.802 31.177 297.437 29.5711Z" fill="black"/>
<path d="M203.91 44.3884C205.487 44.459 205.369 41.612 206.545 36.6415C208.528 28.2712 219.527 28.5535 218.627 37.4886C217.769 46.0236 214.175 53.9293 203.369 55.0175C189.234 56.4469 189.24 41.0297 191.181 33.2946C192.134 29.5006 193.44 20.4008 190.369 19.8361C190.369 19.8361 196.934 14.7774 201.975 18.4832C207.487 22.5301 200.216 44.2237 203.91 44.3884Z" fill="black"/>
<path d="M234.568 44.5119C233.015 44.4649 233.474 41.4591 233.674 38.6709C234.168 31.7123 222.427 29.3947 220.439 39.2827C218.745 47.6942 223.239 55.0352 233.768 55.1058C247.974 55.1999 248.486 43.1943 248.403 37.4533C248.156 19.8949 233.498 25.2301 229.61 17.1774C229.61 17.1774 224.045 17.8479 224.098 23.4301C224.169 30.53 232.78 29.3712 235.439 32.9652C237.633 35.9416 236.18 44.559 234.568 44.5119Z" fill="black"/>
<path d="M44.5085 44.4178C42.9674 44.2354 44.0262 41.459 44.2262 38.6709C44.7203 31.7122 32.9794 29.3947 30.9912 39.2826C29.2971 47.6942 33.7911 55.0352 44.3203 55.1058C58.5258 55.1999 58.8023 43.3178 59.6022 37.6297C60.7199 29.7064 62.7551 19.7302 57.4376 17.8714C49.8613 15.2244 46.7673 23.0772 46.7673 23.0772C46.7673 23.0772 46.6555 17.4773 40.9204 17.3009C36.5205 17.1656 34.7088 22.9831 32.3559 17.3185C32.3559 17.3185 29.103 24.0713 31.3206 27.0124C36.1029 33.3475 43.0262 27.13 44.5556 28.6123C45.5791 29.6005 43.1027 33.7298 46.2261 33.3946C47.3732 33.271 47.4732 29.0829 48.8378 28.8006C51.6789 28.2123 49.9201 33.6651 48.8378 37.2062C47.6614 41.0649 46.9085 44.7001 44.5085 44.4178Z" fill="black"/>
<path d="M29.6383 37.4121C29.8736 30.6123 22.5856 27.383 22.5856 27.383C22.5856 27.383 25.6561 22.489 22.8797 19.642C20.5386 17.2421 16.7857 16.995 15.9387 16.9774C14.8446 16.9538 8.69181 17.1303 5.37425 21.5361C2.46256 25.4007 7.07421 29.6417 10.7682 26.4948C10.8859 26.3948 11.0035 26.2889 11.127 26.183C15.5563 22.2243 16.3445 24.5301 15.0622 26.9712C15.0622 26.9712 5.59778 27.2536 2.06846 36.1827C-1.46086 45.1237 2.41551 55.1175 13.0858 55.1175C23.762 55.1117 29.2677 48.3942 29.6383 37.4121ZM13.7564 46.9883C11.0212 46.706 13.9034 33.9122 16.6798 34.3063C19.4798 34.7063 16.7857 47.306 13.7564 46.9883Z" fill="black"/>
<path d="M75.9665 30.1182C75.9665 30.1182 73.7313 35.5886 75.0136 40.7179C75.1901 41.4238 76.39 44.606 80.6311 43.1178C84.9839 41.5943 90.7014 43.8649 89.9897 48.3824C88.1897 59.8644 61.8198 55.941 61.7669 42.0237C61.6963 23.7948 67.6667 17.542 78.4429 17.3303C83.884 17.2244 89.7132 20.5831 89.9956 26.83C90.2485 32.3769 86.5192 38.3121 89.9485 39.6885C89.9485 39.6885 84.6369 43.5061 79.5606 40.2532C73.9431 36.6474 80.2782 29.5123 79.0076 27.8535C77.6783 26.13 75.9665 30.1182 75.9665 30.1182Z" fill="black"/>
<path d="M130.077 31.7946C132.812 18.5538 120.683 11.1657 114.148 24.0242C114.148 24.0242 113.913 17.3714 105.319 17.3009C99.1718 17.3244 94.7896 23.8477 93.7778 28.6535C93.219 31.3064 90.8308 39.9061 92.0014 46.6001C93.2131 53.5234 100.231 57.1586 106.377 53.7587C111.53 50.9059 112.46 44.5178 113.566 38.8297C114.224 35.4298 114.313 30.4829 116.077 29.7358C118.76 29.3594 117.86 33.2769 115.489 41.5473C112.954 50.3882 117.324 55.2822 121.001 55.1116C124.671 54.9469 128.895 53.6646 130.253 50.6235C130.253 50.6235 126.777 50.6118 127.183 47.0001C127.636 42.9002 128.524 39.3179 130.077 31.7946ZM105.878 43.3414C103.042 43.2825 105.63 29.0711 108.677 29.3535C111.483 29.6123 109.16 43.4119 105.878 43.3414Z" fill="black"/>
<path d="M159.317 27.983C159.317 13.9304 136.612 13.2598 132.942 21.6714C130.271 27.7889 141.73 30.1182 144.724 24.0654C145.494 22.5125 147.959 22.0302 147.776 25.336C147.747 25.8301 147.447 28.0242 147.394 29.6006C142.965 26.0713 133.236 27.2653 131.4 37.418C129.806 46.2884 133.365 55.0176 143.465 55.1058C157.023 55.2293 159.317 44.9472 159.317 27.983ZM145.235 44.759C142.277 44.7472 142.406 32.3711 147.229 34.1828C147.165 39.7768 147 44.759 145.235 44.759Z" fill="black"/>
<path d="M264.103 30.1476C264.115 30.0476 264.132 29.9417 264.144 29.8417C264.326 28.4829 265.32 27.4712 266.597 26.983C268.879 26.1065 271.061 26.783 272.603 27.1712C274.838 27.7359 277.849 26.1889 278.796 23.2596C279.102 22.3125 279.949 17.0656 279.949 17.0656C279.949 17.0656 276.144 19.3949 272.297 18.3597C266.185 16.7185 264.385 15.8892 259.115 17.1421C252.685 18.6714 251.497 30.8888 251.156 33.4122C249.544 45.3531 250.009 56.4116 264.138 54.9764C274.944 53.8882 279.649 46.0295 279.396 37.4415C279.12 27.63 269.25 26.5948 264.103 30.1476ZM263.967 44.9649C262.144 45.0178 262.762 40.1768 263.579 34.7357C268.838 32.8417 267.026 44.8707 263.967 44.9649Z" fill="black"/>
<path d="M406.105 42.4356C406.075 42.112 406.034 41.7885 405.999 41.465C405.393 36.7181 403.864 31.9358 401.458 27.2595C396.452 17.5421 389.052 11.0423 386.905 9.27761C386.158 8.65998 385.3 8.03059 384.347 7.40119C384.17 7.28355 383.994 7.1659 383.811 7.04825C379.07 4.01304 372.176 1.07195 364.318 0.236676C359.118 -0.31625 354.03 0.10138 349.206 1.47193C343.665 3.04836 338.477 5.88946 333.783 9.91877C328.283 14.6422 323.836 20.0362 320.584 25.9478C317.978 30.6771 316.119 35.7475 315.066 41.018C314.437 44.1767 314.166 47.0119 314.09 49.3707C314.037 50.8824 314.066 52.2 314.125 53.2823C314.231 55.3117 314.448 56.5176 314.472 56.6293L314.531 56.9528L317.001 58.3469L318.266 59.0587L320.578 60.3645L320.684 60.388C325.26 61.3233 331.16 60.4527 338.271 57.7999C338.748 57.6234 339.236 57.4352 339.724 57.2411C340.371 56.9822 341.03 56.7117 341.695 56.4234C343.654 55.5823 345.477 54.7058 347.065 53.9C347.583 53.6353 348.083 53.3765 348.548 53.1294C350.647 52.0118 352.165 51.1059 352.777 50.7353C354.665 51.5942 357.147 52.7177 359.93 53.9764C360.359 54.1706 360.794 54.3705 361.235 54.5705C363.53 55.6117 365.982 56.7234 368.453 57.841C368.888 58.041 369.323 58.2351 369.759 58.4351C369.806 58.4587 369.853 58.4763 369.894 58.4999C379.029 62.6409 394.517 62.9291 398.623 62.9291C399.176 62.9291 399.523 62.9233 399.617 62.9233L399.858 62.9174L402.393 60.8645C402.57 60.7233 402.734 60.5763 402.887 60.4175C403.417 59.8822 403.84 59.2587 404.134 58.5763C404.011 57.4763 403.858 56.3999 403.676 55.3529C403.47 56.1352 403.234 56.9117 402.976 57.6881C402.899 57.9175 402.799 58.141 402.687 58.3587C402.399 58.894 402.005 59.3763 401.517 59.7704L400.358 60.7057L399.352 61.5174C399.246 61.5174 399.111 61.5174 398.946 61.5174C395.54 61.5233 379.5 61.3115 370.47 57.2175C361.941 53.3529 353.283 49.4236 350.5 48.1648L352.571 46.0766L351.577 45.0884L348.083 48.6119L349 49.0295C349 49.0295 349.812 49.4001 351.212 50.0295C346.953 52.5235 331.395 61.0763 321.072 59.041L315.795 56.0646C315.595 54.6764 314.919 48.8648 316.454 41.2356C318.072 33.1946 322.548 21.4185 334.695 10.9893C351.736 -3.63969 372.359 1.17194 383.353 8.41293C383.353 8.41293 383.358 8.41293 383.358 8.41881C384.323 9.05409 385.211 9.70701 386.017 10.3658C387.499 11.5834 391.564 15.1304 395.546 20.4714C397.176 22.6596 398.793 25.1478 400.211 27.9065C401.705 30.8006 402.84 33.7064 403.623 36.6004C404.181 38.6651 404.558 40.7297 404.752 42.7944C405.281 44.2179 405.799 45.7767 406.275 47.4472C406.328 45.7767 406.275 44.1061 406.105 42.4356Z" fill="black"/>
<path d="M399.782 61.9821L393.717 58.5292L394.005 57.9351C400.429 44.8119 400.546 32.4593 394.358 21.2243C389.729 12.8187 383.1 8.21878 383.035 8.17761L383.829 7.01881C384.111 7.21293 390.764 11.8187 395.564 20.4949C398.387 25.6007 399.958 31.0535 400.24 36.7004C400.581 43.5531 399.005 50.7059 395.558 57.9586L400.481 60.7586L399.782 61.9821Z" fill="black"/>
<path d="M353.942 31.6417C353.371 31.6417 352.824 31.5006 352.371 31.2123C351.836 30.8771 350.959 30.03 351.059 28.1595C351.142 26.6301 351.93 25.5007 353.171 25.136C354.165 24.8478 355.218 25.1478 355.736 25.8654C356.024 26.2654 356.559 26.2772 356.565 26.2772L356.559 27.683C356.43 27.6889 355.294 27.6595 354.594 26.683C354.447 26.4772 354.024 26.3478 353.565 26.4831C352.912 26.6772 352.506 27.3124 352.459 28.2359C352.424 28.8418 352.518 29.6418 353.124 30.0241C353.612 30.33 354.365 30.3065 355.006 29.9594L355.677 31.1947C355.124 31.4888 354.524 31.6417 353.942 31.6417Z" fill="black"/>
<path d="M352.383 40.9356C351.947 40.9356 351.506 40.9238 351.059 40.9003C346.036 40.6533 342.189 39.1298 342.03 39.0651L342.554 37.7651C342.612 37.7886 346.383 39.2768 351.171 39.5062C357.512 39.8062 362.541 37.8651 366.118 33.7358L367.176 34.6534C363.606 38.7827 358.506 40.9356 352.383 40.9356Z" fill="black"/>
<path d="M341.383 40.3474L340.301 39.4533C341.801 37.6357 342.265 35.3769 342.271 35.3534L343.648 35.624C343.624 35.7357 343.112 38.2533 341.383 40.3474Z" fill="black"/>
<path d="M369.353 38.1533C365.553 36.224 365.706 31.3182 365.712 31.1065L367.112 31.1594C367.112 31.2006 366.994 35.3769 369.982 36.9004L369.353 38.1533Z" fill="black"/>
<path d="M328.566 35.6651C328.472 35.5534 326.342 32.9299 327.813 29.5653C328.619 27.7183 329.977 26.6007 331.454 26.5771C332.448 26.5595 333.289 27.0713 333.701 27.9359C334.136 28.8536 335.577 28.3359 335.636 28.3124L336.13 29.6241C335.195 29.9771 333.224 30.2006 332.43 28.53C332.26 28.1653 331.913 27.9653 331.477 27.9712C330.777 27.983 329.783 28.5536 329.101 30.1182C327.983 32.677 329.583 34.6828 329.648 34.7652L328.566 35.6651Z" fill="black"/>
<path d="M379.523 35.1064L379.082 33.777C381.564 32.9476 382.835 31.0241 382.964 27.8948C383.053 25.8419 381.735 24.189 380.388 23.6125C380.023 23.4537 379.112 23.1596 378.541 23.7478C376.582 25.7831 373.447 24.8713 373.312 24.8302L373.712 23.4831C373.735 23.489 376.164 24.1831 377.529 22.7714C378.347 21.9244 379.623 21.7538 380.941 22.3185C382.67 23.0596 384.482 25.136 384.364 27.9536C384.211 31.677 382.582 34.0829 379.523 35.1064Z" fill="black"/>
<path d="M344.518 18.7127C344.159 20.8185 345.312 22.7773 347.095 23.0773C348.242 23.2714 349.365 22.7361 350.118 21.7655L349.824 23.142L348.424 26.1301C340.918 29.8241 341.483 18.3127 341.483 18.3127L342.165 15.9657L344.73 12.254L347.559 11.1541L350.006 12.7481L350.942 17.9009L350.912 18.0303C350.595 16.6892 349.648 15.6422 348.383 15.4304C346.612 15.1422 344.877 16.6068 344.518 18.7127Z" fill="black"/>
<path d="M345.306 29.7947C345.201 29.7947 345.095 29.7888 344.989 29.7771C341.936 29.4771 339.965 24.9713 340.501 19.5244C340.748 17.0009 341.507 14.6716 342.63 12.9658C343.842 11.1188 345.359 10.1894 346.901 10.3423C348.442 10.4952 349.748 11.7011 350.577 13.7481C351.348 15.6422 351.636 18.0774 351.389 20.595C350.871 25.8537 348.23 29.7947 345.306 29.7947ZM346.583 11.7305C345.648 11.7305 344.642 12.454 343.795 13.7363C342.795 15.2598 342.118 17.3656 341.889 19.6597C341.448 24.1713 342.924 28.1654 345.118 28.383C347.312 28.6006 349.542 24.9713 349.983 20.4597C350.206 18.1597 349.953 15.9657 349.265 14.2775C348.648 12.7599 347.73 11.8364 346.748 11.7423C346.701 11.7305 346.642 11.7305 346.583 11.7305Z" fill="black"/>
<path d="M361.688 17.7715C361.33 19.8773 362.483 21.8361 364.265 22.1361C365.412 22.3302 366.535 21.7949 367.288 20.8244L366.994 22.2008L365.594 25.189C358.089 28.883 358.653 17.3715 358.653 17.3715L359.336 15.0245L361.9 11.3129L364.729 10.2129L367.176 11.807L368.112 16.9598L368.082 17.0892C367.765 15.748 366.818 14.701 365.553 14.4893C363.782 14.201 362.047 15.6657 361.688 17.7715Z" fill="black"/>
<path d="M362.483 28.8536C362.377 28.8536 362.265 28.8477 362.159 28.8359C360.618 28.683 359.312 27.4771 358.483 25.4301C357.712 23.5361 357.424 21.1008 357.671 18.5833C357.918 16.0598 358.677 13.7304 359.8 12.0246C361.012 10.1776 362.53 9.2482 364.071 9.40114C367.124 9.70113 369.094 14.2069 368.559 19.6538C368.312 22.1773 367.553 24.5066 366.429 26.2125C365.3 27.9301 363.906 28.8536 362.483 28.8536ZM363.753 10.7893C362.818 10.7893 361.812 11.5129 360.965 12.7952C359.965 14.3187 359.288 16.4245 359.059 18.7185C358.836 21.0185 359.089 23.2125 359.777 24.9007C360.394 26.4183 361.312 27.3418 362.294 27.436C363.277 27.5301 364.353 26.8007 365.253 25.436C366.253 23.9125 366.929 21.8067 367.159 19.5126C367.6 15.001 366.124 11.007 363.93 10.7893C363.871 10.7893 363.812 10.7893 363.753 10.7893Z" fill="black"/>
<path d="M338.343 56.5938L335.433 92.7591L336.834 92.8718L339.744 56.7065L338.343 56.5938Z" fill="black"/>
<path d="M347.164 52.4547L343.185 94.9188L344.584 95.0499L348.564 52.5858L347.164 52.4547Z" fill="black"/>
<path d="M344.948 98.8341L343.659 98.2753C343.854 97.8282 344.042 96.4518 343.354 95.2577C342.701 94.1166 341.412 93.4284 339.53 93.2048C337.877 93.0107 336.63 93.3048 335.818 94.093C334.518 95.3459 334.683 97.4988 334.689 97.5224L333.289 97.6459C333.277 97.5341 333.06 94.8166 334.836 93.0931C335.966 91.999 337.601 91.5637 339.695 91.8166C342.618 92.1637 343.959 93.5048 344.571 94.5636C345.495 96.1695 345.289 98.04 344.948 98.8341Z" fill="black"/>
<path d="M322.807 108.904C320.125 108.904 318.078 107.469 317.178 104.952C316.101 101.922 316.972 98.2047 319.166 96.4871C322.907 93.5636 326.172 94.0695 328.254 95.0048C329.801 95.6989 331.113 96.8224 332.107 98.0282C332.883 97.5165 334.113 96.8106 335.613 96.3518C339.065 95.293 342.271 96.0342 344.871 98.4988C346.136 99.6929 346.683 101.899 346.201 103.857C345.836 105.352 344.942 106.399 343.748 106.734C337.589 108.475 330.395 108.751 322.954 108.904C322.907 108.904 322.854 108.904 322.807 108.904ZM324.936 95.6753C323.307 95.6753 321.666 96.3165 320.031 97.5929C318.313 98.9341 317.625 102.022 318.501 104.481C318.913 105.634 320.031 107.563 322.931 107.504C330.277 107.357 337.371 107.081 343.371 105.387C344.065 105.193 344.601 104.51 344.842 103.522C345.201 102.052 344.812 100.369 343.912 99.5164C341.677 97.3988 339.036 96.7812 336.071 97.6812C334.748 98.0812 333.642 98.7047 332.942 99.1635C333.683 100.316 334.119 101.446 334.166 102.275L332.766 102.363C332.683 101.04 330.813 97.6988 327.678 96.2871C326.772 95.8753 325.854 95.6753 324.936 95.6753Z" fill="black"/>
<path d="M370.735 83.3463L363.959 80.3463C358.865 78.0935 356 72.5701 357.141 67.2114L360.012 53.5L361.388 53.7882L358.512 67.5055C357.506 72.2171 360.03 77.0758 364.524 79.064L371.3 82.0639L370.735 83.3463Z" fill="black"/>
<path d="M373.341 75.1876L368.906 73.1289C366.777 72.0877 365.665 69.7525 366.206 67.4408L368.529 57.494L369.894 57.8116L367.571 67.7584C367.182 69.4231 367.982 71.1113 369.518 71.8583L373.929 73.9053L373.341 75.1876Z" fill="black"/>
<path d="M372.076 85.4286C372.017 85.4286 371.965 85.4286 371.906 85.4227C370.923 85.3815 370.229 85.0639 369.829 84.4815C369.288 83.6815 369.582 82.7639 369.618 82.6639L369.723 82.3522L370.035 82.2345C372.294 81.3934 373.629 80.2346 374 78.8052C374.594 76.4935 372.547 74.0759 372.523 74.0524L372.112 73.57L372.547 73.1112C373.612 71.9936 374.97 71.7818 376.37 72.5289C377.541 73.1465 378.412 74.2759 378.764 75.617C379.7 79.1758 378.688 81.4228 377.676 82.6816C376.035 84.7168 373.5 85.4286 372.076 85.4286ZM370.918 83.4051C370.918 83.5051 370.941 83.611 371 83.6992C371.129 83.8874 371.476 84.0051 371.97 84.0227C373.106 84.0756 375.288 83.411 376.588 81.7933C377.77 80.3287 378.047 78.364 377.412 75.9641C377.159 74.9994 376.541 74.1994 375.717 73.7583C375.076 73.4171 374.523 73.3936 374.023 73.6995C374.717 74.6994 375.941 76.8758 375.365 79.1405C374.9 80.964 373.406 82.3933 370.918 83.4051Z" fill="black"/>
<path d="M374.859 91.2108C371.5 89.0226 371.5 86.0286 371.965 84.7521L373.282 85.2286C373.247 85.3404 372.388 87.9285 375.623 90.0402L374.859 91.2108Z" fill="black"/>
<path d="M370.935 103.822C369.929 103.822 368.965 103.669 368.088 103.34C365.8 102.487 364.494 100.61 364.406 98.0517C364.3 94.9989 365.906 92.1107 368.812 90.1167C370.459 88.9873 372.729 88.0991 373.882 88.5932L373.329 89.8814C373.029 89.7519 371.488 89.9814 369.606 91.2696C368.135 92.2754 365.688 94.4871 365.812 97.9929C365.9 100.499 367.365 101.563 368.582 102.016C371.494 103.099 375.841 101.852 378.264 99.2341C379.123 98.3106 379.611 96.94 380.182 95.3518C380.67 93.993 381.223 92.4519 382.105 91.0049C382.853 89.7872 386.476 83.4521 384.682 78.664C382.941 74.0288 377.782 75.2112 377.559 75.2641L377.223 73.8994C377.288 73.8818 378.876 73.5053 380.735 73.823C383.27 74.2582 385.088 75.7582 385.988 78.1699C387.964 83.4345 384.429 89.8873 383.3 91.7343C382.488 93.0578 381.988 94.4636 381.5 95.8224C380.905 97.4812 380.341 99.0517 379.288 100.187C377.176 102.475 373.9 103.822 370.935 103.822Z" fill="black"/>
<path d="M372.27 106.722C371.9 106.722 371.547 106.704 371.235 106.681C368.824 106.475 366.941 105.246 365.788 103.11C364.935 101.54 364.788 100.034 364.782 99.9694L366.182 99.8399C366.2 100.046 366.729 104.893 371.353 105.281C373.982 105.504 378.976 104.94 382.923 98.6694C383.217 98.1988 383.541 97.1282 383.852 96.0871C384.276 94.6695 384.717 93.1989 385.323 92.2637C388.729 87.0226 389.541 81.6345 387.447 78.217C386.111 76.0406 383.729 74.9582 380.906 75.2523L380.758 73.8583C384.141 73.5053 387.017 74.8288 388.647 77.4817C389.782 79.3287 390.217 81.6875 389.911 84.2992C389.588 87.0756 388.411 90.0931 386.505 93.0225C386.011 93.7872 385.582 95.2224 385.2 96.4812C384.829 97.7106 384.511 98.7753 384.117 99.4105C380.235 105.569 375.365 106.722 372.27 106.722Z" fill="black"/>
<path d="M323.531 112.293C323.419 112.293 323.307 112.293 323.207 112.293C318.107 112.198 315.919 109.404 315.595 107.04C315.243 104.463 316.819 102.84 316.884 102.769L317.878 103.757L317.378 103.263L317.878 103.752C317.831 103.799 316.725 104.975 316.978 106.846C317.119 107.887 317.707 108.84 318.625 109.54C319.742 110.387 321.331 110.851 323.225 110.887C326.76 110.951 337.307 109.775 342.395 109.146C344.03 108.946 346.083 108.028 346.495 106.116C346.801 104.693 346.536 103.816 345.636 103.281L346.354 102.075C347.795 102.934 348.306 104.393 347.871 106.416C347.406 108.581 345.324 110.204 342.571 110.546C337.23 111.198 327.395 112.293 323.531 112.293Z" fill="black"/>
<path d="M404.281 66.8702L404.246 66.8643L402.881 66.7349C402.893 66.5878 402.911 66.4349 402.923 66.2878C403.076 64.3467 403.046 62.3585 402.893 60.3998C402.84 59.7115 402.77 59.0233 402.687 58.341C402.046 53.0647 400.634 48.2177 399.676 45.359C399.123 43.712 398.723 42.7238 398.711 42.6885L400.011 42.1591C400.023 42.1885 400.052 42.2532 400.093 42.3591C400.534 43.4708 402.564 48.8001 403.681 55.3411C403.864 56.3881 404.017 57.4645 404.14 58.5645C404.44 61.2762 404.54 64.1055 404.281 66.8702Z" fill="black"/>
<path d="M409.952 65.4409C409.946 65.6879 409.934 65.935 409.922 66.1879L408.581 66.1291H408.517C408.517 66.1173 408.517 66.1056 408.517 66.0997V66.0938C408.828 59.0293 407.752 52.6647 406.258 47.4472C405.781 45.7708 405.264 44.2179 404.734 42.7944C404.317 41.6709 403.893 40.6239 403.476 39.671C402.17 36.671 400.829 34.2358 399.77 32.4829C398.558 30.483 397.705 29.383 397.693 29.3654L398.799 28.5007C398.811 28.5183 398.846 28.5654 398.905 28.6418C399.393 29.2948 401.405 32.0888 403.599 36.5946C403.976 37.3652 404.358 38.1887 404.734 39.0592C405.181 40.0827 405.64 41.2121 406.087 42.4297C408.264 48.2766 410.246 56.2588 409.952 65.4409Z" fill="black"/>
<path d="M400.893 75.5465C400.176 75.5465 399.734 75.1935 399.546 75.0053C398.658 74.1053 398.829 72.3936 399.923 71.2701C400.629 70.5466 401.793 68.3996 402.364 67.2173C402.864 66.182 403.34 65.7997 403.428 65.735L404.252 66.8702C404.252 66.8702 404.258 66.8643 404.27 66.8585C404.27 66.8585 403.975 67.1055 403.628 67.8231C403.611 67.8584 402.046 71.1054 400.929 72.2466C400.281 72.9054 400.27 73.7347 400.546 74.0112C400.846 74.3171 401.752 74.0524 402.905 72.9583L403.87 73.9759C402.593 75.1994 401.605 75.5465 400.893 75.5465Z" fill="black"/>
<path d="M403.623 81.1581C403.376 81.1581 403.134 81.111 402.905 81.0228C402.011 80.664 401.27 79.5287 401.864 77.4229C402.734 74.3288 402.781 72.323 402.781 72.2995L404.187 72.323C404.187 72.4113 404.146 74.5112 403.217 77.7993C402.934 78.7993 403.017 79.5463 403.428 79.7169C403.723 79.8346 404.199 79.664 404.434 79.2111C405.152 77.8582 405.781 74.7524 405.723 73.4289L407.123 73.37C407.187 74.9053 406.517 78.2758 405.67 79.8699C405.246 80.6699 404.428 81.1581 403.623 81.1581Z" fill="black"/>
<path d="M406.393 81.4404C405.317 81.4404 404.546 80.5698 404.458 80.4698L405.528 79.5581L404.993 80.011L405.523 79.5522C405.64 79.6875 406.058 80.0581 406.434 80.0345C406.758 80.011 407.04 79.6757 407.217 79.3934C408.187 77.8875 408.328 74.9994 408.305 74.0112L409.705 73.97C409.711 74.1347 409.799 77.9758 408.393 80.1522C407.875 80.9522 407.246 81.3816 406.517 81.4286C406.481 81.4404 406.434 81.4404 406.393 81.4404Z" fill="black"/>
<path d="M408.675 79.4993L408.193 78.1817C408.287 78.1464 410.434 77.3053 410.593 74.423C410.787 70.9819 410.064 66.9232 408.522 66.0997L409.187 64.8644C411.752 66.2408 412.164 71.5701 411.999 74.5053C411.781 78.3346 408.805 79.4523 408.675 79.4993Z" fill="black"/>
<path d="M316.407 64.2703C316.307 64.2703 316.225 64.2468 316.19 64.2409C315.566 64.0468 315.707 63.3997 315.754 63.188C315.784 63.0409 315.837 62.835 315.901 62.5586C316.013 62.1115 316.172 61.488 316.372 60.7116C316.719 59.3881 317.078 58.0528 317.078 58.0352L318.431 58.3998C317.813 60.6939 317.137 63.3056 317.09 63.6232C317.125 63.3527 316.943 62.9997 316.584 62.8997C316.248 62.8056 315.931 62.9821 315.801 63.2056L317.113 63.6821C316.943 64.1703 316.625 64.2703 316.407 64.2703Z" fill="black"/>
<path d="M311.272 62.7115L309.913 62.3645C311.913 54.5294 314.154 49.1942 314.178 49.1413L315.472 49.6883C315.448 49.7413 313.243 54.9882 311.272 62.7115Z" fill="black"/>
<path d="M305.437 70.1701C304.484 70.1701 303.49 69.8643 302.596 69.229C301.302 68.3114 301.184 66.8702 301.625 65.9173C302.072 64.9467 303.025 64.4585 303.99 64.7056C305.602 65.1173 306.849 65.2585 308.219 63.288C309.86 60.941 311.878 61.2998 312.719 61.8174L312.349 62.4115L311.99 63.0115C311.854 62.935 310.625 62.2939 309.372 64.0879C307.337 66.9996 305.025 66.4114 303.643 66.0585C303.196 65.9408 302.961 66.3702 302.896 66.4996C302.702 66.9232 302.713 67.5879 303.402 68.0761C304.861 69.1113 306.678 68.9407 307.619 67.682L308.09 67.0584L308.66 67.5937C308.672 67.6055 309.125 67.9996 309.743 67.882C310.478 67.7408 311.237 66.9526 311.925 65.5938L313.172 66.2291C312.254 68.0349 311.172 69.0525 309.96 69.2643C309.313 69.376 308.731 69.229 308.296 69.0172C307.531 69.7819 306.508 70.1701 305.437 70.1701Z" fill="black"/>
<path d="M312.766 79.1523C312.672 79.1523 312.578 79.1464 312.484 79.1405C311.784 79.0758 311.243 78.8052 310.878 78.3405C310.137 77.4052 310.325 75.9935 310.496 74.7582C310.537 74.4641 310.59 74.0818 310.607 73.7818C310.478 73.9994 310.337 74.27 310.225 74.4818C309.619 75.6465 308.796 77.2464 307.119 77.4111C306.025 77.517 305.155 77.1111 304.719 76.2876C304.131 75.17 304.496 73.5112 305.625 72.1642C306.613 70.9819 308.502 68.2173 308.519 68.1878L309.678 68.9761C309.602 69.0937 307.731 71.8289 306.696 73.0642C305.849 74.07 305.684 75.1171 305.955 75.6347C306.113 75.9406 306.46 76.07 306.978 76.017C307.896 75.9288 308.472 74.8171 308.978 73.8406C309.472 72.8877 309.937 71.9936 310.843 72.0524C311.19 72.076 311.484 72.223 311.69 72.476C312.149 73.0348 312.025 73.923 311.884 74.9524C311.76 75.87 311.601 77.0052 311.978 77.4758C312.025 77.5346 312.166 77.7111 312.619 77.7523C313.007 77.7876 313.178 77.6817 313.278 77.5935C313.819 77.117 313.866 75.6465 313.896 74.57C313.937 73.2406 313.972 72.1877 314.807 71.8995C315.766 71.5701 316.454 72.3465 316.954 72.9171C317.648 73.7053 317.995 73.9994 318.607 73.7347C318.972 73.5759 319.066 73.4053 319.101 73.2877C319.319 72.6171 318.495 71.2348 317.766 70.0113C317.548 69.6407 317.319 69.2584 317.107 68.8819C316.29 67.4114 316.513 66.482 316.69 65.7291C316.825 65.1644 316.907 64.8232 316.548 64.2232C316.254 63.7291 315.196 63.4291 314.725 63.3586L314.925 61.9704C315.137 61.9998 317.037 62.2998 317.754 63.5056C318.401 64.5938 318.207 65.4056 318.054 66.0526C317.901 66.6996 317.778 67.2055 318.331 68.1996C318.531 68.5584 318.754 68.929 318.966 69.2937C319.931 70.9113 320.842 72.4407 320.431 73.7171C320.248 74.2936 319.819 74.7347 319.16 75.0171C317.548 75.7229 316.507 74.5465 315.89 73.8406C315.743 73.6759 315.531 73.4289 315.372 73.3053C315.319 73.6289 315.301 74.2053 315.284 74.6112C315.243 76.017 315.184 77.7699 314.19 78.6464C313.819 78.9817 313.331 79.1523 312.766 79.1523Z" fill="black"/>
<path d="M312.331 70.5231C312.231 70.5172 309.943 70.3525 308.99 68.8172L310.184 68.0819C310.654 68.8407 311.954 69.0937 312.419 69.1231L312.331 70.5231Z" fill="black"/>
<path d="M339.018 56.6528L338.513 62.2644L347.565 59.0469L347.818 52.7059L339.018 56.6528Z" fill="black"/>
<path d="M360.524 53.5941L359.612 58.2587L368.853 59.5527L369.041 57.094L360.524 53.5941Z" fill="black"/>
<path d="M401.646 33.977L401.364 47.4707L399.182 43.2355L399.429 38.6533L398.882 30.5359L401.646 33.977Z" fill="black"/>
<path d="M312.749 55.1353L313.913 57.694L317.143 59.994L317.648 58.1881L315.101 56.4176L314.496 51.2236L312.749 55.1353Z" fill="black"/>
</svg>
