<svg width="411" height="120" viewBox="0 0 411 120" fill="none" xmlns="http://www.w3.org/2000/svg">
<path d="M404.709 45.0496C404.678 44.7062 404.634 44.3627 404.597 44.0193C403.954 38.9799 402.33 33.9031 399.776 28.9387C394.462 18.6227 386.606 11.7225 384.327 9.84911C383.534 9.19343 382.622 8.52527 381.611 7.8571C381.423 7.73221 381.236 7.60732 381.043 7.48243C376.009 4.26024 368.691 1.13796 360.348 0.251238C354.828 -0.335749 349.426 0.107614 344.306 1.56259C338.423 3.23613 332.916 6.25225 327.933 10.5298C322.094 15.5441 317.373 21.2704 313.92 27.5462C311.154 32.5668 309.18 37.9496 308.062 43.5447C307.394 46.898 307.107 49.9079 307.026 52.412C306.97 54.0168 307.001 55.4156 307.063 56.5646C307.176 58.7189 307.407 59.9991 307.432 60.1177L307.494 60.4612L310.117 61.9411L311.46 62.6967L313.914 64.083L314.026 64.108C318.884 65.1009 325.148 64.1767 332.697 61.3604C333.203 61.1731 333.721 60.9732 334.24 60.7672C334.927 60.4924 335.626 60.2051 336.332 59.8992C338.411 59.0062 340.347 58.0758 342.033 57.2203C342.582 56.9392 343.113 56.6645 343.606 56.4022C345.836 55.2158 347.447 54.2541 348.096 53.8607C350.101 54.7724 352.736 55.9651 355.69 57.3014C356.146 57.5075 356.608 57.7198 357.076 57.9321C359.511 59.0374 362.115 60.2176 364.738 61.4041C365.2 61.6164 365.662 61.8225 366.124 62.0348C366.174 62.0598 366.224 62.0785 366.268 62.1035C375.966 66.4997 392.408 66.8056 396.766 66.8056C397.353 66.8056 397.722 66.8056 397.822 66.7994H398.078L400.769 64.6138C400.956 64.4639 401.131 64.3078 401.294 64.1392C401.856 63.571 402.305 62.909 402.617 62.1847C402.486 61.0169 402.324 59.8742 402.13 58.7627C401.912 59.5932 401.662 60.4175 401.387 61.2417C401.306 61.4853 401.2 61.7226 401.081 61.9536C400.775 62.5219 400.357 63.0339 399.839 63.4523L398.608 64.4452L397.541 65.3069C397.428 65.3069 397.285 65.3069 397.11 65.3069C393.494 65.3069 376.465 65.0884 366.88 60.7422C357.825 56.6395 348.633 52.4682 345.68 51.1318L347.878 48.915L346.822 47.8659L343.113 51.6064L344.087 52.0498C344.087 52.0498 344.949 52.4432 346.435 53.1113C341.914 55.759 325.397 64.8386 314.438 62.678L308.837 59.5182C308.625 58.0445 307.906 51.8749 309.536 43.7757C311.253 35.2394 316.006 22.7379 328.901 11.6663C346.991 -3.86392 368.884 1.24412 380.555 8.93116C381.58 9.60557 382.523 10.2987 383.378 10.9981C384.952 12.2907 389.267 16.0562 393.494 21.7262C395.224 24.0492 396.941 26.6907 398.446 29.6193C400.032 32.6917 401.237 35.7765 402.068 38.8488C402.661 41.0406 403.061 43.2325 403.267 45.4243C403.829 46.9355 404.378 48.5903 404.884 50.3637C404.947 48.5903 404.89 46.8168 404.709 45.0434V45.0496Z" fill="black"/>
<path d="M397.991 65.8002L391.553 62.1347L391.859 61.504C398.678 47.5724 398.803 34.4588 392.233 22.5318C387.319 13.6083 380.281 8.72506 380.213 8.68135L381.056 7.45117C381.355 7.65724 388.418 12.5467 393.514 21.7574C396.511 27.1777 398.178 32.9664 398.478 38.9612C398.84 46.2361 397.167 53.8294 393.507 61.529L398.734 64.5014L397.997 65.794L397.991 65.8002Z" fill="black"/>
<path d="M349.333 33.5909C348.727 33.5909 348.146 33.441 347.666 33.135C347.097 32.7791 346.167 31.8799 346.273 29.8941C346.361 28.2705 347.197 27.0716 348.515 26.6844C349.57 26.3784 350.688 26.6969 351.238 27.4587C351.543 27.8834 352.112 27.8958 352.118 27.8958V29.3883C351.981 29.3883 350.769 29.3633 350.026 28.3267C349.87 28.1082 349.42 27.9708 348.933 28.1144C348.24 28.3205 347.809 28.9949 347.759 29.9753C347.722 30.6185 347.822 31.4677 348.465 31.8736C348.983 32.1983 349.783 32.1734 350.463 31.8049L351.175 33.1163C350.594 33.4348 349.951 33.5909 349.339 33.5909H349.333Z" fill="black"/>
<path d="M347.672 43.4635C347.21 43.4635 346.742 43.451 346.267 43.4261C340.934 43.1638 336.85 41.5464 336.682 41.4777L337.237 40.0977C337.3 40.1227 341.303 41.7026 346.386 41.9461C353.117 42.2646 358.456 40.2039 362.253 35.8202L363.377 36.7943C359.587 41.1718 354.173 43.4635 347.672 43.4635Z" fill="black"/>
<path d="M335.994 42.839L334.845 41.8898C336.438 39.9603 336.931 37.5624 336.937 37.5374L338.398 37.8246C338.374 37.937 337.836 40.6097 335.994 42.839Z" fill="black"/>
<path d="M365.693 40.5036C361.659 38.4554 361.822 33.2474 361.828 33.0226L363.314 33.0788C363.314 33.1225 363.189 37.5562 366.362 39.1735L365.687 40.5036H365.693Z" fill="black"/>
<path d="M322.394 37.8684C322.294 37.7497 320.033 34.9647 321.594 31.3928C322.45 29.432 323.892 28.2455 325.46 28.2205C326.515 28.2018 327.408 28.7451 327.845 29.663C328.307 30.6372 329.837 30.0877 329.899 30.0627L330.424 31.4552C329.431 31.8299 327.339 32.0672 326.496 30.2937C326.315 29.9066 325.947 29.6943 325.485 29.7005C324.741 29.713 323.686 30.3187 322.962 31.9798C321.775 34.6961 323.474 36.8255 323.543 36.913L322.394 37.8621V37.8684Z" fill="black"/>
<path d="M376.484 37.269L376.016 35.8577C378.651 34.9772 380 32.9352 380.137 29.6131C380.231 27.4338 378.832 25.6791 377.402 25.0671C377.015 24.8985 376.047 24.5863 375.442 25.2107C373.362 27.3713 370.034 26.4034 369.89 26.3597L370.315 24.9297C370.315 24.9297 372.919 25.6728 374.368 24.1741C375.236 23.2749 376.591 23.0938 377.989 23.6933C379.825 24.4801 381.749 26.6844 381.624 29.6756C381.455 33.6284 379.725 36.1887 376.484 37.269Z" fill="black"/>
<path d="M339.329 19.8653C338.948 22.1009 340.172 24.1803 342.064 24.4988C343.282 24.7048 344.475 24.1366 345.274 23.1062L344.962 24.5675L343.476 27.7397C335.508 31.6613 336.107 19.4407 336.107 19.4407L336.831 16.9491L339.554 13.0088L342.558 11.8411L345.155 13.5333L346.148 19.0036L346.117 19.1409C345.78 17.7172 344.774 16.6057 343.432 16.3809C341.54 16.0624 339.698 17.611 339.317 19.8528L339.329 19.8653Z" fill="black"/>
<path d="M340.16 31.6301C340.048 31.6301 339.935 31.6301 339.823 31.6113C336.582 31.2929 334.49 26.5095 335.058 20.7271C335.32 18.0482 336.126 15.5753 337.319 13.7644C338.605 11.8036 340.216 10.817 341.852 10.9793C343.488 11.1417 344.875 12.4218 345.755 14.5949C346.573 16.6057 346.879 19.1909 346.617 21.8636C346.067 27.4462 343.27 31.6301 340.16 31.6301ZM341.521 12.453C340.528 12.453 339.461 13.2211 338.561 14.5824C337.5 16.1998 336.782 18.4353 336.538 20.8707C336.07 25.6603 337.637 29.9003 339.966 30.1314C342.296 30.3624 344.662 26.5095 345.131 21.72C345.368 19.2783 345.099 16.9491 344.369 15.1569C343.713 13.5458 342.739 12.5655 341.696 12.4655C341.634 12.4655 341.571 12.4593 341.509 12.4593L341.521 12.453Z" fill="black"/>
<path d="M357.557 18.8724C357.176 21.1079 358.4 23.1874 360.292 23.5058C361.509 23.7119 362.702 23.1437 363.501 22.1133L363.189 23.5745L361.703 26.7468C353.735 30.6683 354.334 18.4478 354.334 18.4478L355.059 15.9562L357.781 12.0159L360.785 10.8481L363.383 12.5404L364.376 18.0106L364.344 18.148C364.007 16.7243 363.002 15.6127 361.659 15.3879C359.767 15.0695 357.925 16.6181 357.544 18.8599L357.557 18.8724Z" fill="black"/>
<path d="M358.394 30.6372C358.281 30.6372 358.163 30.6372 358.05 30.6185C356.414 30.4561 355.028 29.176 354.148 27.0029C353.329 24.9922 353.023 22.4069 353.286 19.7342C353.548 17.0553 354.354 14.5825 355.546 12.7716C356.833 10.8108 358.444 9.82415 360.08 9.98651C363.321 10.305 365.413 15.0883 364.844 20.8708C364.582 23.5497 363.777 26.0225 362.584 27.8334C361.385 29.6568 359.911 30.6372 358.394 30.6372ZM359.749 11.454C358.756 11.454 357.688 12.2221 356.789 13.5834C355.727 15.2007 355.009 17.4363 354.766 19.8716C354.528 22.3132 354.797 24.6425 355.528 26.4346C356.183 28.0457 357.157 29.0261 358.2 29.126C359.243 29.226 360.386 28.4516 361.341 27.0029C362.403 25.3856 363.121 23.15 363.364 20.7146C363.833 15.9251 362.265 11.685 359.936 11.454C359.874 11.454 359.811 11.4477 359.749 11.4477V11.454Z" fill="black"/>
<path d="M332.775 60.1039L329.686 98.4962L331.174 98.6159L334.263 60.2236L332.775 60.1039Z" fill="black"/>
<path d="M342.191 55.6865L337.962 100.768L339.447 100.907L343.677 55.8259L342.191 55.6865Z" fill="black"/>
<path d="M339.779 104.929L338.411 104.335C338.617 103.861 338.817 102.399 338.086 101.132C337.393 99.9204 336.026 99.1898 334.027 98.9525C332.273 98.7464 330.949 99.0587 330.087 99.8892C328.707 101.219 328.882 103.505 328.888 103.53L327.402 103.661C327.389 103.542 327.158 100.657 329.044 98.8276C330.243 97.6661 331.979 97.204 334.202 97.4725C337.306 97.841 338.73 99.2647 339.379 100.389C340.359 102.094 340.141 104.079 339.779 104.922V104.929Z" fill="black"/>
<path d="M316.275 115.613C313.427 115.613 311.254 114.089 310.299 111.417C309.156 108.201 310.08 104.254 312.409 102.431C316.381 99.3272 319.847 99.8643 322.057 100.857C323.7 101.594 325.092 102.787 326.147 104.067C326.972 103.524 328.277 102.774 329.869 102.287C333.535 101.163 336.938 101.95 339.698 104.566C341.041 105.834 341.621 108.176 341.109 110.255C340.722 111.841 339.773 112.953 338.505 113.309C331.967 115.157 324.33 115.451 316.431 115.613C316.375 115.613 316.325 115.613 316.269 115.613H316.275ZM318.542 101.569C316.812 101.569 315.07 102.25 313.334 103.605C311.51 105.029 310.78 108.307 311.71 110.917C312.147 112.141 313.334 114.189 316.412 114.127C324.212 113.971 331.743 113.677 338.112 111.879C338.849 111.673 339.417 110.948 339.673 109.899C340.054 108.338 339.642 106.552 338.686 105.647C336.314 103.399 333.51 102.743 330.362 103.698C328.957 104.123 327.783 104.785 327.04 105.272C327.827 106.496 328.289 107.695 328.339 108.575L326.853 108.669C326.766 107.264 324.78 103.717 321.452 102.218C320.49 101.788 319.516 101.569 318.542 101.569Z" fill="black"/>
<path d="M367.161 88.4805L359.967 85.2958C354.559 82.9041 351.518 77.0405 352.73 71.3517L355.777 56.7957L357.238 57.1017L354.185 71.6639C353.117 76.6658 355.796 81.8238 360.567 83.9345L367.76 87.1192L367.155 88.4805H367.161Z" fill="black"/>
<path d="M369.928 79.8255L365.219 77.6399C362.959 76.5346 361.779 74.0555 362.353 71.6014L364.82 61.0419L366.268 61.3791L363.802 71.9386C363.39 73.7058 364.239 75.498 365.869 76.2911L370.552 78.4642L369.928 79.813V79.8255Z" fill="black"/>
<path d="M368.585 90.691C368.523 90.691 368.466 90.691 368.404 90.691C367.361 90.6473 366.624 90.3101 366.2 89.6919C365.625 88.8426 365.937 87.8685 365.975 87.7623L366.087 87.4313L366.418 87.3065C368.816 86.4135 370.234 85.1833 370.627 83.6659C371.258 81.2118 369.085 78.6453 369.06 78.6203L368.623 78.1082L369.085 77.6212C370.215 76.4347 371.657 76.2099 373.144 77.003C374.386 77.6586 375.31 78.8576 375.685 80.2813C376.678 84.0593 375.604 86.4447 374.53 87.781C372.781 89.9479 370.09 90.7035 368.585 90.7035V90.691ZM367.349 88.5429C367.349 88.649 367.374 88.7614 367.436 88.8551C367.573 89.0549 367.942 89.1798 368.466 89.1986C369.672 89.2548 371.988 88.5491 373.368 86.8319C374.624 85.277 374.917 83.1913 374.243 80.6435C373.974 79.6194 373.318 78.7702 372.444 78.3018C371.764 77.9396 371.177 77.9147 370.646 78.2394C371.383 79.3009 372.682 81.6114 372.07 84.0156C371.576 85.9451 369.99 87.4626 367.349 88.5304V88.5429Z" fill="black"/>
<path d="M371.539 96.8356C367.973 94.5127 367.973 91.3342 368.467 89.9791L369.865 90.4849C369.828 90.6036 368.916 93.3512 372.351 95.593L371.539 96.8419V96.8356Z" fill="black"/>
<path d="M367.368 110.218C366.3 110.218 365.276 110.055 364.345 109.706C361.916 108.8 360.53 106.808 360.436 104.092C360.324 100.851 362.028 97.7848 365.113 95.6679C366.862 94.4689 369.272 93.526 370.496 94.0505L369.909 95.4181C369.591 95.2807 367.955 95.5243 365.956 96.8918C364.395 97.9596 361.797 100.308 361.929 104.029C362.022 106.69 363.577 107.82 364.87 108.301C367.961 109.45 372.576 108.126 375.148 105.347C376.06 104.367 376.578 102.912 377.184 101.226C377.702 99.783 378.289 98.147 379.226 96.6108C380.019 95.3182 383.866 88.5928 381.961 83.5097C380.113 78.589 374.636 79.8442 374.399 79.9004L374.049 78.4517C374.118 78.4329 375.804 78.0333 377.777 78.3705C380.469 78.8326 382.398 80.4249 383.354 82.9852C385.452 88.5741 381.699 95.4181 380.5 97.3851C379.638 98.7902 379.107 100.283 378.589 101.725C377.958 103.486 377.359 105.153 376.241 106.359C373.999 108.775 370.521 110.205 367.374 110.205L367.368 110.218Z" fill="black"/>
<path d="M368.785 113.296C368.392 113.296 368.017 113.278 367.686 113.253C365.126 113.034 363.128 111.729 361.904 109.462C360.998 107.795 360.842 106.196 360.836 106.128L362.322 105.99C362.341 106.209 362.903 111.354 367.811 111.766C370.602 112.004 375.904 111.404 380.094 104.747C380.406 104.248 380.75 103.111 381.081 102.006C381.53 100.501 381.999 98.94 382.642 97.9472C386.257 92.3833 387.119 86.6633 384.896 83.0352C383.479 80.7247 380.95 79.5757 377.952 79.8879L377.796 78.408C381.387 78.0333 384.44 79.4383 386.17 82.2546C387.375 84.2154 387.837 86.7195 387.513 89.492C387.169 92.4395 385.92 95.6429 383.897 98.7527C383.366 99.5645 382.917 101.088 382.511 102.425C382.117 103.73 381.78 104.86 381.362 105.534C377.247 112.066 372.076 113.29 368.791 113.29L368.785 113.296Z" fill="black"/>
<path d="M317.042 119.21C316.923 119.21 316.805 119.21 316.699 119.21C311.285 119.11 308.962 116.144 308.618 113.634C308.244 110.898 309.917 109.175 309.986 109.1L311.041 110.149L310.51 109.625L311.041 110.143C310.991 110.193 309.817 111.442 310.086 113.427C310.236 114.533 310.86 115.544 311.834 116.287C313.021 117.187 314.707 117.68 316.717 117.717C320.47 117.786 331.667 116.537 337.068 115.869C338.804 115.657 340.984 114.683 341.421 112.653C341.746 111.142 341.465 110.212 340.509 109.643L341.271 108.363C342.801 109.275 343.344 110.823 342.882 112.972C342.389 115.27 340.178 116.993 337.256 117.355C331.586 118.061 321.139 119.216 317.042 119.216V119.21Z" fill="black"/>
<path d="M402.767 70.9894H402.73L401.281 70.852C401.294 70.6959 401.312 70.5398 401.325 70.3774C401.487 68.3167 401.456 66.2061 401.294 64.1266C401.237 63.396 401.163 62.6654 401.075 61.941C400.394 56.3397 398.896 51.1942 397.878 48.1593C397.291 46.4108 396.866 45.3618 396.854 45.3243L398.234 44.7623C398.234 44.7623 398.278 44.8622 398.321 44.9746C398.79 46.1548 400.944 51.8124 402.13 58.7563C402.324 59.8678 402.486 61.0106 402.617 62.1783C402.936 65.0571 403.042 68.0607 402.767 70.9894Z" fill="black"/>
<path d="M408.794 69.4782C408.788 69.7405 408.775 70.0027 408.763 70.2713L407.339 70.2088H407.27C407.27 70.2088 407.27 70.1838 407.27 70.1714C407.601 62.6654 406.459 55.9088 404.872 50.3699C404.367 48.5902 403.817 46.9416 403.255 45.4304C402.812 44.2377 402.362 43.1262 401.919 42.1146C400.533 38.9299 399.109 36.3446 397.985 34.4838C396.698 32.3606 395.793 31.1929 395.78 31.1741L396.954 30.2562C396.954 30.2562 397.004 30.3249 397.067 30.4061C397.585 31.0992 399.721 34.0654 402.05 38.8487C402.45 39.6667 402.855 40.541 403.255 41.4652C403.73 42.5517 404.217 43.7507 404.691 45.0433C406.983 51.2441 409.088 59.718 408.775 69.472L408.794 69.4782Z" fill="black"/>
<path d="M399.171 80.2001C398.409 80.2001 397.941 79.8254 397.741 79.6256C396.798 78.6702 396.979 76.853 398.14 75.6603C398.89 74.8922 400.126 72.6129 400.732 71.3578C401.263 70.2587 401.768 69.8529 401.862 69.7842L402.736 70.9894C402.736 70.9894 402.743 70.9894 402.755 70.9769C402.755 70.9769 402.443 71.2391 402.074 72.001C402.056 72.0384 400.395 75.4854 399.208 76.6969C398.521 77.3963 398.509 78.2768 398.802 78.5702C399.121 78.895 400.082 78.614 401.306 77.4525L402.33 78.5328C400.975 79.8192 399.926 80.1876 399.171 80.1876V80.2001Z" fill="black"/>
<path d="M402.068 86.1574C401.806 86.1574 401.55 86.1074 401.306 86.0138C400.357 85.6328 399.57 84.4276 400.201 82.1921C401.125 78.9075 401.175 76.7781 401.175 76.7531L402.668 76.7781C402.668 76.8717 402.624 79.101 401.637 82.5917C401.338 83.6533 401.425 84.4464 401.862 84.6275C402.174 84.7524 402.68 84.5713 402.93 84.0904C403.692 82.6542 404.36 79.3571 404.297 77.952L405.784 77.8896C405.852 79.5194 405.14 83.0976 404.241 84.7898C403.792 85.6391 402.924 86.1511 402.068 86.1511V86.1574Z" fill="black"/>
<path d="M405.016 86.4572C403.873 86.4572 403.055 85.533 402.961 85.4269L404.098 84.4589L403.53 84.9398L404.092 84.4527C404.216 84.5963 404.66 84.9897 405.059 84.9648C405.403 84.9398 405.703 84.5838 405.89 84.2841C406.92 82.6855 407.07 79.6194 407.045 78.5703L408.531 78.5266C408.531 78.7015 408.631 82.7792 407.139 85.0896C406.589 85.9389 405.921 86.3948 405.147 86.4447C405.103 86.4447 405.053 86.4447 405.01 86.4447L405.016 86.4572Z" fill="black"/>
<path d="M407.438 84.3964L406.926 82.9977C407.026 82.9602 409.306 82.0672 409.474 79.0074C409.68 75.3543 408.912 71.0456 407.276 70.1714L407.982 68.86C410.704 70.3212 411.142 75.9788 410.967 79.0948C410.742 83.1663 407.576 84.359 407.445 84.4027L407.438 84.3964Z" fill="black"/>
<path d="M309.487 68.2293C309.381 68.2293 309.293 68.2043 309.256 68.1981C308.594 67.992 308.744 67.3051 308.794 67.0803C308.825 66.9242 308.881 66.7056 308.95 66.4121C309.068 65.9376 309.237 65.2756 309.449 64.4514C309.818 63.0463 310.199 61.6288 310.199 61.6101L311.635 61.9973C310.979 64.4326 310.261 67.2052 310.211 67.5424C310.249 67.2552 310.055 66.8805 309.674 66.7743C309.318 66.6744 308.981 66.8618 308.844 67.099L310.236 67.6049C310.043 68.1356 309.712 68.2356 309.481 68.2356L309.487 68.2293Z" fill="black"/>
<path d="M304.035 66.5745L302.593 66.2061C304.716 57.8884 307.095 52.2246 307.12 52.1684L308.494 52.7491C308.469 52.8053 306.127 58.3754 304.035 66.5745Z" fill="black"/>
<path d="M297.834 74.4926C296.822 74.4926 295.767 74.1679 294.818 73.4935C293.444 72.5194 293.319 70.9895 293.787 69.9778C294.262 68.9475 295.274 68.4292 296.298 68.6915C298.009 69.1286 299.332 69.2784 300.787 67.1865C302.53 64.6949 304.672 65.0759 305.565 65.6254L305.171 66.2561L304.79 66.893C304.647 66.8119 303.341 66.1312 302.011 68.0358C299.851 71.1268 297.397 70.5024 295.929 70.1277C295.455 70.0028 295.205 70.4587 295.136 70.596C294.93 71.0457 294.943 71.7513 295.673 72.2696C297.222 73.3686 299.151 73.1875 300.151 71.8512L300.65 71.1893L301.256 71.7575C301.256 71.7575 301.749 72.1884 302.405 72.0635C303.185 71.9136 303.991 71.0769 304.722 69.6344L306.045 70.3088C305.071 72.2259 303.922 73.3062 302.636 73.531C301.949 73.6496 301.331 73.4935 300.869 73.2687C300.038 74.068 298.952 74.4802 297.815 74.4802L297.834 74.4926Z" fill="black"/>
<path d="M305.621 84.0343C305.521 84.0343 305.421 84.0343 305.321 84.0218C304.578 83.9531 304.003 83.6659 303.616 83.1725C302.829 82.1797 303.029 80.681 303.21 79.3696C303.254 79.0574 303.31 78.6515 303.329 78.333C303.192 78.5641 303.042 78.8513 302.923 79.0761C302.28 80.3125 301.406 82.0111 299.626 82.1859C298.465 82.2983 297.54 81.8674 297.078 80.9932C296.454 79.8067 296.841 78.0458 298.04 76.6158C299.089 75.3606 301.093 72.4257 301.112 72.3944L302.342 73.2312C302.261 73.3561 300.275 76.2598 299.176 77.5712C298.277 78.639 298.102 79.7505 298.39 80.3C298.558 80.6248 298.927 80.7621 299.476 80.7059C300.45 80.6123 301.062 79.4321 301.599 78.3955C302.124 77.3838 302.617 76.4347 303.579 76.4971C303.947 76.5221 304.259 76.6782 304.478 76.9467C304.965 77.54 304.834 78.4829 304.684 79.5757C304.553 80.5498 304.384 81.755 304.784 82.2546C304.834 82.317 304.984 82.5044 305.465 82.5481C305.877 82.5856 306.058 82.4731 306.164 82.3795C306.739 81.8737 306.788 80.3125 306.82 79.1698C306.863 77.7585 306.901 76.6407 307.788 76.3348C308.805 75.9851 309.536 76.8093 310.067 77.4151C310.804 78.2518 311.172 78.5641 311.822 78.2831C312.209 78.1145 312.309 77.9334 312.346 77.8085C312.577 77.0966 311.703 75.6291 310.929 74.3303C310.698 73.9369 310.454 73.531 310.229 73.1313C309.361 71.5702 309.599 70.5835 309.786 69.7842C309.93 69.1848 310.017 68.8226 309.636 68.1856C309.324 67.6611 308.2 67.3426 307.7 67.2677L307.913 65.794C308.137 65.8252 310.154 66.1437 310.916 67.4238C311.603 68.579 311.397 69.4408 311.235 70.1277C311.072 70.8146 310.941 71.3516 311.528 72.4069C311.74 72.7879 311.978 73.1813 312.203 73.5684C313.227 75.2857 314.195 76.9093 313.757 78.2643C313.564 78.8763 313.108 79.3446 312.415 79.6506C310.704 80.4 309.599 79.1511 308.943 78.4017C308.787 78.2269 308.562 77.9646 308.393 77.8334C308.337 78.1769 308.312 78.7889 308.3 79.2197C308.256 80.7122 308.194 82.5731 307.138 83.5035C306.726 83.8657 306.214 84.053 305.608 84.053L305.621 84.0343Z" fill="black"/>
<path d="M305.159 74.8673C305.053 74.861 302.624 74.6862 301.612 73.0563L302.88 72.2758C303.379 73.0813 304.759 73.3498 305.253 73.3811L305.153 74.8673H305.159Z" fill="black"/>
<path d="M333.484 60.1426L332.954 66.0999L342.558 62.6841L342.826 55.9588L333.484 60.1426Z" fill="black"/>
<path d="M356.321 56.8955L355.347 61.8474L365.157 63.2212L365.357 60.611L356.321 56.8955Z" fill="black"/>
<path d="M399.976 36.0699L399.676 50.4011L397.353 45.905L397.622 41.0343L397.041 32.423L399.976 36.0699Z" fill="black"/>
<path d="M305.596 58.5377L306.839 61.2479L310.267 63.6895L310.798 61.7724L308.1 59.8991L307.451 54.3851L305.596 58.5377Z" fill="black"/>
<path d="M26.3088 60.9108C19.6396 69.1973 1.68028 67.2677 0.194076 52.2871C-1.36706 36.6008 6.66967 26.6719 17.8349 26.4534C23.4675 26.3472 30.58 29.713 30.8735 36.1886C31.1358 41.9336 26.9332 45.9801 20.8198 44.4689C15.0186 43.0327 19.9206 38.4429 18.4157 37.3564C16.8733 36.2448 14.9937 39.5982 14.8375 39.9541C13.8696 42.1959 12.9704 44.7187 13.0204 49.1024C13.0641 52.7492 15.3933 54.941 17.3853 54.1355C18.7154 53.5984 19.0401 51.263 17.8599 51.2317C15.2309 51.1631 14.3442 49.0024 15.6368 47.0666C16.6734 45.518 20.0268 45.2557 23.7048 46.1112C33.0904 48.3093 28.1072 58.669 26.3025 60.9108H26.3088Z" fill="black"/>
<path d="M207.232 33.9093C206.869 26.572 199.307 24.8735 193.825 24.7111C188.342 24.5487 183.39 27.2963 181.173 31.424C177.276 38.6864 182.353 44.2503 189.022 46.7668C193.119 48.3155 193.512 52.7117 193.025 55.0284C192.757 56.296 192.594 58.4254 190.515 57.9134C187.786 57.2452 193.1 49.6581 186.331 47.5162C180.467 45.6616 177.539 49.8766 177.07 54.1541C176.028 63.7895 186.025 66.6807 190.028 66.8805C199.201 67.3426 205.277 64.1704 206.907 55.3968C208.537 46.6232 198.464 43.5696 196.41 42.4394C193.494 40.8283 191.989 38.5927 192.438 36.1449C192.644 35.0271 193.512 33.2349 194.78 34.1216C196.297 35.1832 193.2 39.979 198.945 41.6338C203.254 42.8765 207.556 40.3412 207.238 33.9093H207.232Z" fill="black"/>
<path d="M32.778 37.8246C31.4354 43.3885 26.3649 65.1008 41.5641 65.7814C61.8401 66.6869 60.023 37.7122 58.9989 33.4222C58.0497 29.4381 61.3031 26.8217 61.3031 26.8217C61.3031 26.8217 50.3689 24.3551 48.4393 31.7236C48.0834 33.0725 48.5767 55.1532 44.3866 55.122C43.1377 55.1095 43.0815 52.2245 44.0432 45.0183C45.0048 37.8121 48.2895 27.646 43.35 26.9591C35.713 25.8912 34.2392 31.7611 32.778 37.8308V37.8246Z" fill="black"/>
<path d="M73.3737 54.0605C75.1284 55.2157 79.0937 53.6858 82.8404 51.775C87.8048 49.2397 90.4838 53.0738 90.4151 55.4218C90.1653 64.3765 80.0366 65.8065 72.8492 65.8065C57.038 65.8065 59.5108 51.1068 61.5403 43.0326C62.5332 39.0736 65.3932 30.1189 62.1835 29.5319C62.1835 29.5319 69.1274 23.918 74.3853 27.7897C80.1365 32.0172 70.1453 51.9436 73.3737 54.0667V54.0605Z" fill="black"/>
<path d="M118.528 34.2591C118.072 45.468 107.544 37.9371 106.882 41.4028C106.882 41.4153 106.876 41.4278 106.869 41.4466C106.645 42.6767 106.432 43.8819 106.282 45.0184C105.321 52.2246 105.152 65.8065 98.3081 65.8065C88.4979 65.8065 92.5944 50.4512 94.4989 40.7347C94.4989 40.7347 94.5426 40.641 94.5426 40.5036C94.5551 40.0478 94.1305 39.1173 90.1652 39.798C86.1999 40.4786 85.1696 38.1682 85.1696 36.1075C85.1696 34.3715 84.3203 28.6577 96.1163 26.928C101.636 26.1162 107.282 26.6969 112.465 28.7576C115.699 30.044 118.615 31.8674 118.522 34.2653L118.528 34.2591Z" fill="black"/>
<path d="M176.946 43.9756C175.915 51.6189 175.016 65.8003 167.467 65.8003C157.656 65.8003 160.785 50.7072 161.978 40.8283C162.465 36.7943 163.826 26.4471 171.013 26.4471C180.649 26.4471 177.52 39.6918 176.94 43.9756H176.946Z" fill="black"/>
<path d="M211.871 87.9183C209.798 88.268 224.879 81.9923 228.881 89.2984C230.842 92.8765 234.002 100.051 236.756 98.3093C236.756 98.3093 235.476 107.145 228.987 107.882C221.894 108.694 215.68 87.2814 211.871 87.9183Z" fill="black"/>
<path d="M219.003 86.0763C217.972 93.7196 217.073 107.901 209.523 107.901C199.713 107.901 202.842 92.8079 204.034 82.9291C204.522 78.8951 205.883 68.5479 213.07 68.5479C222.706 68.5479 219.577 81.7926 218.996 86.0763H219.003Z" fill="black"/>
<path d="M223.855 88.8738C217.991 93.8757 212.49 104.017 206.863 98.9837C199.551 92.4394 209.917 87.0878 217.398 80.5186C220.452 77.8397 228.27 65.6378 234.09 69.8529C243.619 76.7531 227.139 86.07 223.855 88.8738Z" fill="black"/>
<path d="M299.089 43.9756C298.059 51.6189 297.16 65.8003 289.61 65.8003C279.8 65.8003 282.928 50.7072 284.121 40.8283C284.608 36.7943 285.97 26.4471 293.157 26.4471C302.792 26.4471 299.664 39.6918 299.083 43.9756H299.089Z" fill="black"/>
<path d="M118.616 40.8283C118.616 40.8283 112.889 64.1579 120.308 65.6066C128.813 67.2614 131.317 58.1694 131.392 50.6572C131.467 43.145 132.304 39.8291 134.152 40.0352C137.449 40.4036 128.769 57.6761 138.049 57.0641C141.683 56.8206 142.052 41.1655 144.025 39.9852C146.829 38.3055 146.747 42.8515 144.268 51.5564C141.533 61.1668 146.354 65.8002 151.275 65.8002C155.109 65.8002 157.407 64.1204 158.831 60.9544C158.831 60.9544 156.377 61.6413 156.62 57.8634C156.889 53.6671 158.581 45.3743 159.724 40.7346C162.965 27.5648 148.071 20.4023 140.197 33.9905C140.197 33.9905 136.968 24.6361 128.882 26.8093C120.146 29.151 118.609 40.8345 118.609 40.8345L118.616 40.8283Z" fill="black"/>
<path d="M279.15 57.8634C278.907 61.6414 281.361 60.9545 281.361 60.9545C279.937 64.1204 277.639 65.8002 273.805 65.8002C272.144 65.8002 270.314 65.769 268.678 65.3194C259.63 63.7708 258.593 43.2574 255.546 43.8194C254.197 44.0692 253.916 50.6135 253.76 52.031C252.929 59.4932 251.343 67.2615 242.838 65.6004C235.42 64.1517 241.146 40.822 241.146 40.822C241.146 40.822 242.669 27.8271 251.043 26.4408C258.662 25.1794 261.359 33.3536 261.359 33.3536L265.456 42.6954C265.818 43.5821 267.442 45.5429 267.748 42.4394C267.897 40.922 268.597 34.0717 269.196 32.4793C269.946 30.4873 271.319 27.9708 273.274 27.1277C279.113 24.6112 285.039 29.4382 282.26 40.7284C281.117 45.3681 279.425 53.6608 279.15 57.8572V57.8634Z" fill="black"/>
<path d="M225.834 38.7364C224.897 38.0994 223.461 38.1244 222.525 45.0371C221.85 50.014 222.637 62.1534 218.59 64.7762C214.032 67.7298 208.537 65.8003 208.687 56.7082C208.836 47.46 211.278 25.8476 224.86 25.7852C239.722 25.7103 239.834 40.6098 237.774 48.8088C236.762 52.8303 235.413 61.8974 238.673 62.4969C238.673 62.4969 234.258 68.3605 227.358 64.6762C220.689 61.1106 228.338 40.4411 225.834 38.7364Z" fill="black"/>
<path d="M221.351 46.3486C221.351 46.3486 222.731 47.1104 227.146 46.3486C231.561 45.5867 226.384 55.4594 226.384 55.4594C226.384 55.4594 220.377 55.5968 219.621 54.4915C218.865 53.3862 221.345 46.3486 221.345 46.3486H221.351Z" fill="black"/>
<path d="M75.972 103.361C69.3091 111.641 51.3497 109.718 49.8573 94.7375C48.2961 79.0512 56.3329 69.1223 67.4981 68.9038C73.1307 68.7976 80.2433 72.1634 80.5368 78.639C80.799 84.384 76.5964 88.4305 70.483 86.9193C64.3696 85.4081 69.5838 80.8933 68.0789 79.8068C66.5365 78.6952 64.6569 82.0486 64.5008 82.4045C63.5328 84.6463 62.6336 87.1691 62.6836 91.5528C62.7273 95.1996 64.7568 98.3281 66.5177 97.0854C66.9861 96.7545 66.2992 95.0435 66.1556 93.8757C65.5561 88.8988 70.1895 87.9559 73.368 88.5679C82.5413 90.3413 77.7704 101.126 75.9657 103.367L75.972 103.361Z" fill="black"/>
<path d="M281.686 103.829C275.023 112.11 257.513 109.893 256.021 94.9123C254.46 79.226 264.201 69.1348 275.36 68.9162C280.993 68.8101 288.923 71.3391 288.399 78.6515C287.475 91.6027 265.3 92.4082 265.063 88.9425C265.001 88.062 278.807 83.0601 278.127 79.0574C278.052 78.6078 277.74 77.8834 277.153 77.6648C275.541 77.0529 272.856 80.6123 272.519 81.0681C269.828 84.69 268.217 90.1664 268.772 95.5367C269.191 99.5582 271.376 101.113 271.47 98.0658C271.707 90.4224 279.432 89.0487 281.724 90.5973C287.106 94.2191 283.491 101.594 281.686 103.836V103.829Z" fill="black"/>
<path d="M254.665 86.4197C253.635 94.063 252.736 108.244 245.186 108.244C235.376 108.244 238.504 93.1513 239.697 83.2724C240.184 79.2384 241.546 68.8912 248.733 68.8912C258.368 68.8912 255.24 82.1359 254.659 86.4197H254.665Z" fill="black"/>
<path d="M192.864 69.0037C191.34 68.4979 189.56 68.2231 187.5 68.2294C185.926 68.2356 184.496 68.5353 183.203 69.0724C180.318 70.2651 178.12 72.6443 176.441 75.6167C175.142 77.9209 174.267 80.45 173.774 83.0477C173.624 83.8532 173.462 84.5838 173.306 85.2021C171.532 92.2646 171.37 104.298 180.855 107.451C182.385 107.963 184.159 108.238 186.219 108.226C187.799 108.219 189.229 107.92 190.516 107.383C193.394 106.19 195.599 103.805 197.272 100.832C198.571 98.5279 199.221 96.2861 199.945 93.4011C200.145 92.6081 200.263 91.865 200.413 91.2468C202.187 84.1842 202.349 72.1509 192.857 68.9974L192.864 69.0037ZM188.823 85.5268C188.586 87.5188 188.162 89.9791 187.799 92.5269C187.718 93.1139 187.562 93.6946 187.312 94.2379C186.588 95.8053 185.826 95.6617 185.245 95.2683C184.964 95.0747 184.808 94.6438 184.752 94.0256C184.677 93.2575 184.752 92.2022 184.896 90.9595C185.133 88.9738 185.564 86.4947 185.92 83.9282C186.001 83.3349 186.157 82.7542 186.407 82.2172C187.131 80.6498 187.893 80.7934 188.474 81.1868C188.755 81.3741 188.911 81.805 188.967 82.417C189.042 83.1913 188.967 84.2654 188.823 85.533V85.5268Z" fill="black"/>
<path d="M132.378 69.0037C130.855 68.4979 129.075 68.2231 127.014 68.2294C125.441 68.2356 124.011 68.5353 122.718 69.0724C119.833 70.2651 117.635 72.6443 115.955 75.6167C114.656 77.9209 113.782 80.45 113.289 83.0477C113.139 83.8532 112.977 84.5838 112.82 85.2021C111.047 92.2646 110.885 104.298 120.37 107.451C121.9 107.963 123.673 108.238 125.734 108.226C127.314 108.219 128.744 107.92 130.03 107.383C132.909 106.19 135.113 103.805 136.787 100.832C138.086 98.5279 138.735 96.2861 139.46 93.4011C139.659 92.6081 139.778 91.865 139.928 91.2468C141.701 84.1842 141.864 72.1509 132.372 68.9974L132.378 69.0037ZM128.338 85.5268C128.101 87.5188 127.676 89.9791 127.314 92.5269C127.233 93.1139 127.077 93.6946 126.827 94.2379C126.103 95.8053 125.341 95.6617 124.76 95.2683C124.479 95.0747 124.323 94.6438 124.267 94.0256C124.192 93.2575 124.267 92.2022 124.41 90.9595C124.648 88.9738 125.078 86.4947 125.434 83.9282C125.516 83.3349 125.672 82.7542 125.921 82.2172C126.646 80.6498 127.408 80.7934 127.988 81.1868C128.269 81.3741 128.426 81.805 128.482 82.417C128.557 83.1913 128.482 84.2654 128.338 85.533V85.5268Z" fill="black"/>
<path d="M162.621 69.0037C161.097 68.4979 159.318 68.2231 157.257 68.2294C155.683 68.2356 154.253 68.5353 152.961 69.0724C150.076 70.2651 147.878 72.6443 146.198 75.6167C144.899 77.9209 144.025 80.45 143.531 83.0477C143.382 83.8532 143.219 84.5838 143.063 85.2021C141.29 92.2646 141.127 104.298 150.613 107.451C152.143 107.963 153.916 108.238 155.977 108.226C157.557 108.219 158.987 107.92 160.273 107.383C163.152 106.19 165.356 103.805 167.03 100.832C168.329 98.5279 168.978 96.2861 169.702 93.4011C169.902 92.6081 170.021 91.865 170.171 91.2468C171.944 84.1842 172.106 72.1509 162.615 68.9974L162.621 69.0037ZM158.581 85.5268C158.343 87.5188 157.919 89.9791 157.557 92.5269C157.475 93.1139 157.319 93.6946 157.07 94.2379C156.345 95.8053 155.583 95.6617 155.003 95.2683C154.722 95.0747 154.566 94.6438 154.509 94.0256C154.434 93.2575 154.509 92.2022 154.653 90.9595C154.89 88.9738 155.321 86.4947 155.677 83.9282C155.758 83.3349 155.914 82.7542 156.164 82.2172C156.889 80.6498 157.65 80.7934 158.231 81.1868C158.512 81.3741 158.668 81.805 158.724 82.417C158.799 83.1913 158.724 84.2654 158.581 85.533V85.5268Z" fill="black"/>
<path d="M102.137 69.0037C100.613 68.4979 98.8331 68.2231 96.7724 68.2294C95.1988 68.2356 93.7688 68.5353 92.4762 69.0724C89.5912 70.2651 87.3931 72.6443 85.7133 75.6167C84.4145 77.9209 83.5403 80.45 83.0469 83.0477C82.8971 83.8532 82.7347 84.5838 82.5786 85.2021C80.8051 92.2646 80.6428 104.298 90.1282 107.451C91.6582 107.963 93.4316 108.238 95.4923 108.226C97.0722 108.219 98.5022 107.92 99.7886 107.383C102.667 106.19 104.872 103.805 106.545 100.832C107.844 98.5279 108.493 96.2861 109.218 93.4011C109.418 92.6081 109.536 91.865 109.686 91.2468C111.46 84.1842 111.622 72.1509 102.13 68.9974L102.137 69.0037ZM98.0963 85.5268C97.859 87.5188 97.4344 89.9791 97.0722 92.5269C96.991 93.1139 96.8349 93.6946 96.5851 94.2379C95.8607 95.8053 95.0989 95.6617 94.5182 95.2683C94.2372 95.0747 94.081 94.6438 94.0248 94.0256C93.9499 93.2575 94.0248 92.2022 94.1685 90.9595C94.4058 88.9738 94.8366 86.4947 95.1926 83.9282C95.2738 83.3349 95.4299 82.7542 95.6797 82.2172C96.404 80.6498 97.1659 80.7934 97.7466 81.1868C98.0276 81.3741 98.1837 81.805 98.2399 82.417C98.3149 83.1913 98.2399 84.2654 98.0963 85.533V85.5268Z" fill="black"/>
</svg>
