<svg width="275" height="80" viewBox="0 0 275 80" fill="none" xmlns="http://www.w3.org/2000/svg">
<path d="M270.62 30.1237C270.599 29.894 270.57 29.6644 270.545 29.4347C270.115 26.065 269.029 22.6702 267.321 19.3506C263.768 12.4526 258.515 7.83855 256.991 6.58588C256.461 6.14744 255.851 5.70065 255.175 5.25386C255.049 5.17035 254.924 5.08684 254.795 5.00333C251.429 2.84873 246.535 0.760931 240.957 0.167997C237.265 -0.224508 233.654 0.071959 230.23 1.04487C226.296 2.16393 222.613 4.18074 219.281 7.04102C215.377 10.394 212.22 14.223 209.911 18.4195C208.061 21.7767 206.742 25.376 205.994 29.1174C205.548 31.3596 205.356 33.3723 205.301 35.0467C205.264 36.1198 205.285 37.0551 205.326 37.8235C205.402 39.264 205.556 40.12 205.573 40.1994L205.615 40.429L207.368 41.4186L208.266 41.9239L209.907 42.8509L209.982 42.8676C213.231 43.5315 217.419 42.9135 222.467 41.0303C222.805 40.905 223.152 40.7714 223.499 40.6336C223.958 40.4499 224.426 40.2578 224.897 40.0532C226.288 39.4561 227.582 38.8339 228.71 38.2619C229.077 38.074 229.432 37.8903 229.762 37.7149C231.253 36.9215 232.33 36.2785 232.764 36.0154C234.105 36.6251 235.867 37.4226 237.842 38.3162C238.147 38.454 238.456 38.5959 238.769 38.7379C240.397 39.477 242.138 40.2662 243.892 41.0595C244.201 41.2015 244.51 41.3393 244.819 41.4813C244.853 41.498 244.886 41.5105 244.915 41.5272C251.4 44.4668 262.394 44.6714 265.309 44.6714C265.701 44.6714 265.948 44.6714 266.014 44.6672H266.186L267.985 43.2058C268.111 43.1056 268.227 43.0012 268.336 42.8884C268.712 42.5085 269.012 42.0658 269.221 41.5815C269.134 40.8006 269.025 40.0365 268.896 39.2933C268.749 39.8486 268.582 40.3998 268.399 40.951C268.344 41.1138 268.273 41.2725 268.194 41.427C267.989 41.807 267.71 42.1494 267.363 42.4291L266.541 43.093L265.826 43.6693C265.751 43.6693 265.655 43.6693 265.538 43.6693C263.121 43.6693 251.734 43.5231 245.324 40.6169C239.27 37.8736 233.123 35.0843 231.148 34.1907L232.618 32.7084L231.912 32.0069L229.432 34.508L230.083 34.8045C230.083 34.8045 230.66 35.0676 231.653 35.5144C228.63 37.2848 217.586 43.3561 210.258 41.9114L206.512 39.7985C206.37 38.8131 205.89 34.6876 206.98 29.2718C208.128 23.5638 211.306 15.2043 219.928 7.80097C232.025 -2.58372 246.665 0.831916 254.469 5.97207C255.154 6.42303 255.784 6.88652 256.356 7.35419C257.409 8.21853 260.294 10.7364 263.121 14.5278C264.277 16.0812 265.426 17.8474 266.432 19.8058C267.493 21.8602 268.298 23.9229 268.854 25.9773C269.25 27.4429 269.518 28.9086 269.656 30.3742C270.031 31.3847 270.399 32.4912 270.737 33.6771C270.779 32.4912 270.741 31.3054 270.62 30.1195V30.1237Z" fill="black"/>
<path d="M266.128 43.9991L261.823 41.548L262.027 41.1263C266.587 31.8106 266.67 23.0418 262.278 15.0665C258.992 9.09955 254.286 5.83424 254.24 5.80501L254.803 4.98242C255.004 5.12022 259.726 8.3897 263.134 14.5487C265.138 18.1731 266.253 22.0439 266.453 26.0524C266.696 30.917 265.576 35.9945 263.13 41.143L266.625 43.1306L266.132 43.9949L266.128 43.9991Z" fill="black"/>
<path d="M233.591 22.4615C233.186 22.4615 232.798 22.3612 232.476 22.1566C232.096 21.9186 231.474 21.3173 231.545 19.9895C231.604 18.9038 232.163 18.1021 233.044 17.8432C233.75 17.6386 234.497 17.8516 234.865 18.361C235.069 18.645 235.449 18.6533 235.453 18.6533V19.6513C235.362 19.6513 234.552 19.6346 234.055 18.9414C233.95 18.7953 233.65 18.7034 233.324 18.7995C232.86 18.9373 232.572 19.3882 232.539 20.0438C232.514 20.4739 232.581 21.0418 233.011 21.3132C233.357 21.5303 233.892 21.5136 234.347 21.2672L234.823 22.1441C234.435 22.3571 234.005 22.4615 233.595 22.4615H233.591Z" fill="black"/>
<path d="M232.48 29.0631C232.171 29.0631 231.858 29.0547 231.541 29.038C227.975 28.8626 225.244 27.7812 225.131 27.7352L225.503 26.8124C225.545 26.8291 228.221 27.8856 231.62 28.0484C236.122 28.2614 239.692 26.8834 242.23 23.9521L242.982 24.6035C240.447 27.5306 236.827 29.0631 232.48 29.0631Z" fill="black"/>
<path d="M224.672 28.6455L223.903 28.0108C224.968 26.7205 225.298 25.1171 225.302 25.1004L226.279 25.2925C226.263 25.3676 225.903 27.1548 224.672 28.6455Z" fill="black"/>
<path d="M244.531 27.0838C241.834 25.7142 241.942 22.2318 241.946 22.0815L242.94 22.1191C242.94 22.1483 242.857 25.113 244.978 26.1944L244.527 27.0838H244.531Z" fill="black"/>
<path d="M215.577 25.3217C215.51 25.2424 213.999 23.3801 215.043 20.9916C215.615 19.6805 216.579 18.8871 217.627 18.8704C218.333 18.8579 218.93 19.2212 219.222 19.835C219.531 20.4864 220.554 20.1189 220.596 20.1022L220.947 21.0334C220.283 21.2839 218.884 21.4426 218.32 20.2567C218.199 19.9978 217.953 19.8559 217.644 19.86C217.147 19.8684 216.441 20.2734 215.957 21.3841C215.164 23.2005 216.3 24.6244 216.345 24.6829L215.577 25.3175V25.3217Z" fill="black"/>
<path d="M251.747 24.9209L251.434 23.9772C253.196 23.3885 254.098 22.023 254.19 19.8016C254.252 18.3444 253.317 17.171 252.361 16.7618C252.102 16.6491 251.455 16.4403 251.049 16.8578C249.659 18.3026 247.433 17.6554 247.337 17.6262L247.621 16.6699C247.621 16.6699 249.363 17.1668 250.331 16.1647C250.912 15.5634 251.818 15.4423 252.753 15.8432C253.981 16.3693 255.267 17.8433 255.183 19.8434C255.071 22.4865 253.914 24.1985 251.747 24.9209Z" fill="black"/>
<path d="M226.902 13.2835C226.647 14.7783 227.465 16.1688 228.731 16.3818C229.545 16.5196 230.342 16.1396 230.877 15.4506L230.668 16.4277L229.674 18.5489C224.346 21.1712 224.747 12.9995 224.747 12.9995L225.231 11.3335L227.052 8.69868L229.06 7.91785L230.798 9.04943L231.461 12.7072L231.441 12.7991C231.215 11.8471 230.543 11.1038 229.645 10.9535C228.38 10.7405 227.148 11.7761 226.893 13.2751L226.902 13.2835Z" fill="black"/>
<path d="M227.457 21.1503C227.382 21.1503 227.307 21.1503 227.232 21.1378C225.064 20.9248 223.666 17.7263 224.046 13.8597C224.221 12.0684 224.76 10.4149 225.557 9.20394C226.417 7.8928 227.495 7.23306 228.589 7.34163C229.683 7.45019 230.61 8.30619 231.198 9.75929C231.745 11.1038 231.95 12.8325 231.775 14.6197C231.407 18.3526 229.536 21.1503 227.457 21.1503ZM228.367 8.32706C227.703 8.32706 226.989 8.84066 226.388 9.75094C225.678 10.8324 225.198 12.3273 225.035 13.9558C224.722 17.1584 225.77 19.9937 227.328 20.1482C228.885 20.3027 230.468 17.7263 230.781 14.5236C230.939 12.891 230.76 11.3335 230.271 10.1351C229.833 9.05779 229.182 8.40222 228.484 8.33541C228.442 8.33541 228.401 8.33124 228.359 8.33124L228.367 8.32706Z" fill="black"/>
<path d="M239.09 12.6195C238.835 14.1144 239.654 15.5049 240.919 15.7178C241.733 15.8556 242.531 15.4756 243.065 14.7867L242.857 15.7638L241.863 17.885C236.535 20.5072 236.936 12.3356 236.936 12.3356L237.42 10.6695L239.241 8.03474L241.249 7.25391L242.986 8.38549L243.65 12.0433L243.629 12.1352C243.404 11.1831 242.731 10.4399 241.834 10.2896C240.568 10.0766 239.337 11.1121 239.082 12.6112L239.09 12.6195Z" fill="black"/>
<path d="M239.65 20.4864C239.574 20.4864 239.495 20.4864 239.42 20.4739C238.326 20.3653 237.399 19.5093 236.81 18.0562C236.263 16.7117 236.059 14.983 236.234 13.1958C236.409 11.4045 236.948 9.75098 237.746 8.54006C238.606 7.22892 239.683 6.56918 240.777 6.67775C242.944 6.8907 244.343 10.0892 243.963 13.9558C243.788 15.7471 243.249 17.4007 242.451 18.6116C241.65 19.8308 240.664 20.4864 239.65 20.4864ZM240.556 7.65901C239.892 7.65901 239.178 8.17261 238.577 9.08288C237.867 10.1644 237.386 11.6592 237.224 13.2877C237.065 14.9204 237.245 16.4779 237.733 17.6762C238.172 18.7535 238.823 19.4091 239.52 19.4759C240.218 19.5427 240.982 19.025 241.621 18.0562C242.33 16.9747 242.811 15.4799 242.973 13.8514C243.287 10.6487 242.239 7.81351 240.681 7.65901C240.639 7.65901 240.598 7.65483 240.556 7.65483V7.65901Z" fill="black"/>
<path d="M222.519 40.1902L220.454 65.8622L221.448 65.9423L223.514 40.2702L222.519 40.1902Z" fill="black"/>
<path d="M228.816 37.2363L225.987 67.3811L226.981 67.4743L229.809 37.3295L228.816 37.2363Z" fill="black"/>
<path d="M227.202 70.1633L226.288 69.7666C226.426 69.4493 226.559 68.4722 226.071 67.6246C225.607 66.8145 224.693 66.326 223.356 66.1673C222.183 66.0295 221.298 66.2383 220.722 66.7936C219.799 67.683 219.916 69.2113 219.92 69.228L218.926 69.3157C218.918 69.2363 218.763 67.3072 220.024 66.0838C220.826 65.3071 221.987 64.9981 223.473 65.1777C225.549 65.424 226.501 66.3761 226.935 67.1277C227.59 68.2676 227.444 69.5954 227.202 70.1592V70.1633Z" fill="black"/>
<path d="M211.486 77.3078C209.582 77.3078 208.129 76.289 207.49 74.5018C206.726 72.3514 207.344 69.7124 208.901 68.4931C211.557 66.4179 213.874 66.777 215.353 67.4409C216.451 67.9336 217.382 68.7311 218.088 69.5871C218.639 69.2239 219.511 68.7228 220.576 68.3971C223.027 67.6455 225.303 68.1716 227.149 69.9212C228.046 70.7688 228.435 72.3347 228.092 73.7251C227.833 74.7857 227.199 75.529 226.351 75.767C221.979 77.003 216.873 77.1992 211.59 77.3078C211.553 77.3078 211.519 77.3078 211.482 77.3078H211.486ZM213.002 67.9169C211.845 67.9169 210.68 68.372 209.519 69.2782C208.3 70.2302 207.811 72.4224 208.434 74.1678C208.726 74.9862 209.519 76.3558 211.578 76.314C216.793 76.2096 221.829 76.0134 226.088 74.8108C226.581 74.673 226.961 74.1886 227.132 73.4871C227.387 72.4432 227.111 71.249 226.472 70.6436C224.885 69.1404 223.011 68.7019 220.906 69.3408C219.967 69.6247 219.182 70.0673 218.685 70.393C219.211 71.2114 219.52 72.0132 219.553 72.6019L218.559 72.6646C218.501 71.725 217.173 69.3533 214.948 68.3512C214.305 68.0631 213.653 67.9169 213.002 67.9169Z" fill="black"/>
<path d="M245.512 59.1649L240.702 57.0353C237.086 55.4361 235.052 51.5152 235.862 47.7113L237.9 37.978L238.877 38.1826L236.835 47.92C236.121 51.2647 237.913 54.7137 241.103 56.1251L245.913 58.2546L245.508 59.1649H245.512Z" fill="black"/>
<path d="M247.362 53.3775L244.214 51.916C242.702 51.177 241.913 49.5192 242.297 47.8782L243.946 40.8173L244.915 41.0428L243.266 48.1037C242.99 49.2854 243.558 50.4838 244.648 51.0141L247.78 52.4672L247.362 53.3691V53.3775Z" fill="black"/>
<path d="M246.465 60.643C246.423 60.643 246.385 60.643 246.343 60.643C245.646 60.6138 245.153 60.3883 244.869 59.9749C244.485 59.407 244.694 58.7556 244.719 58.6847L244.794 58.4634L245.016 58.3798C246.619 57.7827 247.567 56.9601 247.83 55.9455C248.252 54.3045 246.799 52.5883 246.782 52.5716L246.49 52.2292L246.799 51.9035C247.554 51.1101 248.519 50.9598 249.513 51.4901C250.344 51.9286 250.962 52.7303 251.212 53.6823C251.876 56.2085 251.158 57.8036 250.44 58.6972C249.271 60.1461 247.471 60.6514 246.465 60.6514V60.643ZM245.638 59.2066C245.638 59.2776 245.655 59.3528 245.696 59.4154C245.788 59.549 246.034 59.6325 246.385 59.645C247.191 59.6826 248.74 59.2108 249.663 58.0625C250.502 57.0228 250.699 55.6281 250.248 53.9245C250.068 53.2397 249.63 52.6718 249.045 52.3586C248.59 52.1165 248.197 52.0998 247.843 52.3169C248.335 53.0267 249.204 54.5717 248.795 56.1793C248.465 57.4696 247.404 58.4842 245.638 59.1983V59.2066Z" fill="black"/>
<path d="M248.439 64.7518C246.055 63.1985 246.055 61.0731 246.385 60.167L247.32 60.5052C247.295 60.5845 246.686 62.4218 248.982 63.9208L248.439 64.756V64.7518Z" fill="black"/>
<path d="M245.651 73.7001C244.937 73.7001 244.252 73.5915 243.63 73.3577C242.005 72.7522 241.078 71.4202 241.016 69.6038C240.941 67.4367 242.08 65.3865 244.143 63.9709C245.312 63.1692 246.924 62.5387 247.743 62.8895L247.35 63.8039C247.137 63.712 246.043 63.8749 244.707 64.7894C243.663 65.5034 241.926 67.0734 242.014 69.562C242.076 71.3408 243.116 72.0966 243.98 72.4181C246.047 73.1865 249.133 72.3012 250.853 70.4431C251.463 69.7875 251.81 68.8146 252.215 67.6872C252.561 66.7226 252.954 65.6286 253.58 64.6015C254.11 63.7371 256.682 59.24 255.409 55.8411C254.173 52.5507 250.511 53.39 250.352 53.4276L250.118 52.4588C250.164 52.4463 251.292 52.1791 252.611 52.4046C254.411 52.7135 255.701 53.7783 256.34 55.4903C257.743 59.2275 255.234 63.8039 254.432 65.1192C253.856 66.0587 253.501 67.0567 253.154 68.0213C252.732 69.1988 252.332 70.3137 251.584 71.1195C250.085 72.7355 247.759 73.6917 245.655 73.6917L245.651 73.7001Z" fill="black"/>
<path d="M246.598 75.7586C246.335 75.7586 246.085 75.7461 245.863 75.7294C244.151 75.5833 242.815 74.7106 241.997 73.1948C241.391 72.0799 241.287 71.011 241.283 70.9651L242.276 70.8732C242.289 71.0193 242.665 74.46 245.947 74.7356C247.813 74.8943 251.358 74.4934 254.16 70.0423C254.369 69.7082 254.599 68.9482 254.82 68.2092C255.121 67.2029 255.434 66.159 255.864 65.495C258.282 61.7746 258.858 57.9497 257.371 55.5237C256.423 53.9788 254.732 53.2105 252.728 53.4192L252.624 52.4296C255.025 52.1791 257.066 53.1186 258.223 55.0018C259.029 56.3129 259.338 57.9873 259.121 59.8413C258.891 61.8122 258.056 63.9542 256.703 66.0337C256.348 66.5765 256.048 67.5954 255.776 68.4889C255.513 69.3616 255.288 70.1174 255.008 70.5684C252.256 74.936 248.799 75.7545 246.602 75.7545L246.598 75.7586Z" fill="black"/>
<path d="M211.999 79.713C211.92 79.713 211.84 79.713 211.769 79.713C208.149 79.6461 206.596 77.6627 206.366 75.9842C206.116 74.1553 207.235 73.0028 207.281 72.9527L207.986 73.6542L207.631 73.3034L207.986 73.65C207.953 73.6834 207.168 74.5185 207.347 75.8464C207.448 76.5854 207.865 77.2619 208.517 77.7588C209.31 78.3601 210.437 78.6899 211.782 78.715C214.291 78.7609 221.778 77.9258 225.39 77.479C226.551 77.337 228.008 76.6857 228.3 75.3286C228.518 74.3181 228.33 73.6959 227.691 73.316L228.2 72.46C229.223 73.0696 229.587 74.1051 229.278 75.5415C228.948 77.0782 227.47 78.2306 225.515 78.4728C221.724 78.9446 214.738 79.7171 211.999 79.7171V79.713Z" fill="black"/>
<path d="M269.321 47.469H269.296L268.328 47.3771C268.336 47.2727 268.349 47.1683 268.357 47.0598C268.465 45.6818 268.445 44.2705 268.336 42.88C268.298 42.3915 268.248 41.9029 268.19 41.4186C267.735 37.6731 266.733 34.2324 266.052 32.203C265.659 31.0339 265.376 30.3324 265.367 30.3073L266.29 29.9315C266.29 29.9315 266.319 29.9983 266.348 30.0735C266.662 30.8627 268.102 34.6458 268.896 39.289C269.025 40.0323 269.134 40.7964 269.221 41.5772C269.434 43.5022 269.505 45.5106 269.321 47.469Z" fill="black"/>
<path d="M273.351 46.4585C273.347 46.6339 273.339 46.8092 273.33 46.9888L272.378 46.947H272.333C272.333 46.947 272.333 46.9303 272.333 46.922C272.554 41.9029 271.79 37.3849 270.729 33.6812C270.391 32.4912 270.023 31.3888 269.648 30.3783C269.351 29.5808 269.05 28.8375 268.754 28.1611C267.827 26.0315 266.875 24.3028 266.123 23.0585C265.263 21.6388 264.658 20.858 264.649 20.8454L265.434 20.2316C265.434 20.2316 265.468 20.2776 265.51 20.3318C265.856 20.7953 267.284 22.7787 268.842 25.9772C269.109 26.5242 269.38 27.1088 269.648 27.7268C269.965 28.4534 270.291 29.2551 270.608 30.1194C272.14 34.2658 273.548 39.9321 273.339 46.4543L273.351 46.4585Z" fill="black"/>
<path d="M266.916 53.628C266.407 53.628 266.094 53.3774 265.96 53.2438C265.33 52.6049 265.451 51.3899 266.227 50.5923C266.729 50.0787 267.555 48.5546 267.96 47.7153C268.315 46.9804 268.653 46.709 268.716 46.6631L269.301 47.469C269.301 47.469 269.305 47.469 269.313 47.4606C269.313 47.4606 269.104 47.636 268.858 48.1454C268.846 48.1705 267.735 50.4754 266.941 51.2855C266.482 51.7531 266.474 52.3419 266.67 52.5381C266.883 52.7553 267.526 52.5674 268.345 51.7907L269.029 52.5131C268.123 53.3733 267.422 53.6196 266.916 53.6196V53.628Z" fill="black"/>
<path d="M268.854 57.6115C268.678 57.6115 268.507 57.5781 268.344 57.5155C267.71 57.2607 267.184 56.4549 267.605 54.96C268.223 52.7636 268.257 51.3398 268.257 51.3231L269.255 51.3398C269.255 51.4024 269.225 52.8931 268.566 55.2272C268.365 55.9371 268.424 56.4674 268.716 56.5885C268.925 56.672 269.263 56.5509 269.43 56.2294C269.939 55.269 270.386 53.0643 270.344 52.1248L271.338 52.083C271.384 53.1728 270.908 55.5655 270.307 56.697C270.006 57.2649 269.426 57.6073 268.854 57.6073V57.6115Z" fill="black"/>
<path d="M270.825 57.812C270.061 57.812 269.514 57.194 269.451 57.123L270.211 56.4758L269.831 56.7973L270.207 56.4716C270.29 56.5676 270.587 56.8307 270.854 56.814C271.084 56.7973 271.284 56.5593 271.41 56.3589C272.098 55.2899 272.199 53.2397 272.182 52.5382L273.176 52.509C273.176 52.6259 273.243 55.3525 272.245 56.8975C271.877 57.4654 271.43 57.7702 270.913 57.8036C270.883 57.8036 270.85 57.8036 270.821 57.8036L270.825 57.812Z" fill="black"/>
<path d="M272.445 56.434L272.103 55.4986C272.169 55.4736 273.693 54.8765 273.806 52.8304C273.944 50.3877 273.43 47.5066 272.336 46.922L272.808 46.0451C274.629 47.0222 274.921 50.8053 274.804 52.8889C274.654 55.6114 272.537 56.4089 272.449 56.4381L272.445 56.434Z" fill="black"/>
<path d="M206.947 45.6234C206.876 45.6234 206.817 45.6067 206.792 45.6025C206.35 45.4647 206.45 45.0054 206.483 44.8551C206.504 44.7507 206.542 44.6045 206.588 44.4083C206.667 44.0909 206.78 43.6483 206.922 43.0972C207.168 42.1576 207.423 41.2098 207.423 41.1973L208.383 41.4562C207.945 43.0846 207.465 44.9386 207.431 45.1641C207.456 44.972 207.327 44.7215 207.072 44.6505C206.834 44.5837 206.609 44.7089 206.517 44.8676L207.448 45.2058C207.318 45.5608 207.097 45.6276 206.943 45.6276L206.947 45.6234Z" fill="black"/>
<path d="M203.301 44.5169L202.337 44.2705C203.757 38.7086 205.348 34.9214 205.364 34.8838L206.283 35.2721C206.266 35.3097 204.7 39.0343 203.301 44.5169Z" fill="black"/>
<path d="M199.155 49.8115C198.478 49.8115 197.773 49.5944 197.138 49.1434C196.219 48.4921 196.136 47.469 196.449 46.7926C196.766 46.1036 197.443 45.757 198.127 45.9324C199.272 46.2247 200.157 46.3249 201.13 44.9261C202.295 43.26 203.727 43.5148 204.324 43.8822L204.061 44.3039L203.806 44.7299C203.71 44.6756 202.838 44.2204 201.948 45.494C200.503 47.5609 198.862 47.1433 197.881 46.8928C197.564 46.8093 197.397 47.1141 197.351 47.206C197.213 47.5066 197.221 47.9785 197.71 48.325C198.745 49.0599 200.036 48.9388 200.704 48.0453L201.038 47.6027L201.443 47.9826C201.443 47.9826 201.773 48.2708 202.211 48.1872C202.733 48.087 203.272 47.5275 203.76 46.5629L204.646 47.0139C203.994 48.2958 203.226 49.0182 202.366 49.1685C201.906 49.2478 201.493 49.1434 201.184 48.9931C200.629 49.5276 199.902 49.8032 199.142 49.8032L199.155 49.8115Z" fill="black"/>
<path d="M204.362 56.1918C204.295 56.1918 204.228 56.1918 204.161 56.1835C203.664 56.1375 203.28 55.9455 203.021 55.6156C202.495 54.9517 202.629 53.9495 202.75 53.0727C202.779 52.8639 202.817 52.5925 202.829 52.3795C202.737 52.534 202.637 52.7261 202.558 52.8764C202.128 53.7032 201.543 54.8389 200.353 54.9559C199.577 55.031 198.959 54.7429 198.65 54.1583C198.232 53.365 198.491 52.1874 199.293 51.2312C199.994 50.3919 201.334 48.4294 201.347 48.4085L202.17 48.9681C202.115 49.0516 200.787 50.9932 200.053 51.8701C199.451 52.5841 199.334 53.3274 199.526 53.6948C199.639 53.912 199.886 54.0038 200.253 53.9662C200.904 53.9036 201.314 53.1144 201.673 52.4213C202.023 51.7448 202.353 51.1101 202.996 51.1519C203.243 51.1686 203.452 51.273 203.598 51.4525C203.923 51.8492 203.836 52.4797 203.735 53.2105C203.648 53.8618 203.535 54.6677 203.802 55.0018C203.836 55.0435 203.936 55.1688 204.257 55.198C204.533 55.2231 204.654 55.1479 204.725 55.0853C205.109 54.7471 205.143 53.7032 205.164 52.939C205.193 51.9954 205.218 51.2479 205.811 51.0433C206.491 50.8095 206.98 51.3607 207.335 51.7657C207.828 52.3252 208.074 52.534 208.508 52.3461C208.767 52.2334 208.834 52.1123 208.859 52.0288C209.013 51.5527 208.429 50.5715 207.911 49.703C207.757 49.4399 207.594 49.1685 207.443 48.9013C206.863 47.8574 207.022 47.1976 207.147 46.6631C207.243 46.2623 207.301 46.0201 207.047 45.5942C206.838 45.2434 206.086 45.0305 205.752 44.9804L205.894 43.9949C206.045 44.0158 207.393 44.2288 207.903 45.0848C208.362 45.8572 208.224 46.4335 208.116 46.8928C208.007 47.3521 207.919 47.7112 208.312 48.4169C208.454 48.6716 208.613 48.9347 208.763 49.1935C209.448 50.3418 210.095 51.4275 209.803 52.3336C209.673 52.7428 209.368 53.056 208.905 53.2606C207.761 53.7616 207.022 52.9265 206.583 52.4254C206.479 52.3085 206.328 52.1332 206.216 52.0455C206.178 52.2751 206.161 52.6843 206.153 52.9724C206.124 53.9704 206.082 55.2147 205.376 55.8369C205.101 56.0791 204.758 56.2044 204.353 56.2044L204.362 56.1918Z" fill="black"/>
<path d="M204.053 50.062C203.982 50.0579 202.358 49.9409 201.681 48.8511L202.529 48.3292C202.863 48.8678 203.786 49.0474 204.116 49.0682L204.049 50.062H204.053Z" fill="black"/>
<path d="M222.994 40.216L222.639 44.1996L229.061 41.9155L229.24 37.4184L222.994 40.216Z" fill="black"/>
<path d="M238.264 38.0447L237.612 41.356L244.172 42.2746L244.306 40.5292L238.264 38.0447Z" fill="black"/>
<path d="M267.455 24.1191L267.254 33.7021L265.701 30.6956L265.881 27.4387L265.492 21.6805L267.455 24.1191Z" fill="black"/>
<path d="M204.345 39.1429L205.176 40.9551L207.469 42.5877L207.823 41.3058L206.02 40.0531L205.585 36.3661L204.345 39.1429Z" fill="black"/>
<path d="M17.5921 40.7297C13.1326 46.2707 1.12356 44.9804 0.129774 34.9632C-0.914123 24.4741 4.45986 17.8349 11.9258 17.6888C15.6922 17.6178 20.4482 19.8684 20.6444 24.1985C20.8198 28.04 18.0096 30.7458 13.9217 29.7353C10.0426 28.7749 13.3205 25.7059 12.3141 24.9793C11.2828 24.2361 10.0259 26.4784 9.92153 26.7164C9.27431 28.2154 8.67303 29.9024 8.70643 32.8336C8.73566 35.2722 10.2932 36.7378 11.6252 36.1991C12.5146 35.84 12.7317 34.2784 11.9425 34.2575C10.1846 34.2116 9.59166 32.7668 10.456 31.4724C11.1491 30.4368 13.3914 30.2615 15.8509 30.8335C22.1268 32.3033 18.7947 39.2306 17.5879 40.7297H17.5921Z" fill="black"/>
<path d="M138.571 22.6744C138.329 17.7681 133.272 16.6323 129.606 16.5237C125.94 16.4152 122.628 18.2524 121.146 21.0125C118.541 25.8687 121.935 29.5891 126.395 31.2719C129.134 32.3075 129.397 35.2471 129.071 36.7962C128.892 37.6439 128.783 39.0677 127.393 38.7253C125.568 38.2785 129.121 33.2052 124.595 31.773C120.674 30.5328 118.716 33.3514 118.403 36.2116C117.705 42.6546 124.391 44.5879 127.067 44.7215C133.201 45.0305 137.264 42.9093 138.354 37.0426C139.444 31.1759 132.708 29.134 131.335 28.3782C129.385 27.3009 128.378 25.8061 128.679 24.1692C128.817 23.4218 129.397 22.2234 130.245 22.8163C131.259 23.5262 129.188 26.733 133.03 27.8396C135.911 28.6705 138.788 26.9752 138.575 22.6744H138.571Z" fill="black"/>
<path d="M21.9178 25.2924C21.0201 29.0129 17.6295 43.5314 27.7929 43.9865C41.351 44.592 40.1359 25.2173 39.4511 22.3486C38.8164 19.6846 40.9919 17.935 40.9919 17.935C40.9919 17.935 33.6805 16.2857 32.3902 21.2129C32.1522 22.1148 32.4821 36.8797 29.6802 36.8588C28.8451 36.8505 28.8075 34.9213 29.4506 30.1027C30.0936 25.2841 32.29 18.4862 28.9871 18.0269C23.8804 17.3129 22.8949 21.2379 21.9178 25.2966V25.2924Z" fill="black"/>
<path d="M49.0632 36.149C50.2365 36.9215 52.888 35.8985 55.3934 34.6207C58.713 32.9255 60.5043 35.4893 60.4584 37.0593C60.2913 43.0471 53.5185 44.0033 48.7124 44.0033C38.1399 44.0033 39.7934 34.174 41.1505 28.7749C41.8144 26.1276 43.7268 20.1398 41.5805 19.7473C41.5805 19.7473 46.2238 15.9934 49.7396 18.5823C53.5854 21.4092 46.9044 34.7335 49.0632 36.1532V36.149Z" fill="black"/>
<path d="M79.2569 22.9082C78.9521 30.4034 71.912 25.3677 71.4694 27.6851C71.4694 27.6935 71.4652 27.7018 71.4611 27.7144C71.3107 28.5369 71.1688 29.3428 71.0686 30.1028C70.4255 34.9214 70.3128 44.0033 65.7363 44.0033C59.1765 44.0033 61.9157 33.7356 63.1892 27.2383C63.1892 27.2383 63.2184 27.1757 63.2184 27.0838C63.2268 26.779 62.9429 26.1569 60.2914 26.612C57.6399 27.0671 56.9509 25.5222 56.9509 24.1442C56.9509 22.9834 56.383 19.1627 64.2707 18.0061C67.9619 17.4633 71.7367 17.8516 75.2024 19.2296C77.3653 20.0897 79.3153 21.309 79.2527 22.9124L79.2569 22.9082Z" fill="black"/>
<path d="M118.32 29.4054C117.631 34.5164 117.029 43.9991 111.981 43.9991C105.421 43.9991 107.513 33.9067 108.311 27.3009C108.637 24.6035 109.547 17.6846 114.353 17.6846C120.796 17.6846 118.704 26.541 118.316 29.4054H118.32Z" fill="black"/>
<path d="M141.674 58.789C140.287 59.0228 150.371 54.8263 153.048 59.7118C154.359 62.1044 156.472 66.9021 158.313 65.7372C158.313 65.7372 157.457 71.6456 153.119 72.1383C148.375 72.6812 144.221 58.3631 141.674 58.789Z" fill="black"/>
<path d="M146.442 57.5572C145.753 62.6682 145.152 72.1509 140.104 72.1509C133.544 72.1509 135.636 62.0585 136.433 55.4527C136.759 52.7553 137.669 45.8364 142.475 45.8364C148.918 45.8364 146.826 54.6928 146.438 57.5572H146.442Z" fill="black"/>
<path d="M149.686 59.4279C145.766 62.7725 142.087 69.5537 138.325 66.1881C133.435 61.8121 140.367 58.2336 145.369 53.8409C147.411 52.0496 152.639 43.8905 156.53 46.709C162.902 51.323 151.883 57.553 149.686 59.4279Z" fill="black"/>
<path d="M199.994 29.4054C199.305 34.5164 198.704 43.9991 193.655 43.9991C187.096 43.9991 189.188 33.9067 189.985 27.3009C190.311 24.6035 191.221 17.6846 196.027 17.6846C202.47 17.6846 200.378 26.541 199.99 29.4054H199.994Z" fill="black"/>
<path d="M79.3155 27.3009C79.3155 27.3009 75.4865 42.9009 80.4471 43.8697C86.1343 44.9762 87.8087 38.8965 87.8588 33.8733C87.9089 28.8501 88.4684 26.6328 89.7044 26.7706C91.9091 27.017 86.105 38.5667 92.31 38.1574C94.7402 37.9946 94.9865 27.5264 96.306 26.7372C98.1808 25.614 98.1265 28.6538 96.4688 34.4746C94.6399 40.9008 97.8635 43.9991 101.154 43.9991C103.718 43.9991 105.254 42.8759 106.206 40.7588C106.206 40.7588 104.565 41.2182 104.728 38.6919C104.908 35.8859 106.039 30.3408 106.803 27.2383C108.971 18.432 99.0118 13.6426 93.7464 22.7287C93.7464 22.7287 91.5876 16.4736 86.1802 17.9267C80.3385 19.4926 79.3114 27.3051 79.3114 27.3051L79.3155 27.3009Z" fill="black"/>
<path d="M186.661 38.6919C186.498 41.2182 188.139 40.7589 188.139 40.7589C187.187 42.8759 185.651 43.9991 183.087 43.9991C181.976 43.9991 180.753 43.9782 179.659 43.6776C173.608 42.642 172.915 28.9252 170.878 29.301C169.976 29.4681 169.788 33.8441 169.683 34.7919C169.128 39.7818 168.067 44.9762 162.38 43.8655C157.42 42.8968 161.249 27.2968 161.249 27.2968C161.249 27.2968 162.267 18.6074 167.867 17.6804C172.961 16.8369 174.765 22.3028 174.765 22.3028L177.504 28.5494C177.746 29.1424 178.832 30.4535 179.037 28.3782C179.137 27.3636 179.605 22.783 180.005 21.7182C180.506 20.3862 181.425 18.7034 182.732 18.1397C186.636 16.4569 190.599 19.6847 188.741 27.2341C187.977 30.3366 186.845 35.8818 186.661 38.6878V38.6919Z" fill="black"/>
<path d="M151.01 25.9021C150.384 25.4762 149.423 25.4929 148.797 30.1153C148.346 33.4432 148.872 41.5606 146.166 43.3143C143.118 45.2894 139.444 43.9991 139.544 37.9195C139.644 31.7354 141.277 17.2837 150.359 17.2419C160.297 17.1918 160.372 27.1548 158.994 32.6373C158.317 35.3264 157.416 41.3894 159.595 41.7902C159.595 41.7902 156.643 45.7111 152.029 43.2475C147.569 40.8632 152.685 27.0421 151.01 25.9021Z" fill="black"/>
<path d="M148.012 30.9922C148.012 30.9922 148.935 31.5016 151.887 30.9922C154.839 30.4828 151.378 37.0844 151.378 37.0844C151.378 37.0844 147.361 37.1763 146.856 36.4372C146.35 35.6981 148.008 30.9922 148.008 30.9922H148.012Z" fill="black"/>
<path d="M50.8006 69.1153C46.3452 74.6521 34.3362 73.366 33.3383 63.3488C32.2944 52.8597 37.6684 46.2205 45.1343 46.0744C48.9007 46.0034 53.6567 48.254 53.8529 52.5841C54.0283 56.4257 51.2181 59.1314 47.1302 58.121C43.0423 57.1105 46.529 54.0915 45.5226 53.365C44.4913 52.6217 43.2344 54.864 43.13 55.102C42.4828 56.601 41.8815 58.288 41.9149 61.2192C41.9442 63.6578 43.3012 65.7498 44.4787 64.9188C44.7919 64.6975 44.3326 63.5534 44.2366 62.7726C43.8357 59.4446 46.934 58.8141 49.0594 59.2233C55.1933 60.4092 52.0032 67.6204 50.7964 69.1195L50.8006 69.1153Z" fill="black"/>
<path d="M188.357 69.4285C183.902 74.9653 172.193 73.483 171.195 63.4657C170.151 52.9767 176.665 46.2289 184.127 46.0828C187.894 46.0118 193.197 47.7029 192.846 52.5925C192.228 61.2527 177.4 61.7913 177.242 59.4739C177.2 58.8851 186.432 55.5405 185.977 52.8639C185.927 52.5633 185.718 52.0789 185.326 51.9328C184.248 51.5236 182.453 53.9036 182.227 54.2085C180.428 56.6303 179.35 60.2923 179.722 63.8833C180.002 66.5724 181.463 67.6121 181.526 65.5744C181.684 60.4635 186.85 59.5449 188.382 60.5804C191.981 63.0022 189.564 67.9336 188.357 69.4326V69.4285Z" fill="black"/>
<path d="M170.289 57.7869C169.6 62.8978 168.999 72.3805 163.95 72.3805C157.391 72.3805 159.483 62.2881 160.28 55.6824C160.606 52.9849 161.516 46.066 166.322 46.066C172.765 46.066 170.673 54.9224 170.285 57.7869H170.289Z" fill="black"/>
<path d="M128.964 46.1412C127.945 45.803 126.755 45.6192 125.377 45.6234C124.324 45.6276 123.368 45.828 122.504 46.1871C120.575 46.9847 119.105 48.5756 117.982 50.5631C117.113 52.1039 116.529 53.795 116.199 55.5321C116.099 56.0707 115.99 56.5593 115.886 56.9727C114.7 61.6953 114.591 69.7416 120.934 71.8503C121.957 72.1927 123.143 72.3764 124.521 72.3681C125.577 72.3639 126.533 72.1635 127.394 71.8044C129.318 71.0068 130.792 69.4117 131.912 67.4242C132.78 65.8834 133.214 64.3843 133.699 62.4552C133.832 61.9249 133.912 61.428 134.012 61.0146C135.198 56.292 135.306 48.2457 128.959 46.137L128.964 46.1412ZM126.262 57.1898C126.103 58.5218 125.819 60.167 125.577 61.8706C125.523 62.2631 125.418 62.6515 125.251 63.0147C124.767 64.0628 124.258 63.9668 123.869 63.7037C123.681 63.5743 123.577 63.2862 123.539 62.8728C123.489 62.3592 123.539 61.6535 123.635 60.8226C123.794 59.4947 124.082 57.837 124.32 56.1208C124.375 55.7242 124.479 55.3358 124.646 54.9767C125.13 53.9287 125.64 54.0247 126.028 54.2878C126.216 54.413 126.32 54.7011 126.358 55.1104C126.408 55.6281 126.358 56.3463 126.262 57.194V57.1898Z" fill="black"/>
<path d="M88.5182 46.1412C87.4994 45.803 86.3093 45.6192 84.9314 45.6234C83.8791 45.6276 82.9229 45.828 82.0586 46.1871C80.1295 46.9847 78.6597 48.5756 77.5364 50.5631C76.6679 52.1039 76.0833 53.795 75.7534 55.5321C75.6532 56.0707 75.5447 56.5593 75.4403 56.9727C74.2544 61.6953 74.1458 69.7416 80.4886 71.8503C81.5116 72.1927 82.6975 72.3764 84.0754 72.3681C85.1318 72.3639 86.088 72.1635 86.9482 71.8044C88.8731 71.0068 90.3471 69.4117 91.4662 67.4242C92.3347 65.8834 92.769 64.3843 93.2533 62.4552C93.387 61.9249 93.4663 61.428 93.5665 61.0146C94.7524 56.292 94.8609 48.2457 88.514 46.137L88.5182 46.1412ZM85.8166 57.1898C85.6579 58.5218 85.374 60.167 85.1318 61.8706C85.0775 62.2631 84.9732 62.6515 84.8061 63.0147C84.3218 64.0628 83.8123 63.9668 83.424 63.7037C83.2361 63.5743 83.1317 63.2862 83.0941 62.8728C83.044 62.3592 83.0941 61.6535 83.1902 60.8226C83.3488 59.4947 83.637 57.837 83.875 56.1208C83.9292 55.7242 84.0336 55.3358 84.2007 54.9767C84.685 53.9287 85.1945 54.0247 85.5828 54.2878C85.7707 54.413 85.8751 54.7011 85.9127 55.1104C85.9628 55.6281 85.9127 56.3463 85.8166 57.194V57.1898Z" fill="black"/>
<path d="M108.741 46.1412C107.722 45.803 106.532 45.6192 105.154 45.6234C104.102 45.6276 103.146 45.828 102.281 46.1871C100.352 46.9847 98.8823 48.5756 97.7591 50.5631C96.8906 52.1039 96.306 53.795 95.9761 55.5321C95.8759 56.0707 95.7673 56.5593 95.6629 56.9727C94.4771 61.6953 94.3685 69.7416 100.711 71.8503C101.734 72.1927 102.92 72.3764 104.298 72.3681C105.354 72.3639 106.311 72.1635 107.171 71.8044C109.096 71.0068 110.57 69.4117 111.689 67.4242C112.557 65.8834 112.992 64.3843 113.476 62.4552C113.61 61.9249 113.689 61.428 113.789 61.0146C114.975 56.292 115.084 48.2457 108.737 46.137L108.741 46.1412ZM106.039 57.1898C105.881 58.5218 105.597 60.167 105.354 61.8706C105.3 62.2631 105.196 62.6515 105.029 63.0147C104.544 64.0628 104.035 63.9668 103.647 63.7037C103.459 63.5743 103.354 63.2862 103.317 62.8728C103.267 62.3592 103.317 61.6535 103.413 60.8226C103.571 59.4947 103.86 57.837 104.098 56.1208C104.152 55.7242 104.256 55.3358 104.423 54.9767C104.908 53.9287 105.417 54.0247 105.805 54.2878C105.993 54.413 106.098 54.7011 106.135 55.1104C106.185 55.6281 106.135 56.3463 106.039 57.194V57.1898Z" fill="black"/>
<path d="M68.2965 46.1412C67.2777 45.803 66.0877 45.6192 64.7097 45.6234C63.6575 45.6276 62.7013 45.828 61.8369 46.1871C59.9078 46.9847 58.438 48.5756 57.3147 50.5631C56.4462 52.1039 55.8616 53.795 55.5318 55.5321C55.4316 56.0707 55.323 56.5593 55.2186 56.9727C54.0327 61.6953 53.9242 69.7416 60.2669 71.8503C61.2899 72.1927 62.4758 72.3764 63.8537 72.3681C64.9101 72.3639 65.8664 72.1635 66.7265 71.8044C68.6515 71.0068 70.1254 69.4117 71.2445 67.4242C72.113 65.8834 72.5473 64.3843 73.0317 62.4552C73.1653 61.9249 73.2446 61.428 73.3448 61.0146C74.5307 56.292 74.6393 48.2457 68.2924 46.137L68.2965 46.1412ZM65.5949 57.1898C65.4363 58.5218 65.1523 60.167 64.9101 61.8706C64.8559 62.2631 64.7515 62.6515 64.5844 63.0147C64.1001 64.0628 63.5907 63.9668 63.2023 63.7037C63.0144 63.5743 62.91 63.2862 62.8725 62.8728C62.8223 62.3592 62.8725 61.6535 62.9685 60.8226C63.1272 59.4947 63.4153 57.837 63.6533 56.1208C63.7076 55.7242 63.812 55.3358 63.979 54.9767C64.4634 53.9287 64.9728 54.0247 65.3611 54.2878C65.549 54.413 65.6534 54.7011 65.691 55.1104C65.7411 55.6281 65.691 56.3463 65.5949 57.194V57.1898Z" fill="black"/>
</svg>
