<svg width="522" height="463" viewBox="0 0 522 463" fill="none" xmlns="http://www.w3.org/2000/svg">
<path d="M237.355 179.727C237.231 179.354 236.992 193.836 242.199 200.794C254.121 216.704 264.156 224.885 270.956 245.283C287.775 295.729 268.679 334.914 261.77 383.54" stroke="black" stroke-width="6" stroke-miterlimit="10" stroke-linecap="round" stroke-linejoin="round"/>
<path d="M258.796 225.015C262.467 219.379 250.583 235.688 246.033 240.65C236.326 251.234 224.157 258.701 212.946 267.619C191.621 284.58 55.7876 374.22 59.6026 307.501" stroke="black" stroke-width="6" stroke-miterlimit="10" stroke-linecap="round" stroke-linejoin="round"/>
<path d="M59.9653 316.627C58.7803 295.29 62.1579 276.394 64.6529 260.021C69.9261 225.358 82.1935 190.971 101.365 161.552C154.856 79.4713 274.31 19.2268 369.673 67.5245C526.307 146.846 438.189 430.216 262.939 384.048" stroke="black" stroke-width="6" stroke-miterlimit="10" stroke-linecap="round" stroke-linejoin="round"/>
<path d="M324.632 386.871C532.262 353.394 525.221 113.941 346.574 57.8188" stroke="black" stroke-width="6" stroke-miterlimit="10" stroke-linecap="round" stroke-linejoin="round"/>
</svg>
