<svg width="168" height="115" viewBox="0 0 168 115" fill="none" xmlns="http://www.w3.org/2000/svg">
<g filter="url(#filter0_d_89_1308)">
<path fill-rule="evenodd" clip-rule="evenodd" d="M88.3501 10.1864C88.7136 14.079 85.8526 17.5293 81.96 17.8927C78.0673 18.2562 74.6171 15.3952 74.2536 11.5026L8 17.6889L16.1607 105.087L82.4143 98.9009C82.0508 95.0083 84.9118 91.558 88.8044 91.1945C92.6971 90.8311 96.1473 93.692 96.5108 97.5847L162.764 91.3983L154.604 4.00001L88.3501 10.1864Z" fill="#FBFBFB"/>
<path d="M24.3808 33.2227L143.496 22.1004" stroke="#FF0000"/>
<path d="M29.5142 88.199L148.63 77.0768" stroke="#FF0000"/>
<path d="M56.7145 42.4978C55.9031 41.3581 55.389 40.7984 55.1721 40.8186C54.666 40.8659 53.8116 41.8694 52.609 43.8293C51.4063 45.7891 50.5833 47.519 50.1399 49.019C49.318 51.6726 49.0736 54.7828 49.4067 58.3495C49.5417 59.7955 49.7694 61.0627 50.0898 62.151C50.344 63.051 50.7714 63.9835 51.372 64.9485C51.9726 65.9134 52.477 66.4984 52.8851 66.7034C52.9882 66.7666 53.1121 66.7915 53.2567 66.778C53.8833 66.7195 54.5309 65.8447 55.1995 64.1535C55.89 62.436 56.511 60.105 57.0627 57.1606C57.6037 54.3631 57.9415 52.2531 58.076 50.8305C58.2347 49.4057 58.2499 48.0065 58.1217 46.6328C58.0181 45.5242 57.8859 44.7587 57.7249 44.3361C57.588 43.9113 57.2512 43.2986 56.7145 42.4978ZM53.7945 39.3428C54.2781 39.0546 54.7127 38.8924 55.0983 38.8564C55.4357 38.8249 56.1153 38.9438 57.1371 39.213C57.9858 39.4498 58.8261 39.8575 59.658 40.4362C60.5141 41.0127 61.2323 41.6749 61.8126 42.4229C62.204 42.9698 62.4402 43.6771 62.5212 44.5446C62.5392 44.7374 62.5849 45.4868 62.6582 46.7927C62.7834 50.4761 62.2 54.7726 60.9081 59.6823C60.0069 63.0483 59.009 65.3779 57.9142 66.6713C56.8173 67.9406 55.2084 68.6743 53.0876 68.8723C52.0995 68.9646 51.4093 68.9926 51.017 68.9563C50.6487 68.9177 50.2331 68.7621 49.77 68.4893C47.5669 67.285 46.2429 64.4307 45.798 59.9263C45.4087 55.757 45.9295 51.831 47.3602 48.1482C48.007 46.4833 48.9987 44.7377 50.3353 42.9112C51.6939 41.0583 52.8469 39.8689 53.7945 39.3428ZM65.4522 66.9885C65.9178 66.5075 66.247 66.2579 66.4398 66.2399C66.6326 66.2219 66.9891 66.3953 67.5093 66.76C67.9287 67.0855 68.1507 67.3807 68.1755 67.6458C68.2025 67.935 68.0563 68.1918 67.7369 68.4161C67.4393 68.614 67.0737 68.7333 66.6399 68.7738C65.941 68.839 65.4267 68.6683 65.097 68.2615C64.9826 68.0777 64.922 67.9496 64.9153 67.8773C64.8995 67.7086 65.0785 67.4124 65.4522 66.9885ZM78.4255 40.4706C77.6141 39.3309 77.0999 38.7711 76.883 38.7914C76.3769 38.8387 75.5225 39.8422 74.3199 41.802C73.1172 43.7619 72.2942 45.4918 71.8508 46.9918C71.029 49.6454 70.7846 52.7556 71.1176 56.3223C71.2526 57.7683 71.4803 59.0355 71.8007 60.1238C72.0549 61.0238 72.4824 61.9563 73.083 62.9212C73.6836 63.8862 74.1879 64.4711 74.596 64.6761C74.6992 64.7394 74.823 64.7643 74.9676 64.7508C75.5942 64.6923 76.2418 63.8175 76.9105 62.1263C77.6009 60.4087 78.222 58.0778 78.7736 55.1334C79.3146 52.3359 79.6524 50.2258 79.787 48.8033C79.9456 47.3785 79.9608 45.9793 79.8326 44.6056C79.7291 43.497 79.5968 42.7314 79.4358 42.3089C79.2989 41.8841 78.9621 41.2713 78.4255 40.4706ZM75.5054 37.3156C75.989 37.0273 76.4236 36.8652 76.8092 36.8292C77.1466 36.7977 77.8262 36.9166 78.8481 37.1858C79.6967 37.4226 80.537 37.8303 81.3689 38.409C82.225 38.9854 82.9432 39.6477 83.5235 40.3957C83.9149 40.9426 84.1512 41.6498 84.2322 42.5174C84.2502 42.7102 84.2958 43.4596 84.3691 44.7654C84.4943 48.4489 83.9109 52.7454 82.619 57.6551C81.7178 61.021 80.7199 63.3507 79.6252 64.6441C78.5282 65.9134 76.9193 66.6471 74.7985 66.8451C73.8104 66.9374 73.1202 66.9653 72.7279 66.9291C72.3596 66.8905 71.944 66.7348 71.4809 66.462C69.2779 65.2578 67.9539 62.4035 67.509 57.8991C67.1197 53.7298 67.6404 49.8038 69.0711 46.1209C69.7179 44.4561 70.7096 42.7104 72.0463 40.8839C73.4048 39.0311 74.5578 37.8416 75.5054 37.3156ZM96.6415 38.7697C95.8301 37.63 95.3159 37.0703 95.099 37.0905C94.5929 37.1378 93.7386 38.1413 92.5359 40.1012C91.3332 42.061 90.5102 43.7909 90.0668 45.2909C89.245 47.9445 89.0006 51.0547 89.3336 54.6214C89.4686 56.0674 89.6963 57.3346 90.0167 58.4229C90.271 59.3229 90.6984 60.2554 91.299 61.2203C91.8996 62.1853 92.4039 62.7702 92.812 62.9752C92.9152 63.0385 93.039 63.0634 93.1836 63.0499C93.8102 62.9914 94.4578 62.1166 95.1265 60.4254C95.8169 58.7078 96.438 56.3769 96.9896 53.4325C97.5306 50.635 97.8684 48.525 98.003 47.1024C98.1616 45.6776 98.1769 44.2784 98.0486 42.9047C97.9451 41.7961 97.8128 41.0306 97.6518 40.608C97.5149 40.1832 97.1781 39.5705 96.6415 38.7697ZM93.7214 35.6147C94.205 35.3264 94.6396 35.1643 95.0252 35.1283C95.3626 35.0968 96.0422 35.2157 97.0641 35.4849C97.9127 35.7217 98.753 36.1294 99.5849 36.7081C100.441 37.2845 101.159 37.9468 101.74 38.6948C102.131 39.2417 102.367 39.9489 102.448 40.8165C102.466 41.0093 102.512 41.7587 102.585 43.0646C102.71 46.748 102.127 51.0445 100.835 55.9542C99.9338 59.3201 98.9359 61.6498 97.8412 62.9432C96.7442 64.2125 95.1353 64.9462 93.0145 65.1442C92.0265 65.2365 91.3362 65.2645 90.9439 65.2282C90.5756 65.1896 90.16 65.0339 89.6969 64.7612C87.4939 63.5569 86.1699 60.7026 85.725 56.1982C85.3357 52.0289 85.8564 48.1029 87.2871 44.4201C87.9339 42.7552 88.9256 41.0095 90.2623 39.183C91.6208 37.3302 92.7738 36.1407 93.7214 35.6147ZM118.952 48.5011C119.568 48.0789 120.347 47.8239 121.287 47.7361C121.937 47.6754 122.4 47.6808 122.674 47.7524C122.972 47.8218 123.306 48.0095 123.675 48.3154C124.177 48.7546 124.573 49.3497 124.862 50.1006C125.173 50.8252 125.461 51.9531 125.725 53.4842C126.114 55.8302 126.402 57.3471 126.588 58.0347C126.773 58.7224 127.027 59.2214 127.347 59.5318C127.644 59.8444 127.796 60.0369 127.802 60.1092C127.809 60.1815 127.701 60.3253 127.478 60.5406C127.209 60.7845 126.749 60.9368 126.099 60.9976C124.797 61.1191 123.843 60.9286 123.237 60.426C122.19 59.6243 121.424 57.666 120.939 54.5511C120.727 53.0636 120.524 52.3289 120.332 52.3469C120.139 52.3649 120.003 52.9975 119.925 54.2446C119.869 55.4653 119.879 56.4854 119.956 57.3048C120.062 58.4374 119.952 59.2135 119.626 59.6328C119.325 60.0499 118.668 60.3057 117.656 60.4002C116.692 60.4902 116.011 60.3593 115.614 60.0075C115.24 59.6534 114.939 58.9036 114.711 57.758C114.431 56.3256 114.207 55.6172 114.038 55.6329C113.918 55.6442 113.904 56.4112 113.998 57.934C114.117 59.2113 114.156 60.022 114.116 60.3661C114.097 60.6839 113.952 60.9527 113.68 61.1725C113.298 61.5 112.685 61.7031 111.841 61.7819C111.239 61.8381 110.736 61.7878 110.332 61.631C109.981 61.518 109.631 60.6269 109.28 58.9579C108.74 56.5531 108.373 55.3597 108.18 55.3777C108.132 55.3822 108.075 55.424 108.01 55.503C107.813 55.7402 107.733 56.5742 107.769 58.0051C107.77 58.2724 107.79 58.623 107.831 59.0568C107.914 59.9485 108.252 61.096 108.845 62.4992C109.531 64.1126 110.253 65.3456 111.014 66.1984C111.453 66.7408 111.803 67.0971 112.062 67.2674C112.345 67.4355 112.727 67.497 113.209 67.452C113.691 67.407 114.573 67.2153 115.854 66.8769C116.469 66.6979 117.187 66.5701 118.006 66.4936C121.091 66.2056 123.15 67.3017 124.184 69.782C124.31 70.0863 124.585 71.0816 125.01 72.7679C125.459 74.452 125.733 75.4353 125.832 75.7177C125.858 75.7396 125.875 75.7867 125.882 75.859C125.9 76.0518 125.771 76.234 125.495 76.4056C125.246 76.599 124.953 76.7115 124.615 76.743C124.398 76.7632 124.19 76.7462 123.99 76.6919C123.365 76.5072 122.868 76.1282 122.499 75.555C122.129 74.9817 121.688 73.9046 121.176 72.3237C120.491 70.1997 119.959 68.9246 119.579 68.4982C119.172 68.0499 118.523 67.8674 117.632 67.9507C116.716 68.0362 115.655 68.3905 114.449 69.0136C113.243 69.6367 112.079 70.4504 110.958 71.4546C110.127 72.1885 109.434 72.5814 108.88 72.6332C108.591 72.6602 108.333 72.6356 108.107 72.5594C107.807 72.4659 107.649 72.3348 107.633 72.1661C107.604 71.8528 108.03 71.339 108.911 70.6247C109.766 69.8885 110.189 69.4722 110.18 69.3758C110.173 69.3035 109.781 69.0119 109.004 68.501C107.738 67.6955 106.704 66.5157 105.903 64.9618C105.101 63.4079 104.617 61.7392 104.451 59.9559C104.167 56.9193 104.756 54.5062 106.218 52.7167C106.937 51.823 107.621 51.3458 108.272 51.2851C108.706 51.2446 109.253 51.3758 109.913 51.6788L110.868 52.1367L111.844 50.8786C112.543 50.0354 113.291 49.5767 114.086 49.5024C114.736 49.4417 115.425 49.6569 116.152 50.1482L117.126 50.823L117.63 49.9737C117.942 49.4097 118.383 48.9189 118.952 48.5011Z" fill="black"/>
</g>
<defs>
<filter id="filter0_d_89_1308" x="0.7" y="0.700007" width="165.364" height="111.687" filterUnits="userSpaceOnUse" color-interpolation-filters="sRGB">
<feFlood flood-opacity="0" result="BackgroundImageFix"/>
<feColorMatrix in="SourceAlpha" type="matrix" values="0 0 0 0 0 0 0 0 0 0 0 0 0 0 0 0 0 0 127 0" result="hardAlpha"/>
<feOffset dx="-2" dy="2"/>
<feGaussianBlur stdDeviation="2.65"/>
<feComposite in2="hardAlpha" operator="out"/>
<feColorMatrix type="matrix" values="0 0 0 0 0 0 0 0 0 0 0 0 0 0 0 0 0 0 0.21 0"/>
<feBlend mode="normal" in2="BackgroundImageFix" result="effect1_dropShadow_89_1308"/>
<feBlend mode="normal" in="SourceGraphic" in2="effect1_dropShadow_89_1308" result="shape"/>
</filter>
</defs>
</svg>
