<svg width="83" height="83" viewBox="0 0 83 83" fill="none" xmlns="http://www.w3.org/2000/svg">
<path d="M29.88 0H26.56V3.32H29.88V0Z" fill="black"/>
<path d="M33.2 0H29.88V3.32H33.2V0Z" fill="black"/>
<path d="M36.52 0H33.2V3.32H36.52V0Z" fill="black"/>
<path d="M49.8 0H46.48V3.32H49.8V0Z" fill="black"/>
<path d="M29.88 3.32007H26.56V6.64007H29.88V3.32007Z" fill="black"/>
<path d="M33.2 3.32007H29.88V6.64007H33.2V3.32007Z" fill="black"/>
<path d="M39.84 3.32007H36.52V6.64007H39.84V3.32007Z" fill="black"/>
<path d="M46.48 3.32007H43.16V6.64007H46.48V3.32007Z" fill="black"/>
<path d="M49.8 3.32007H46.48V6.64007H49.8V3.32007Z" fill="black"/>
<path d="M56.44 3.32007H53.12V6.64007H56.44V3.32007Z" fill="black"/>
<path d="M29.88 6.64001H26.56V9.96001H29.88V6.64001Z" fill="black"/>
<path d="M36.52 6.64001H33.2V9.96001H36.52V6.64001Z" fill="black"/>
<path d="M39.84 6.64001H36.52V9.96001H39.84V6.64001Z" fill="black"/>
<path d="M43.16 6.64001H39.84V9.96001H43.16V6.64001Z" fill="black"/>
<path d="M46.48 6.64001H43.16V9.96001H46.48V6.64001Z" fill="black"/>
<path d="M49.8 6.64001H46.48V9.96001H49.8V6.64001Z" fill="black"/>
<path d="M53.12 6.64001H49.8V9.96001H53.12V6.64001Z" fill="black"/>
<path d="M39.84 9.95996H36.52V13.28H39.84V9.95996Z" fill="black"/>
<path d="M46.48 9.95996H43.16V13.28H46.48V9.95996Z" fill="black"/>
<path d="M53.12 9.95996H49.8V13.28H53.12V9.95996Z" fill="black"/>
<path d="M56.44 9.95996H53.12V13.28H56.44V9.95996Z" fill="black"/>
<path d="M29.88 13.2802H26.56V16.6002H29.88V13.2802Z" fill="black"/>
<path d="M56.44 13.2802H53.12V16.6002H56.44V13.2802Z" fill="black"/>
<path d="M36.52 16.6001H33.2V19.9201H36.52V16.6001Z" fill="black"/>
<path d="M39.84 16.6001H36.52V19.9201H39.84V16.6001Z" fill="black"/>
<path d="M46.48 16.6001H43.16V19.9201H46.48V16.6001Z" fill="black"/>
<path d="M56.44 16.6001H53.12V19.9201H56.44V16.6001Z" fill="black"/>
<path d="M29.88 19.92H26.56V23.24H29.88V19.92Z" fill="black"/>
<path d="M36.52 19.92H33.2V23.24H36.52V19.92Z" fill="black"/>
<path d="M43.16 19.92H39.84V23.24H43.16V19.92Z" fill="black"/>
<path d="M49.8 19.92H46.48V23.24H49.8V19.92Z" fill="black"/>
<path d="M56.44 19.92H53.12V23.24H56.44V19.92Z" fill="black"/>
<path d="M33.2 23.24H29.88V26.56H33.2V23.24Z" fill="black"/>
<path d="M43.16 23.24H39.84V26.56H43.16V23.24Z" fill="black"/>
<path d="M46.48 23.24H43.16V26.56H46.48V23.24Z" fill="black"/>
<path d="M56.44 23.24H53.12V26.56H56.44V23.24Z" fill="black"/>
<path d="M3.32 26.5601H0V29.8801H3.32V26.5601Z" fill="black"/>
<path d="M13.28 26.5601H9.96002V29.8801H13.28V26.5601Z" fill="black"/>
<path d="M16.6 26.5601H13.28V29.8801H16.6V26.5601Z" fill="black"/>
<path d="M19.92 26.5601H16.6V29.8801H19.92V26.5601Z" fill="black"/>
<path d="M23.24 26.5601H19.92V29.8801H23.24V26.5601Z" fill="black"/>
<path d="M26.56 26.5601H23.24V29.8801H26.56V26.5601Z" fill="black"/>
<path d="M29.88 26.5601H26.56V29.8801H29.88V26.5601Z" fill="black"/>
<path d="M39.84 26.5601H36.52V29.8801H39.84V26.5601Z" fill="black"/>
<path d="M43.16 26.5601H39.84V29.8801H43.16V26.5601Z" fill="black"/>
<path d="M49.8 26.5601H46.48V29.8801H49.8V26.5601Z" fill="black"/>
<path d="M53.12 26.5601H49.8V29.8801H53.12V26.5601Z" fill="black"/>
<path d="M59.76 26.5601H56.44V29.8801H59.76V26.5601Z" fill="black"/>
<path d="M69.72 26.5601H66.4V29.8801H69.72V26.5601Z" fill="black"/>
<path d="M76.36 26.5601H73.04V29.8801H76.36V26.5601Z" fill="black"/>
<path d="M79.68 26.5601H76.36V29.8801H79.68V26.5601Z" fill="black"/>
<path d="M83 26.5601H79.68V29.8801H83V26.5601Z" fill="black"/>
<path d="M6.64001 29.8801H3.32001V33.2001H6.64001V29.8801Z" fill="black"/>
<path d="M16.6 29.8801H13.28V33.2001H16.6V29.8801Z" fill="black"/>
<path d="M26.56 29.8801H23.24V33.2001H26.56V29.8801Z" fill="black"/>
<path d="M29.88 29.8801H26.56V33.2001H29.88V29.8801Z" fill="black"/>
<path d="M33.2 29.8801H29.88V33.2001H33.2V29.8801Z" fill="black"/>
<path d="M36.52 29.8801H33.2V33.2001H36.52V29.8801Z" fill="black"/>
<path d="M49.8 29.8801H46.48V33.2001H49.8V29.8801Z" fill="black"/>
<path d="M53.12 29.8801H49.8V33.2001H53.12V29.8801Z" fill="black"/>
<path d="M59.76 29.8801H56.44V33.2001H59.76V29.8801Z" fill="black"/>
<path d="M66.4 29.8801H63.08V33.2001H66.4V29.8801Z" fill="black"/>
<path d="M69.72 29.8801H66.4V33.2001H69.72V29.8801Z" fill="black"/>
<path d="M73.04 29.8801H69.72V33.2001H73.04V29.8801Z" fill="black"/>
<path d="M76.36 29.8801H73.04V33.2001H76.36V29.8801Z" fill="black"/>
<path d="M79.68 29.8801H76.36V33.2001H79.68V29.8801Z" fill="black"/>
<path d="M3.32 33.2H0V36.52H3.32V33.2Z" fill="black"/>
<path d="M6.64001 33.2H3.32001V36.52H6.64001V33.2Z" fill="black"/>
<path d="M13.28 33.2H9.96002V36.52H13.28V33.2Z" fill="black"/>
<path d="M16.6 33.2H13.28V36.52H16.6V33.2Z" fill="black"/>
<path d="M19.92 33.2H16.6V36.52H19.92V33.2Z" fill="black"/>
<path d="M23.24 33.2H19.92V36.52H23.24V33.2Z" fill="black"/>
<path d="M29.88 33.2H26.56V36.52H29.88V33.2Z" fill="black"/>
<path d="M33.2 33.2H29.88V36.52H33.2V33.2Z" fill="black"/>
<path d="M36.52 33.2H33.2V36.52H36.52V33.2Z" fill="black"/>
<path d="M43.16 33.2H39.84V36.52H43.16V33.2Z" fill="black"/>
<path d="M49.8 33.2H46.48V36.52H49.8V33.2Z" fill="black"/>
<path d="M53.12 33.2H49.8V36.52H53.12V33.2Z" fill="black"/>
<path d="M63.08 33.2H59.76V36.52H63.08V33.2Z" fill="black"/>
<path d="M66.4 33.2H63.08V36.52H66.4V33.2Z" fill="black"/>
<path d="M73.04 33.2H69.72V36.52H73.04V33.2Z" fill="black"/>
<path d="M83 33.2H79.68V36.52H83V33.2Z" fill="black"/>
<path d="M3.32 36.5201H0V39.8401H3.32V36.5201Z" fill="black"/>
<path d="M6.64001 36.5201H3.32001V39.8401H6.64001V36.5201Z" fill="black"/>
<path d="M13.28 36.5201H9.96002V39.8401H13.28V36.5201Z" fill="black"/>
<path d="M16.6 36.5201H13.28V39.8401H16.6V36.5201Z" fill="black"/>
<path d="M29.88 36.5201H26.56V39.8401H29.88V36.5201Z" fill="black"/>
<path d="M36.52 36.5201H33.2V39.8401H36.52V36.5201Z" fill="black"/>
<path d="M49.8 36.5201H46.48V39.8401H49.8V36.5201Z" fill="black"/>
<path d="M66.4 36.5201H63.08V39.8401H66.4V36.5201Z" fill="black"/>
<path d="M73.04 36.5201H69.72V39.8401H73.04V36.5201Z" fill="black"/>
<path d="M76.36 36.5201H73.04V39.8401H76.36V36.5201Z" fill="black"/>
<path d="M79.68 36.5201H76.36V39.8401H79.68V36.5201Z" fill="black"/>
<path d="M83 36.5201H79.68V39.8401H83V36.5201Z" fill="black"/>
<path d="M9.96001 39.8401H6.64001V43.1601H9.96001V39.8401Z" fill="black"/>
<path d="M13.28 39.8401H9.96002V43.1601H13.28V39.8401Z" fill="black"/>
<path d="M23.24 39.8401H19.92V43.1601H23.24V39.8401Z" fill="black"/>
<path d="M26.56 39.8401H23.24V43.1601H26.56V39.8401Z" fill="black"/>
<path d="M33.2 39.8401H29.88V43.1601H33.2V39.8401Z" fill="black"/>
<path d="M43.16 39.8401H39.84V43.1601H43.16V39.8401Z" fill="black"/>
<path d="M56.44 39.8401H53.12V43.1601H56.44V39.8401Z" fill="black"/>
<path d="M63.08 39.8401H59.76V43.1601H63.08V39.8401Z" fill="black"/>
<path d="M83 39.8401H79.68V43.1601H83V39.8401Z" fill="black"/>
<path d="M3.32 43.16H0V46.48H3.32V43.16Z" fill="black"/>
<path d="M6.64001 43.16H3.32001V46.48H6.64001V43.16Z" fill="black"/>
<path d="M16.6 43.16H13.28V46.48H16.6V43.16Z" fill="black"/>
<path d="M29.88 43.16H26.56V46.48H29.88V43.16Z" fill="black"/>
<path d="M36.52 43.16H33.2V46.48H36.52V43.16Z" fill="black"/>
<path d="M43.16 43.16H39.84V46.48H43.16V43.16Z" fill="black"/>
<path d="M49.8 43.16H46.48V46.48H49.8V43.16Z" fill="black"/>
<path d="M53.12 43.16H49.8V46.48H53.12V43.16Z" fill="black"/>
<path d="M56.44 43.16H53.12V46.48H56.44V43.16Z" fill="black"/>
<path d="M59.76 43.16H56.44V46.48H59.76V43.16Z" fill="black"/>
<path d="M69.72 43.16H66.4V46.48H69.72V43.16Z" fill="black"/>
<path d="M79.68 43.16H76.36V46.48H79.68V43.16Z" fill="black"/>
<path d="M3.32 46.48H0V49.8H3.32V46.48Z" fill="black"/>
<path d="M6.64001 46.48H3.32001V49.8H6.64001V46.48Z" fill="black"/>
<path d="M9.96001 46.48H6.64001V49.8H9.96001V46.48Z" fill="black"/>
<path d="M13.28 46.48H9.96002V49.8H13.28V46.48Z" fill="black"/>
<path d="M16.6 46.48H13.28V49.8H16.6V46.48Z" fill="black"/>
<path d="M19.92 46.48H16.6V49.8H19.92V46.48Z" fill="black"/>
<path d="M23.24 46.48H19.92V49.8H23.24V46.48Z" fill="black"/>
<path d="M26.56 46.48H23.24V49.8H26.56V46.48Z" fill="black"/>
<path d="M29.88 46.48H26.56V49.8H29.88V46.48Z" fill="black"/>
<path d="M49.8 46.48H46.48V49.8H49.8V46.48Z" fill="black"/>
<path d="M53.12 46.48H49.8V49.8H53.12V46.48Z" fill="black"/>
<path d="M59.76 46.48H56.44V49.8H59.76V46.48Z" fill="black"/>
<path d="M63.08 46.48H59.76V49.8H63.08V46.48Z" fill="black"/>
<path d="M69.72 46.48H66.4V49.8H69.72V46.48Z" fill="black"/>
<path d="M73.04 46.48H69.72V49.8H73.04V46.48Z" fill="black"/>
<path d="M76.36 46.48H73.04V49.8H76.36V46.48Z" fill="black"/>
<path d="M79.68 46.48H76.36V49.8H79.68V46.48Z" fill="black"/>
<path d="M83 46.48H79.68V49.8H83V46.48Z" fill="black"/>
<path d="M3.32 49.8H0V53.12H3.32V49.8Z" fill="black"/>
<path d="M13.28 49.8H9.96002V53.12H13.28V49.8Z" fill="black"/>
<path d="M16.6 49.8H13.28V53.12H16.6V49.8Z" fill="black"/>
<path d="M49.8 49.8H46.48V53.12H49.8V49.8Z" fill="black"/>
<path d="M59.76 49.8H56.44V53.12H59.76V49.8Z" fill="black"/>
<path d="M66.4 49.8H63.08V53.12H66.4V49.8Z" fill="black"/>
<path d="M73.04 49.8H69.72V53.12H73.04V49.8Z" fill="black"/>
<path d="M76.36 49.8H73.04V53.12H76.36V49.8Z" fill="black"/>
<path d="M83 49.8H79.68V53.12H83V49.8Z" fill="black"/>
<path d="M3.32 53.1201H0V56.4401H3.32V53.1201Z" fill="black"/>
<path d="M9.96001 53.1201H6.64001V56.4401H9.96001V53.1201Z" fill="black"/>
<path d="M19.92 53.1201H16.6V56.4401H19.92V53.1201Z" fill="black"/>
<path d="M23.24 53.1201H19.92V56.4401H23.24V53.1201Z" fill="black"/>
<path d="M29.88 53.1201H26.56V56.4401H29.88V53.1201Z" fill="black"/>
<path d="M33.2 53.1201H29.88V56.4401H33.2V53.1201Z" fill="black"/>
<path d="M43.16 53.1201H39.84V56.4401H43.16V53.1201Z" fill="black"/>
<path d="M46.48 53.1201H43.16V56.4401H46.48V53.1201Z" fill="black"/>
<path d="M53.12 53.1201H49.8V56.4401H53.12V53.1201Z" fill="black"/>
<path d="M56.44 53.1201H53.12V56.4401H56.44V53.1201Z" fill="black"/>
<path d="M59.76 53.1201H56.44V56.4401H59.76V53.1201Z" fill="black"/>
<path d="M63.08 53.1201H59.76V56.4401H63.08V53.1201Z" fill="black"/>
<path d="M66.4 53.1201H63.08V56.4401H66.4V53.1201Z" fill="black"/>
<path d="M69.72 53.1201H66.4V56.4401H69.72V53.1201Z" fill="black"/>
<path d="M76.36 53.1201H73.04V56.4401H76.36V53.1201Z" fill="black"/>
<path d="M79.68 53.1201H76.36V56.4401H79.68V53.1201Z" fill="black"/>
<path d="M29.88 56.4399H26.56V59.7599H29.88V56.4399Z" fill="black"/>
<path d="M33.2 56.4399H29.88V59.7599H33.2V56.4399Z" fill="black"/>
<path d="M36.52 56.4399H33.2V59.7599H36.52V56.4399Z" fill="black"/>
<path d="M46.48 56.4399H43.16V59.7599H46.48V56.4399Z" fill="black"/>
<path d="M53.12 56.4399H49.8V59.7599H53.12V56.4399Z" fill="black"/>
<path d="M56.44 56.4399H53.12V59.7599H56.44V56.4399Z" fill="black"/>
<path d="M69.72 56.4399H66.4V59.7599H69.72V56.4399Z" fill="black"/>
<path d="M76.36 56.4399H73.04V59.7599H76.36V56.4399Z" fill="black"/>
<path d="M79.68 56.4399H76.36V59.7599H79.68V56.4399Z" fill="black"/>
<path d="M29.88 59.76H26.56V63.08H29.88V59.76Z" fill="black"/>
<path d="M39.84 59.76H36.52V63.08H39.84V59.76Z" fill="black"/>
<path d="M46.48 59.76H43.16V63.08H46.48V59.76Z" fill="black"/>
<path d="M49.8 59.76H46.48V63.08H49.8V59.76Z" fill="black"/>
<path d="M56.44 59.76H53.12V63.08H56.44V59.76Z" fill="black"/>
<path d="M63.08 59.76H59.76V63.08H63.08V59.76Z" fill="black"/>
<path d="M69.72 59.76H66.4V63.08H69.72V59.76Z" fill="black"/>
<path d="M83 59.76H79.68V63.08H83V59.76Z" fill="black"/>
<path d="M29.88 63.0801H26.56V66.4001H29.88V63.0801Z" fill="black"/>
<path d="M39.84 63.0801H36.52V66.4001H39.84V63.0801Z" fill="black"/>
<path d="M46.48 63.0801H43.16V66.4001H46.48V63.0801Z" fill="black"/>
<path d="M53.12 63.0801H49.8V66.4001H53.12V63.0801Z" fill="black"/>
<path d="M56.44 63.0801H53.12V66.4001H56.44V63.0801Z" fill="black"/>
<path d="M69.72 63.0801H66.4V66.4001H69.72V63.0801Z" fill="black"/>
<path d="M29.88 66.4H26.56V69.72H29.88V66.4Z" fill="black"/>
<path d="M36.52 66.4H33.2V69.72H36.52V66.4Z" fill="black"/>
<path d="M39.84 66.4H36.52V69.72H39.84V66.4Z" fill="black"/>
<path d="M43.16 66.4H39.84V69.72H43.16V66.4Z" fill="black"/>
<path d="M53.12 66.4H49.8V69.72H53.12V66.4Z" fill="black"/>
<path d="M56.44 66.4H53.12V69.72H56.44V66.4Z" fill="black"/>
<path d="M59.76 66.4H56.44V69.72H59.76V66.4Z" fill="black"/>
<path d="M63.08 66.4H59.76V69.72H63.08V66.4Z" fill="black"/>
<path d="M66.4 66.4H63.08V69.72H66.4V66.4Z" fill="black"/>
<path d="M69.72 66.4H66.4V69.72H69.72V66.4Z" fill="black"/>
<path d="M29.88 69.72H26.56V73.04H29.88V69.72Z" fill="black"/>
<path d="M39.84 69.72H36.52V73.04H39.84V69.72Z" fill="black"/>
<path d="M46.48 69.72H43.16V73.04H46.48V69.72Z" fill="black"/>
<path d="M49.8 69.72H46.48V73.04H49.8V69.72Z" fill="black"/>
<path d="M53.12 69.72H49.8V73.04H53.12V69.72Z" fill="black"/>
<path d="M63.08 69.72H59.76V73.04H63.08V69.72Z" fill="black"/>
<path d="M79.68 69.72H76.36V73.04H79.68V69.72Z" fill="black"/>
<path d="M83 69.72H79.68V73.04H83V69.72Z" fill="black"/>
<path d="M33.2 73.04H29.88V76.36H33.2V73.04Z" fill="black"/>
<path d="M39.84 73.04H36.52V76.36H39.84V73.04Z" fill="black"/>
<path d="M46.48 73.04H43.16V76.36H46.48V73.04Z" fill="black"/>
<path d="M59.76 73.04H56.44V76.36H59.76V73.04Z" fill="black"/>
<path d="M69.72 73.04H66.4V76.36H69.72V73.04Z" fill="black"/>
<path d="M73.04 73.04H69.72V76.36H73.04V73.04Z" fill="black"/>
<path d="M76.36 73.04H73.04V76.36H76.36V73.04Z" fill="black"/>
<path d="M79.68 73.04H76.36V76.36H79.68V73.04Z" fill="black"/>
<path d="M83 73.04H79.68V76.36H83V73.04Z" fill="black"/>
<path d="M36.52 76.3601H33.2V79.6801H36.52V76.3601Z" fill="black"/>
<path d="M43.16 76.3601H39.84V79.6801H43.16V76.3601Z" fill="black"/>
<path d="M66.4 76.3601H63.08V79.6801H66.4V76.3601Z" fill="black"/>
<path d="M69.72 76.3601H66.4V79.6801H69.72V76.3601Z" fill="black"/>
<path d="M76.36 76.3601H73.04V79.6801H76.36V76.3601Z" fill="black"/>
<path d="M79.68 76.3601H76.36V79.6801H79.68V76.3601Z" fill="black"/>
<path d="M83 76.3601H79.68V79.6801H83V76.3601Z" fill="black"/>
<path d="M29.88 79.6801H26.56V83.0001H29.88V79.6801Z" fill="black"/>
<path d="M33.2 79.6801H29.88V83.0001H33.2V79.6801Z" fill="black"/>
<path d="M39.84 79.6801H36.52V83.0001H39.84V79.6801Z" fill="black"/>
<path d="M43.16 79.6801H39.84V83.0001H43.16V79.6801Z" fill="black"/>
<path d="M56.44 79.6801H53.12V83.0001H56.44V79.6801Z" fill="black"/>
<path d="M59.76 79.6801H56.44V83.0001H59.76V79.6801Z" fill="black"/>
<path d="M73.04 79.6801H69.72V83.0001H73.04V79.6801Z" fill="black"/>
<path d="M83 79.6801H79.68V83.0001H83V79.6801Z" fill="black"/>
<path d="M19.754 0H3.486H0V3.486V19.754V23.24H3.486H19.754H23.24V19.754V3.486V0H19.754ZM19.754 19.754H3.486V3.486H19.754V19.754Z" fill="black"/>
<path d="M79.514 0H63.246H59.76V3.486V19.754V23.24H63.246H79.514H83V19.754V3.486V0H79.514ZM79.514 19.754H63.246V3.486H79.514V19.754Z" fill="black"/>
<path d="M19.754 59.76H3.486H0V63.246V79.514V83H3.486H19.754H23.24V79.514V63.246V59.76H19.754ZM19.754 79.514H3.486V63.246H19.754V79.514Z" fill="black"/>
<path d="M16.6 6.64001H6.64001V16.6H16.6V6.64001Z" fill="black"/>
<path d="M76.36 6.64001H66.4V16.6H76.36V6.64001Z" fill="black"/>
<path d="M16.6 66.4H6.64001V76.36H16.6V66.4Z" fill="black"/>
</svg>
