<svg width="22" height="21" viewBox="0 0 22 21" fill="none" xmlns="http://www.w3.org/2000/svg">
<path d="M2.2311 9.40948L7.78826 8.14614C8.18355 8.05534 8.49483 7.74734 8.58981 7.35304L9.91198 1.80957C10.1733 0.711702 11.7369 0.719988 11.9866 1.82057L13.2499 7.37773C13.3407 7.77302 13.6487 8.0843 14.043 8.17928L19.5865 9.50145C20.6844 9.76272 20.6761 11.3264 19.5755 11.576L14.0183 12.8394C13.623 12.9302 13.3118 13.2382 13.2168 13.6325L11.8946 19.1759C11.6333 20.2738 10.0696 20.2655 9.82001 19.165L8.55667 13.6078C8.46587 13.2125 8.15787 12.9012 7.76357 12.8062L2.22011 11.4841C1.12227 11.2151 1.13052 9.65911 2.2311 9.40948Z" stroke="white" stroke-width="2" stroke-miterlimit="10"/>
</svg>
