<svg width="28" height="28" viewBox="0 0 28 28" fill="none" xmlns="http://www.w3.org/2000/svg">
<path fill-rule="evenodd" clip-rule="evenodd" d="M27.5075 2.5583C28.0919 1.97121 28.0898 1.02146 27.5027 0.43698C26.9156 -0.1475 25.9659 -0.145385 25.3814 0.441705L14 11.8739L2.61858 0.441705C2.0341 -0.145385 1.08435 -0.1475 0.497262 0.43698C-0.0898276 1.02146 -0.0919429 1.97121 0.492537 2.5583L11.8834 14L0.492539 25.4417C-0.091941 26.0288 -0.0898258 26.9785 0.497266 27.563C1.08436 28.1475 2.0341 28.1454 2.61858 27.5583L14 16.1261L25.3814 27.5583C25.9659 28.1454 26.9156 28.1475 27.5027 27.563C28.0898 26.9785 28.0919 26.0288 27.5075 25.4417L16.1166 14L27.5075 2.5583Z" fill="black"/>
</svg>
