<svg width="28" height="29" viewBox="0 0 28 29" fill="none" xmlns="http://www.w3.org/2000/svg">
<path fill-rule="evenodd" clip-rule="evenodd" d="M27.0821 3.0388C27.6558 2.44118 27.6364 1.49163 27.0388 0.917921C26.4412 0.344209 25.4916 0.363587 24.9179 0.961204L14 12.334L3.08208 0.961204C2.50837 0.363587 1.55882 0.344209 0.961204 0.917921C0.363587 1.49163 0.344209 2.44118 0.917921 3.0388L11.9207 14.5L0.917922 25.9612C0.344211 26.5588 0.363589 27.5084 0.961206 28.0821C1.55882 28.6558 2.50837 28.6364 3.08208 28.0388L14 16.666L24.9179 28.0388C25.4916 28.6364 26.4412 28.6558 27.0388 28.0821C27.6364 27.5084 27.6558 26.5588 27.0821 25.9612L16.0793 14.5L27.0821 3.0388Z" fill="#FF0000"/>
</svg>
